<?xml version="1.0" standalone="no"?>
<!DOCTYPE svg PUBLIC "-//W3C//DTD SVG 1.1//EN" "http://www.w3.org/Graphics/SVG/1.1/DTD/svg11.dtd">
<svg width="100%" height="100%" viewBox="0 0 360 260" version="1.1" xmlns="http://www.w3.org/2000/svg" xmlns:xlink="http://www.w3.org/1999/xlink" xml:space="preserve" style="fill-rule:evenodd;clip-rule:evenodd;stroke-linejoin:round;stroke-miterlimit:1.41421;">
    <g>
        <clipPath id="_clip1">
            <path d="M0,4.006C0,1.794 1.788,0 3.997,0L356.003,0C358.211,0 360,1.799 360,4.006L360,255.994C360,258.207 358.212,260 356.003,260L3.997,260C1.789,260 0,258.201 0,255.994L0,4.006Z"/>
        </clipPath>
        <g clip-path="url(#_clip1)">
            <rect x="0" y="0" width="360" height="260" style="fill:rgb(252,252,252);fill-rule:nonzero;"/>
            <clipPath id="_clip2">
                <path d="M179.528,164.577C170.647,164.577 163.305,159.75 162.156,153.516L166.312,153.516C167.251,153.516 168.012,152.755 168.012,151.816L168.012,140.43C171.467,142.354 175.427,143.443 179.637,143.443C183.847,143.443 187.807,142.354 191.262,140.431L191.262,151.816C191.262,152.755 192.023,153.516 192.962,153.516L196.901,153.516C195.752,159.75 188.409,164.577 179.528,164.577ZM158.864,120.558L157.361,105.41L157.346,105.208C157.239,104.239 157.187,103.37 157.187,102.552C157.187,89.786 167.258,79.4 179.637,79.4C192.015,79.4 202.086,89.786 202.086,102.552C202.086,103.376 202.034,104.245 201.921,105.291L200.409,120.571C199.389,131.672 190.459,140.043 179.637,140.043C168.815,140.043 159.884,131.672 158.864,120.558ZM203.528,150.116L194.662,150.116L194.662,138.136C199.711,134.064 203.145,127.957 203.793,120.894L205.304,105.651L205.307,105.583C205.428,104.493 205.486,103.502 205.486,102.552C205.486,87.911 193.89,76 179.637,76C165.383,76 153.787,87.911 153.787,102.552C153.787,103.496 153.846,104.487 153.96,105.5L155.479,120.882C156.129,127.952 159.563,134.062 164.612,138.135L164.612,150.116L155.747,150.116C138.241,150.116 124,164.749 124,182.735C124,183.674 124.761,184.435 125.7,184.435C126.639,184.435 127.4,183.674 127.4,182.735C127.4,166.624 140.116,153.516 155.747,153.516L158.699,153.516C159.804,161.631 168.723,167.977 179.528,167.977C190.334,167.977 199.252,161.631 200.357,153.516L203.528,153.516C219.158,153.516 231.874,166.624 231.874,182.735C231.874,183.674 232.636,184.435 233.574,184.435C234.513,184.435 235.275,183.674 235.275,182.735C235.275,164.749 221.032,150.116 203.528,150.116Z"/>
            </clipPath>
            <g clip-path="url(#_clip2)">
                <rect x="119" y="71" width="121.275" height="118.435" style="fill:rgb(0,202,21);fill-rule:nonzero;"/>
            </g>
        </g>
    </g>
</svg>
