<?xml version="1.0" standalone="no"?>
<!DOCTYPE svg PUBLIC "-//W3C//DTD SVG 1.1//EN" "http://www.w3.org/Graphics/SVG/1.1/DTD/svg11.dtd">

    

<svg width="100%" height="100%" viewBox="0 0 765 132" version="1.1" xmlns="http://www.w3.org/2000/svg" xmlns:xlink="http://www.w3.org/1999/xlink" xml:space="preserve" style="fill-rule:evenodd;clip-rule:evenodd;stroke-linejoin:round;stroke-miterlimit:1.41421;">
    <g>
        <clipPath id="_clip1">
            <rect x="28.684" y="0.493" width="399.336" height="131.447"/>
        </clipPath>
        <g clip-path="url(#_clip1)">
            <g>
                <clipPath id="_clip2">
                    <path d="M340.304,132L92.79,132C76.404,132 66.321,118.717 70.268,102.332L91.258,42.305L28.684,0.493L371.975,0.493C388.359,0.493 398.443,13.775 394.498,30.16L377.117,102.332C373.17,118.717 356.688,132 340.304,132Z"/>
                </clipPath>
                <g clip-path="url(#_clip2)">
                    <rect x="23.684" y="-4.507" width="376.669" height="141.507" style="fill:rgb(212,215,217);fill-rule:nonzero;"/>
                </g>
                <clipPath id="_clip3">
                    <path d="M372.97,132L125.457,132C109.072,132 98.987,118.717 102.934,102.332L123.925,42.305L61.351,0.493L404.642,0.493C421.026,0.493 431.11,13.775 427.165,30.16L409.783,102.332C405.837,118.717 389.354,132 372.97,132Z"/>
                </clipPath>
                <g clip-path="url(#_clip3)">
                    <rect x="56.351" y="-4.507" width="376.669" height="141.507" style="fill:rgb(58,82,110);fill-rule:nonzero;"/>
                </g>
            </g>
            <path d="M152.598,34.165C153.788,30.756 156.247,28.959 159.656,28.959L184.347,28.959C198.076,28.959 203.806,33.473 201.098,44.717C200.843,45.776 200.52,46.928 199.476,49.924C196.503,58.632 191.007,64.621 181.693,66.188C189.973,67.387 192.549,71.994 190.75,79.458C190.529,80.38 190.203,81.347 189.137,84.434C184.164,98.581 174.923,104.248 159.812,104.248L133.601,104.248C130.192,104.248 128.955,102.497 130.145,99.086L152.598,34.165ZM165.704,88.581C167.5,88.581 168.793,87.613 169.491,85.679L172.621,76.693C173.318,74.759 172.583,73.791 170.787,73.791L158.073,73.791L152.991,88.581L165.704,88.581ZM174.518,58.678C176.269,58.678 177.654,57.71 178.304,55.775L181.109,47.574C181.77,45.593 181.126,44.625 179.376,44.625L168.183,44.625L163.325,58.678L174.518,58.678Z" style="fill:rgb(255,255,254);" class="logo-white"/>
            <path d="M217.189,34.165C218.381,30.756 220.748,28.959 224.249,28.959L232.909,28.959C236.364,28.959 237.543,30.756 236.354,34.165L218.559,85.679C217.908,87.613 218.55,88.581 220.347,88.581L231.864,88.581C233.66,88.581 235.045,87.613 235.696,85.679L253.491,34.165C254.68,30.756 257.048,28.959 260.549,28.959L269.209,28.959C272.71,28.959 273.845,30.756 272.654,34.165L255.498,83.789C250.617,97.934 240.406,104.755 225.343,104.755L215.668,104.755C201.895,104.755 196.165,99.086 199.006,87.291C199.271,86.185 199.574,85.126 200.034,83.789L217.189,34.165Z" style="fill:rgb(255,255,254);" class="logo-white"/>
            <path d="M263.911,92.313C264.573,90.333 265.685,88.581 267.431,86.877L310.959,44.625L285.668,44.625C282.214,44.625 281.034,42.828 282.235,39.372L284.042,34.165C285.23,30.756 287.644,28.959 291.099,28.959L332.974,28.959C336.428,28.959 337.655,30.756 336.465,34.165L334.087,40.985C333.345,43.104 332.026,44.947 330.154,46.791L287.06,88.581L313.501,88.581C316.957,88.581 318.172,90.425 316.98,93.834L315.164,99.086C313.974,102.497 311.525,104.248 308.07,104.248L265.045,104.248C261.59,104.248 260.399,102.497 261.589,99.086L263.911,92.313Z" style="fill:rgb(255,255,254);" class="logo-white"/>
            <path d="M327.261,92.313C327.923,90.333 329.035,88.581 330.781,86.877L374.309,44.625L349.018,44.625C345.563,44.625 344.384,42.828 345.584,39.372L347.391,34.165C348.581,30.756 350.994,28.959 354.449,28.959L396.324,28.959C399.778,28.959 401.006,30.756 399.814,34.165L397.436,40.985C396.694,43.104 395.376,44.947 393.504,46.791L350.41,88.581L376.851,88.581C380.306,88.581 381.521,90.425 380.331,93.834L378.513,99.086C377.324,102.497 374.875,104.248 371.42,104.248L328.394,104.248C324.938,104.248 323.749,102.497 324.938,99.086L327.261,92.313Z" style="fill:rgb(255,255,254);" class="logo-white"/>
            <path d="M52.966,42.055L48.348,51.887L104.785,51.887L108.223,42.055L52.966,42.055Z" style="fill:rgb(58,82,110);"/>
        </g>
    </g>
    <g>
        <clipPath id="_clip4">
            <rect x="0.06" y="69.22" width="97.289" height="37.001"/>
        </clipPath>
        <g clip-path="url(#_clip4)">
            <clipPath id="_clip5">
                <path d="M33.166,96.387L28.547,106.221L84.984,106.221L88.423,96.387L33.166,96.387Z"/>
            </clipPath>
            <g clip-path="url(#_clip5)">
                <rect x="23.547" y="91.387" width="69.876" height="19.834" style="fill:rgb(58,82,110);fill-rule:nonzero;"/>
            </g>
            <clipPath id="_clip6">
                <path d="M-0.12,79.055L93.911,79.055L97.349,69.22L4.655,69.22L-0.12,79.055Z"/>
            </clipPath>
            <g clip-path="url(#_clip6)">
                <rect x="-5.12" y="64.22" width="107.469" height="19.835" style="fill:rgb(58,82,110);fill-rule:nonzero;"/>
            </g>
        </g>
    </g>
    <path d="M522.925,34.504C524.067,31.203 526.504,29.462 529.943,29.462L564.238,29.462C567.631,29.462 568.892,31.249 567.717,34.643L565.922,39.823C564.73,43.262 562.23,45.05 558.838,45.05L538.39,45.05L533.641,58.757L554.09,58.757C557.482,58.757 558.742,60.544 557.553,63.983L555.773,69.118C554.582,72.556 552.083,74.344 548.689,74.344L528.242,74.344L523.238,88.784L543.687,88.784C547.079,88.784 548.324,90.617 547.148,94.01L545.338,99.236C544.163,102.63 541.679,104.371 538.285,104.371L503.989,104.371C500.551,104.371 499.322,102.63 500.496,99.236L522.925,34.504Z" style="fill:rgb(212,215,217);"/>
    <path d="M651.658,34.526C652.801,31.225 655.237,29.484 658.676,29.484L667.092,29.462C670.484,29.462 671.745,31.249 670.569,34.643L667.123,45.072L651.972,88.806L672.42,88.806C675.813,88.806 677.058,90.64 675.881,94.032L674.07,99.259C672.896,102.652 670.411,104.393 667.019,104.393L632.723,104.393C629.284,104.393 628.057,102.652 629.229,99.259L651.658,34.526Z" style="fill:rgb(212,215,217);"/>
    <path d="M688.467,84.062C689.627,80.715 692.05,78.882 695.487,78.882L704.841,78.882C708.28,78.882 708.791,80.715 707.632,84.062L706.631,86.952C705.964,88.877 706.592,89.841 708.426,89.841L719.705,89.841C721.539,89.841 722.79,88.877 723.457,86.952L724.934,82.688C725.871,79.983 725.364,79.066 723.355,78.38L708.066,73.015C698.635,69.669 695.9,63.662 699.713,52.658L700.523,50.32C705.399,36.248 715.543,29.462 730.582,29.462L739.202,29.462C754.24,29.462 759.732,36.109 754.841,50.229L754.554,51.055C753.379,54.447 750.925,56.236 747.532,56.236L738.912,56.236C735.428,56.236 734.26,54.447 735.434,51.055L736.514,47.938C737.182,46.012 736.599,45.05 734.719,45.05L724.266,45.05C722.432,45.05 721.135,46.012 720.467,47.938L718.752,52.889C717.814,55.594 718.293,56.465 720.377,57.198L735.667,62.561C745.966,66.183 747.739,72.053 743.957,82.963L743.418,84.522C738.541,98.595 728.397,105.382 713.404,105.382L703.961,105.382C688.922,105.382 683.385,98.733 688.276,84.613L688.467,84.062Z" style="fill:rgb(212,215,217);"/>
    <path d="M483.861,47.993L472.296,85.93C471.603,87.855 470.314,88.818 468.525,88.818L455.87,88.818L460.93,74.095L466.159,59.049L470.995,45.058L482.139,45.058C483.881,45.058 484.521,46.022 483.861,47.993ZM487.087,29.462L462.505,29.462C459.112,29.462 456.664,31.25 455.478,34.646L433.126,99.277C431.94,102.672 433.172,104.415 436.566,104.415L462.661,104.415C477.705,104.415 486.902,98.774 491.855,84.69C492.915,81.617 493.241,80.656 493.463,79.736L502.148,50.333C503.187,47.351 503.51,46.205 503.763,45.15C506.458,33.956 500.753,29.462 487.087,29.462Z" style="fill:rgb(212,215,217);"/>
    <path d="M612.143,48.442L608.511,58.93L591.453,58.93L595.086,48.442C595.754,46.517 597.098,45.555 598.885,45.555L610.346,45.555C612.135,45.555 612.811,46.517 612.143,48.442ZM615.004,29.462L605.376,29.462C590.384,29.462 580.238,36.249 575.363,50.322L558.258,99.696C557.083,103.091 558.204,104.877 561.69,104.877L570.311,104.877C573.794,104.877 576.154,103.091 577.331,99.696L586.072,74.465L603.128,74.465L594.387,99.696C593.212,103.091 594.381,104.877 597.819,104.877L606.438,104.877C609.923,104.877 612.284,103.091 613.459,99.696L630.565,50.322C635.439,36.249 629.997,29.462 615.004,29.462Z" style="fill:rgb(212,215,217);"/>
    <path d="M530.98,34.504C532.123,31.203 534.56,29.462 537.999,29.462L572.294,29.462C575.687,29.462 576.947,31.249 575.772,34.643L573.978,39.823C572.786,43.262 570.286,45.05 566.894,45.05L546.445,45.05L541.696,58.757L562.146,58.757C565.538,58.757 566.798,60.544 565.608,63.983L563.829,69.118C562.638,72.556 560.139,74.344 556.745,74.344L536.297,74.344L531.294,88.784L551.742,88.784C555.135,88.784 556.38,90.617 555.203,94.01L553.394,99.236C552.219,102.63 549.734,104.371 546.341,104.371L512.045,104.371C508.606,104.371 507.378,102.63 508.552,99.236L530.98,34.504Z" style="fill:rgb(58,82,110);"/>
    <path d="M659.714,34.526C660.856,31.225 663.293,29.484 666.731,29.484L675.147,29.462C678.54,29.462 679.801,31.249 678.625,34.643L675.179,45.072L660.027,88.806L680.476,88.806C683.868,88.806 685.113,90.64 683.937,94.032L682.126,99.259C680.951,102.652 678.467,104.393 675.074,104.393L640.778,104.393C637.34,104.393 636.111,102.652 637.285,99.259L659.714,34.526Z" style="fill:rgb(58,82,110);"/>
    <path d="M696.522,84.062C697.683,80.715 700.105,78.882 703.543,78.882L712.896,78.882C716.336,78.882 716.847,80.715 715.688,84.062L714.687,86.952C714.02,88.877 714.647,89.841 716.481,89.841L727.761,89.841C729.595,89.841 730.846,88.877 731.513,86.952L732.989,82.688C733.927,79.983 733.42,79.066 731.411,78.38L716.122,73.015C706.69,69.669 703.957,63.662 707.769,52.658L708.579,50.32C713.455,36.248 723.599,29.462 738.638,29.462L747.258,29.462C762.296,29.462 767.788,36.109 762.896,50.229L762.609,51.055C761.436,54.447 758.98,56.236 755.588,56.236L746.968,56.236C743.482,56.236 742.315,54.447 743.489,51.055L744.569,47.938C745.237,46.012 744.654,45.05 742.775,45.05L732.321,45.05C730.487,45.05 729.19,46.012 728.522,47.938L726.808,52.889C725.87,55.594 726.349,56.465 728.433,57.198L743.723,62.561C754.021,66.183 755.795,72.053 752.013,82.963L751.474,84.522C746.597,98.595 736.453,105.382 721.46,105.382L712.017,105.382C696.978,105.382 691.44,98.733 696.332,84.613L696.522,84.062Z" style="fill:rgb(58,82,110);"/>
    <path d="M491.917,47.993L480.352,85.93C479.658,87.855 478.37,88.818 476.581,88.818L463.926,88.818L468.985,74.095L474.215,59.049L479.051,45.058L490.194,45.058C491.937,45.058 492.576,46.022 491.917,47.993ZM495.143,29.462L470.561,29.462C467.168,29.462 464.719,31.25 463.533,34.646L441.182,99.277C439.996,102.672 441.228,104.415 444.622,104.415L470.717,104.415C485.761,104.415 494.958,98.774 499.911,84.69C500.971,81.617 501.297,80.656 501.518,79.736L510.204,50.333C511.242,47.351 511.565,46.205 511.818,45.15C514.514,33.956 508.809,29.462 495.143,29.462Z" style="fill:rgb(58,82,110);"/>
    <path d="M620.198,48.442L616.566,58.93L599.509,58.93L603.142,48.442C603.81,46.517 605.153,45.555 606.94,45.555L618.401,45.555C620.19,45.555 620.866,46.517 620.198,48.442ZM623.06,29.462L613.432,29.462C598.439,29.462 588.294,36.249 583.419,50.322L566.313,99.696C565.139,103.091 566.26,104.877 569.746,104.877L578.366,104.877C581.85,104.877 584.21,103.091 585.387,99.696L594.128,74.465L611.184,74.465L602.442,99.696C601.268,103.091 602.437,104.877 605.875,104.877L614.494,104.877C617.979,104.877 620.34,103.091 621.515,99.696L638.621,50.322C643.495,36.249 638.053,29.462 623.06,29.462Z" style="fill:rgb(58,82,110);"/>
</svg>
