<?xml version="1.0" standalone="no"?>
<!DOCTYPE svg PUBLIC "-//W3C//DTD SVG 1.1//EN" "http://www.w3.org/Graphics/SVG/1.1/DTD/svg11.dtd" >
<svg>
<metadata>
Created by FontForge 20120731 at Tue Apr 26 19:02:33 2016
 By www
Copyright (c) 2014 by Mattox Shuler. All rights reserved.
</metadata>
<defs>
<font id="FactoriaW00-Demi" horiz-adv-x="660" >
  <font-face 
    font-family="FactoriaW00-Demi"
    font-weight="600"
    font-stretch="normal"
    units-per-em="1000"
    panose-1="1 0 0 0 0 0 0 0 0 0"
    ascent="800"
    descent="-200"
    x-height="540"
    cap-height="700"
    bbox="-138 -330 1018 940"
    underline-thickness="50"
    underline-position="-125"
    unicode-range="U+0020-FB02"
  />
<missing-glyph horiz-adv-x="439" 
 />
    <glyph glyph-name=".notdef" horiz-adv-x="439" 
 />
    <glyph glyph-name=".null" horiz-adv-x="0" 
 />
    <glyph glyph-name="nonmarkingreturn" horiz-adv-x="333" 
 />
    <glyph glyph-name="space" unicode=" " horiz-adv-x="266" 
 />
    <glyph glyph-name="exclam" unicode="!" horiz-adv-x="307" 
d="M110 228l-27 472h141l-27 -472h-87zM85 0v137h137v-137h-137z" />
    <glyph glyph-name="quotedbl" unicode="&#x22;" horiz-adv-x="454" 
d="M171 453h-71l-33 247h136zM355 453h-71l-33 247h136z" />
    <glyph glyph-name="numbersign" unicode="#" horiz-adv-x="805" 
d="M579 291h107v-104h-140l-60 -187h-112l60 187h-170l-60 -187h-112l60 187h-103v104h136l47 148h-114v104h147l50 157h113l-50 -157h169l50 157h113l-50 -157h95v-104h-129zM344 439l-47 -148h170l47 148h-170z" />
    <glyph glyph-name="dollar" unicode="$" horiz-adv-x="627" 
d="M424 390q33 -7 59.5 -17.5t45.5 -32t29.5 -56.5t10.5 -91t-8.5 -93t-26 -59t-44 -31.5t-62.5 -9.5h-68v-99h-98v99h-65q-36 0 -62 9.5t-43.5 31.5t-26 59t-8.5 93v31h117v-37q0 -26 2 -41t6.5 -23.5t11.5 -11t18 -2.5h60v197l-67 14q-33 7 -59.5 17.5t-45.5 31t-29.5 55
t-10.5 88.5t8.5 90t26 57.5t44 31t62.5 9.5h61v99h98v-99h56q36 0 62 -9.5t43.5 -31t26 -57.5t8.5 -90v-28h-117v33q0 48 -8.5 61t-29.5 13h-51v-185zM272 591h-54q-20 0 -28.5 -13t-8.5 -61q0 -26 2.5 -41.5t9 -24.5t17.5 -13.5t29 -8.5l33 -7v169zM411 109q10 0 17 2.5
t11.5 11t6.5 23.5t2 41q0 28 -2 44.5t-8 26t-17 14t-29 8.5l-42 9v-180h61z" />
    <glyph glyph-name="percent" unicode="%" horiz-adv-x="649" 
d="M208 700q38 0 54.5 -16.5t16.5 -54.5v-134q0 -38 -16.5 -54.5t-54.5 -16.5h-82q-38 0 -54.5 16.5t-16.5 54.5v134q0 38 16.5 54.5t54.5 16.5h82zM201 0h-97l343 700h97zM212 618q0 12 -4 16t-16 4h-50q-12 0 -16 -4t-4 -16v-112q0 -12 4 -16t16 -4h50q12 0 16 4t4 16v112
zM523 276q38 0 54.5 -16.5t16.5 -54.5v-134q0 -38 -16.5 -54.5t-54.5 -16.5h-82q-38 0 -54.5 16.5t-16.5 54.5v134q0 38 16.5 54.5t54.5 16.5h82zM526 194q0 12 -4 16t-16 4h-50q-12 0 -16 -4t-4 -16v-112q0 -12 4 -16t16 -4h50q12 0 16 4t4 16v112z" />
    <glyph glyph-name="ampersand" unicode="&#x26;" horiz-adv-x="687" 
d="M576 140q0 -140 -140 -140h-220q-36 0 -62 9.5t-43.5 32t-26 60t-8.5 93.5q0 39 4 66.5t13 46.5t22.5 31t32.5 20q-33 17 -48.5 50t-15.5 104q0 53 8.5 89t26 57.5t43.5 31t62 9.5h184q140 0 140 -140v-66h-120v60q0 20 -8.5 28.5t-28.5 8.5h-150q-10 0 -17 -3t-11.5 -12
t-6.5 -26.5t-2 -47.5t2 -48t6.5 -27t11.5 -12t17 -3h410v-107h-75v-165zM233 305q-10 0 -17 -3t-11.5 -13t-6.5 -29.5t-2 -52.5t2 -52.5t6.5 -29.5t11.5 -13t17 -3h185q21 0 29.5 8.5t8.5 28.5v159h-223z" />
    <glyph glyph-name="quotesingle" unicode="'" horiz-adv-x="270" 
d="M171 453h-71l-33 247h136z" />
    <glyph glyph-name="parenleft" unicode="(" horiz-adv-x="400" 
d="M256 654q-20 0 -28.5 -8.5t-8.5 -28.5v-576q0 -20 8.5 -28.5t28.5 -8.5h74v-110h-91q-140 0 -140 140v590q0 140 140 140h91v-110h-74z" />
    <glyph glyph-name="parenright" unicode=")" horiz-adv-x="400" 
d="M160 764q140 0 140 -140v-590q0 -140 -140 -140h-91v110h74q20 0 28.5 8.5t8.5 28.5v576q0 20 -8.5 28.5t-28.5 8.5h-74v110h91z" />
    <glyph glyph-name="asterisk" unicode="*" horiz-adv-x="438" 
d="M284 347l-66 134l-66 -133l-78 56l106 105l-147 22l29 92l133 -70l-25 147h97l-25 -147l132 69l30 -92l-148 -22l106 -104z" />
    <glyph glyph-name="plus" unicode="+" horiz-adv-x="532" 
d="M215 319h-144v102h144v137h101v-137h144v-102h-144v-137h-101v137z" />
    <glyph glyph-name="comma" unicode="," horiz-adv-x="265" 
d="M202 41q0 -14 -2 -25.5t-7 -22.5t-13.5 -23.5t-21.5 -28.5l-58 -71h-51l72 130h-58v138h139v-97z" />
    <glyph glyph-name="hyphen" unicode="-" horiz-adv-x="460" 
d="M392 275h-325v108h325v-108z" />
    <glyph glyph-name="period" unicode="." horiz-adv-x="265" 
d="M63 0v138h139v-138h-139z" />
    <glyph glyph-name="slash" unicode="/" horiz-adv-x="527" 
d="M144 -70h-115l354 840h115z" />
    <glyph glyph-name="zero" unicode="0" horiz-adv-x="642" 
d="M211 0q-140 0 -140 140v420q0 140 140 140h220q140 0 140 -140v-420q0 -140 -140 -140h-220zM191 147q0 -20 8.5 -28.5t28.5 -8.5h185q21 0 29.5 8.5t8.5 28.5v406q0 20 -8.5 28.5t-29.5 8.5h-185q-20 0 -28.5 -8.5t-8.5 -28.5v-406z" />
    <glyph glyph-name="one" unicode="1" horiz-adv-x="492" 
d="M470 0h-432v99h159v481l-164 -59v109l187 70h97v-601h153v-99z" />
    <glyph glyph-name="two" unicode="2" horiz-adv-x="607" 
d="M65 0v217q0 30 10 51t28.5 36.5t45 28.5t60.5 28l159 68q27 12 39 21t12 29v74q0 20 -8.5 28.5t-28.5 8.5h-154q-20 0 -28.5 -8.5t-8.5 -28.5v-67h-117v74q0 140 140 140h185q140 0 140 -140v-103q0 -30 -10 -51t-28.5 -36.5t-45 -28.5t-60.5 -28l-159 -68
q-26 -11 -38.5 -20t-12.5 -29v-86h251v122h109v-232h-480z" />
    <glyph glyph-name="three" unicode="3" horiz-adv-x="603" 
d="M171 156q0 -28 8.5 -37.5t28.5 -9.5h181q10 0 17 3t11.5 13t6.5 29.5t2 52.5t-2 52.5t-6.5 29.5t-11.5 13t-17 3h-174v107h166q10 0 17 3t11.5 12t6.5 27t2 48t-2 47.5t-6.5 26.5t-11.5 12t-17 3h-165q-20 0 -28.5 -9.5t-8.5 -37.5v-54h-120v60q0 79 34 114.5t106 35.5
h199q36 0 62.5 -9.5t44 -31t26 -57.5t8.5 -89q0 -36 -4 -61.5t-12 -43t-20 -29t-29 -20.5q19 -8 33 -20t23 -31t13 -46t4 -66q0 -57 -8.5 -94.5t-26 -60t-44 -32t-62.5 -9.5h-215q-72 0 -106 35.5t-34 114.5v60h120v-54z" />
    <glyph glyph-name="four" unicode="4" horiz-adv-x="630" 
d="M506 99h86v-99h-297v99h94v92h-339l-23 87l351 422h128v-408h87v-101h-87v-92zM389 555l-220 -263h220v263z" />
    <glyph glyph-name="five" unicode="5" horiz-adv-x="603" 
d="M196 378q15 18 30.5 33t36 26t47.5 17t65 6q91 0 128.5 -34t37.5 -106v-177q0 -143 -143 -143h-191q-140 0 -140 140v71h120v-64q0 -20 8.5 -28.5t28.5 -8.5h160q20 0 28.5 8.5t8.5 28.5v168q0 20 -11.5 28.5t-50.5 8.5q-29 0 -51.5 -3t-42 -8.5t-36 -13.5t-33.5 -18
l-120 32v359h448v-110h-328v-212z" />
    <glyph glyph-name="six" unicode="6" horiz-adv-x="617" 
d="M418 553q0 37 -37 37h-153q-37 0 -37 -37v-195q15 18 30.5 33t36.5 26t49.5 17t69.5 6q94 0 132 -34t38 -106v-160q0 -140 -140 -140h-196q-140 0 -140 140v420q0 140 140 140h187q140 0 140 -140v-63h-120v56zM191 147q0 -20 8.5 -28.5t28.5 -8.5h162q20 0 28.5 8.5
t8.5 28.5v149q0 20 -12.5 28.5t-55.5 8.5q-32 0 -55.5 -3t-43 -8.5t-36 -13.5t-33.5 -18v-143z" />
    <glyph glyph-name="seven" unicode="7" horiz-adv-x="583" 
d="M552 615l-265 -615h-128l254 591h-266v-120h-109v229h514v-85z" />
    <glyph glyph-name="eight" unicode="8" horiz-adv-x="616" 
d="M552 513q0 -36 -4 -61.5t-11.5 -43t-20 -29.5t-28.5 -21q19 -8 32.5 -20t22.5 -31t13 -46t4 -66q0 -56 -8.5 -93.5t-26 -60t-43.5 -32t-62 -9.5h-224q-36 0 -62.5 9.5t-44 32t-26 60t-8.5 93.5q0 39 4 66t13 46t23 31t33 20q-17 9 -29 21t-20 29.5t-12 43t-4 61.5
q0 53 8.5 89t26 57.5t44 31t62.5 9.5h208q36 0 62 -9.5t43.5 -31t26 -57.5t8.5 -89zM221 591q-10 0 -17 -3t-11.5 -12t-6.5 -27t-2 -48t2 -48t6.5 -27.5t11.5 -12.5t17 -3h174q10 0 17 3t11.5 12.5t6.5 27.5t2 48t-2 48t-6.5 27t-11.5 12t-17 3h-174zM213 305q-10 0 -17 -3
t-11.5 -13t-6.5 -29.5t-2 -52.5t2 -52.5t6.5 -29.5t11.5 -13t17 -3h190q10 0 17 3t11.5 13t6.5 29.5t2 52.5t-2 52.5t-6.5 29.5t-11.5 13t-17 3h-190z" />
    <glyph glyph-name="nine" unicode="9" horiz-adv-x="617" 
d="M198 147q0 -37 37 -37h153q37 0 37 37v191q-15 -18 -30.5 -33t-36.5 -26t-49.5 -17t-69.5 -6q-94 0 -132 34t-38 106v164q0 140 140 140h196q140 0 140 -140v-420q0 -140 -140 -140h-187q-140 0 -140 140v63h120v-56zM425 553q0 20 -8.5 28.5t-28.5 8.5h-162
q-20 0 -28.5 -8.5t-8.5 -28.5v-153q0 -10 2.5 -17t10 -11.5t20.5 -6.5t35 -2q31 0 55 3t43.5 8.5t36 13.5t33.5 18v147z" />
    <glyph glyph-name="colon" unicode=":" horiz-adv-x="265" 
d="M63 402v138h139v-138h-139zM63 0v138h139v-138h-139z" />
    <glyph glyph-name="semicolon" unicode=";" horiz-adv-x="265" 
d="M63 402v138h139v-138h-139zM202 41q0 -14 -2 -25.5t-7 -22.5t-13.5 -23.5t-21.5 -28.5l-58 -71h-51l72 130h-58v138h139v-97z" />
    <glyph glyph-name="less" unicode="&#x3c;" horiz-adv-x="532" 
d="M67 408l385 223v-106l-282 -165l282 -165v-105l-385 221v97z" />
    <glyph glyph-name="equal" unicode="=" horiz-adv-x="532" 
d="M460 415h-389v107h389v-107zM460 219h-389v107h389v-107z" />
    <glyph glyph-name="greater" unicode="&#x3e;" horiz-adv-x="532" 
d="M79 525v106l385 -223v-97l-385 -221v105l282 165z" />
    <glyph glyph-name="question" unicode="?" horiz-adv-x="586" 
d="M394 700q140 0 140 -140v-94q0 -25 -10.5 -44t-29.5 -35.5t-45.5 -32t-57.5 -33.5l-35 -20q-26 -15 -36.5 -24t-10.5 -21v-51h-120v70q0 24 11 43t30.5 35.5t46 32t56.5 33.5l34 21q27 15 37 24.5t10 23.5v65q0 20 -8.5 28.5t-28.5 8.5h-187q-20 0 -28.5 -8.5t-8.5 -28.5
v-69h-120v76q0 140 140 140h221zM310 0h-120v132h120v-132z" />
    <glyph glyph-name="at" unicode="@" horiz-adv-x="986" 
d="M748 700q140 0 140 -140v-372q0 -140 -140 -140h-149l-20 70q-12 -15 -26 -28.5t-32.5 -24t-42.5 -17t-56 -6.5q-77 0 -112 34t-35 106v176q0 72 35 106t112 34q32 0 56 -6.5t42.5 -17t32.5 -24t26 -28.5l20 72h94v-379h52q33 0 45.5 15.5t12.5 58.5v375q0 56 -56 56
h-509q-56 0 -56 -56v-588q0 -56 56 -56h510v-80h-511q-140 0 -140 140v580q0 140 140 140h511zM580 355q-30 23 -62 35.5t-76 12.5q-32 0 -42.5 -10t-10.5 -33v-180q0 -23 10.5 -33t42.5 -10q44 0 76 12.5t62 35.5v170z" />
    <glyph glyph-name="A" unicode="A" horiz-adv-x="781" 
d="M760 0h-289v99h82l-37 110h-255l-37 -110h80v-99h-283v99h81l175 502h-81v99h273l210 -601h81v-99zM389 592l-94 -281h187z" />
    <glyph glyph-name="B" unicode="B" horiz-adv-x="693" 
d="M39 601v99h449q36 0 62.5 -9.5t44 -31t26 -57.5t8.5 -89q0 -69 -15.5 -102.5t-49.5 -51.5q19 -8 33 -19.5t23 -30.5t13 -46.5t4 -66.5q0 -57 -8.5 -94.5t-26 -60t-44 -32t-62.5 -9.5h-457v99h92v502h-92zM464 414q13 0 21.5 3t13.5 12t7 26.5t2 47.5t-2 48t-7 27
t-13.5 12t-21.5 3h-213v-179h213zM472 107q13 0 21.5 3t13.5 13.5t7 30.5t2 55q0 34 -2 54.5t-7 31t-13.5 13.5t-21.5 3h-221v-204h221z" />
    <glyph glyph-name="C" unicode="C" horiz-adv-x="642" 
d="M211 0q-140 0 -140 140v420q0 140 140 140h229q140 0 140 -140v-101h-120v94q0 20 -8.5 28.5t-28.5 8.5h-195q-20 0 -28.5 -8.5t-8.5 -28.5v-406q0 -20 8.5 -28.5t28.5 -8.5h195q20 0 28.5 8.5t8.5 28.5v94h120v-101q0 -140 -140 -140h-229z" />
    <glyph glyph-name="D" unicode="D" horiz-adv-x="712" 
d="M131 99v502h-92v99h462q140 0 140 -140v-420q0 -140 -140 -140h-462v99h92zM483 110q21 0 29.5 8.5t8.5 28.5v406q0 20 -8.5 28.5t-29.5 8.5h-232v-480h232z" />
    <glyph glyph-name="E" unicode="E" horiz-adv-x="651" 
d="M591 496h-107v101h-233v-187h261v-108h-261v-199h233v101h107v-204h-552v99h92v502h-92v99h552v-204z" />
    <glyph glyph-name="F" unicode="F" horiz-adv-x="630" 
d="M591 496h-107v101h-233v-192h261v-108h-261v-198h107v-99h-319v99h92v502h-92v99h552v-204z" />
    <glyph glyph-name="G" unicode="G" horiz-adv-x="658" 
d="M469 553q0 20 -8.5 28.5t-29.5 8.5h-203q-20 0 -28.5 -8.5t-8.5 -28.5v-406q0 -20 8.5 -28.5t28.5 -8.5h203q21 0 29.5 8.5t8.5 28.5v128h-155v106h275v-241q0 -140 -140 -140h-238q-140 0 -140 140v420q0 140 140 140h238q140 0 140 -140v-83h-120v76z" />
    <glyph glyph-name="H" unicode="H" horiz-adv-x="785" 
d="M654 99h92v-99h-303v99h91v206h-283v-206h91v-99h-303v99h92v502h-92v99h303v-99h-91v-187h283v187h-91v99h303v-99h-92v-502z" />
    <glyph glyph-name="I" unicode="I" horiz-adv-x="401" 
d="M261 99h97v-99h-315v99h98v502h-98v99h315v-99h-97v-502z" />
    <glyph glyph-name="J" unicode="J" horiz-adv-x="623" 
d="M501 601v-461q0 -140 -140 -140h-182q-140 0 -140 140v141h120v-134q0 -20 8.5 -28.5t28.5 -8.5h148q20 0 28.5 8.5t8.5 28.5v454h-106v99h313v-99h-87z" />
    <glyph glyph-name="K" unicode="K" horiz-adv-x="744" 
d="M723 0h-167l-186 325l-117 -139v-87h98v-99h-309v99h92v502h-92v99h303v-99h-92v-269l215 269h-59v99h285v-99h-91l-154 -182l183 -320h91v-99z" />
    <glyph glyph-name="L" unicode="L" horiz-adv-x="625" 
d="M39 0v99h92v502h-92v99h320v-99h-108v-498h227v148h109v-251h-548z" />
    <glyph glyph-name="M" unicode="M" horiz-adv-x="940" 
d="M808 99h92v-99h-307v99h97v399l-176 -391h-92l-176 391v-399h97v-99h-304v99h92v502h-92v99h229l203 -447l203 447h226v-99h-92v-502z" />
    <glyph glyph-name="N" unicode="N" horiz-adv-x="789" 
d="M666 601v-601h-122l-299 522v-423h101v-99h-307v99h92v502h-92v99h224l289 -505v406h-101v99h303v-99h-88z" />
    <glyph glyph-name="O" unicode="O" horiz-adv-x="665" 
d="M211 0q-140 0 -140 140v420q0 140 140 140h242q140 0 140 -140v-420q0 -140 -140 -140h-242zM191 147q0 -20 8.5 -28.5t28.5 -8.5h208q20 0 28.5 8.5t8.5 28.5v406q0 20 -8.5 28.5t-28.5 8.5h-208q-20 0 -28.5 -8.5t-8.5 -28.5v-406z" />
    <glyph glyph-name="P" unicode="P" horiz-adv-x="671" 
d="M482 700q140 0 140 -140v-155q0 -140 -140 -140h-231v-166h108v-99h-320v99h92v502h-92v99h443zM502 555q0 21 -8.5 29.5t-29.5 8.5h-213v-220h213q21 0 29.5 8.5t8.5 28.5v145z" />
    <glyph glyph-name="Q" unicode="Q" horiz-adv-x="665" 
d="M453 700q140 0 140 -140v-420q0 -140 -140 -140h-60v-131h-120v131h-62q-140 0 -140 140v420q0 140 140 140h242zM473 553q0 20 -8.5 28.5t-28.5 8.5h-208q-20 0 -28.5 -8.5t-8.5 -28.5v-406q0 -20 8.5 -28.5t28.5 -8.5h208q20 0 28.5 8.5t8.5 28.5v406z" />
    <glyph glyph-name="R" unicode="R" horiz-adv-x="712" 
d="M693 0h-171l-137 279h-134v-180h103v-99h-315v99h92v502h-92v99h443q140 0 140 -140v-135q0 -125 -110 -138l90 -188h91v-99zM464 385q21 0 29.5 8.5t8.5 28.5v133q0 21 -8.5 29.5t-29.5 8.5h-213v-208h213z" />
    <glyph glyph-name="S" unicode="S" horiz-adv-x="620" 
d="M434 555q0 21 -8.5 29.5t-29.5 8.5h-180q-20 0 -28.5 -8.5t-8.5 -29.5v-74q0 -24 10.5 -34.5t36.5 -15.5l192 -41q32 -7 58.5 -17t45.5 -26.5t29.5 -40.5t10.5 -60v-106q0 -140 -140 -140h-225q-140 0 -140 140v82h117v-77q0 -21 8.5 -29.5t29.5 -8.5h193q20 0 28.5 8.5
t8.5 29.5v84q0 24 -10.5 34t-35.5 15l-193 42q-32 7 -58.5 17t-45.5 26.5t-29.5 40.5t-10.5 60v96q0 140 140 140h212q140 0 140 -140v-75h-117v70z" />
    <glyph glyph-name="T" unicode="T" horiz-adv-x="670" 
d="M635 469h-107v129h-133v-499h110v-99h-341v99h111v499h-133v-129h-107v231h600v-231z" />
    <glyph glyph-name="U" unicode="U" horiz-adv-x="755" 
d="M633 601v-461q0 -140 -140 -140h-231q-140 0 -140 140v461h-87v99h299v-99h-92v-454q0 -20 8.5 -28.5t28.5 -8.5h197q20 0 28.5 8.5t8.5 28.5v454h-92v99h299v-99h-87z" />
    <glyph glyph-name="V" unicode="V" horiz-adv-x="754" 
d="M650 601l-202 -601h-142l-202 601h-83v99h289v-99h-77l145 -462l147 462h-77v99h285v-99h-83z" />
    <glyph glyph-name="W" unicode="W" horiz-adv-x="1039" 
d="M936 601l-155 -601h-127l-132 500l-132 -500h-132l-155 601h-82v99h291v-99h-86l100 -446l144 545h104l144 -545l100 446h-86v99h286v-99h-82z" />
    <glyph glyph-name="X" unicode="X" horiz-adv-x="705" 
d="M684 0h-271v99h58l-121 185l-120 -185h57v-99h-266v99h82l173 257l-165 245h-83v99h271v-99h-56l113 -174l113 174h-55v99h265v-99h-84l-168 -245l175 -257h82v-99z" />
    <glyph glyph-name="Y" unicode="Y" horiz-adv-x="721" 
d="M421 99h98v-99h-317v99h99v144l-199 358h-81v99h273v-99h-62l130 -241l130 241h-63v99h271v-99h-81l-198 -358v-144z" />
    <glyph glyph-name="Z" unicode="Z" horiz-adv-x="635" 
d="M578 0h-521v90l369 503h-253v-117h-105v224h506v-90l-369 -503h268v117h105v-224z" />
    <glyph glyph-name="bracketleft" unicode="[" horiz-adv-x="396" 
d="M219 4h107v-110h-227v870h227v-110h-107v-650z" />
    <glyph glyph-name="backslash" unicode="\" horiz-adv-x="527" 
d="M383 -70l-354 840h115l354 -840h-115z" />
    <glyph glyph-name="bracketright" unicode="]" horiz-adv-x="396" 
d="M296 764v-870h-227v110h107v650h-107v110h227z" />
    <glyph glyph-name="asciicircum" unicode="^" horiz-adv-x="668" 
d="M397 700l185 -383h-118l-130 272l-130 -272h-119l186 383h126z" />
    <glyph glyph-name="underscore" unicode="_" horiz-adv-x="593" 
d="M575 -147h-557v102h557v-102z" />
    <glyph glyph-name="grave" unicode="`" horiz-adv-x="502" 
d="M272 766l-142 144h147l90 -144h-95z" />
    <glyph glyph-name="a" unicode="a" horiz-adv-x="592" 
d="M562 0h-191v81q-15 -19 -30.5 -34.5t-36 -26t-47 -16t-63.5 -5.5q-80 0 -114.5 35.5t-34.5 119.5q0 42 9 71t27 47.5t44 28t59 13.5q34 5 82.5 9t104.5 7v77q0 38 -38 38h-119q-38 0 -38 -38v-27h-113v28q0 68 32 100t100 32h159q68 0 100 -32t32 -100v-321h76v-87z
M206 229q-13 -2 -22 -5t-14.5 -10t-8 -19t-2.5 -32t2.5 -33t8.5 -20.5t16.5 -10t26.5 -2.5q55 0 89.5 13t69.5 34v111z" />
    <glyph glyph-name="b" unicode="b" horiz-adv-x="619" 
d="M410 544q84 0 119 -33t35 -106v-270q0 -73 -35 -106t-119 -33q-39 0 -66.5 6t-48 17t-36.5 26t-31 33v-78h-196v87h81v556h-81v87h196v-268q15 18 31 33t36.5 26t48 17t66.5 6zM448 396q0 26 -11 35.5t-47 9.5q-29 0 -51.5 -3t-41.5 -8t-35.5 -13.5t-34.5 -18.5v-256
q18 -11 34.5 -19t35.5 -13t41.5 -8t51.5 -3q36 0 47 9.5t11 35.5v252z" />
    <glyph glyph-name="c" unicode="c" horiz-adv-x="532" 
d="M350 540q68 0 100 -32t32 -100v-57h-114v50q0 21 -9 29.5t-29 8.5h-122q-21 0 -29.5 -8.5t-8.5 -29.5v-262q0 -21 8.5 -29.5t29.5 -8.5h122q20 0 29 8.5t9 29.5v50h114v-57q0 -68 -32 -100t-100 -32h-163q-68 0 -100 32t-32 100v276q0 68 32 100t100 32h163z" />
    <glyph glyph-name="d" unicode="d" horiz-adv-x="611" 
d="M583 0h-192v78q-16 -18 -32 -33t-36.5 -26t-47.5 -17t-66 -6q-84 0 -119 33t-35 106v270q0 73 35 106t119 33q39 0 66 -6t47.5 -17t36.5 -26t32 -33v181h-96v87h211v-643h77v-87zM391 398q-18 10 -34.5 18.5t-35.5 13.5t-41.5 8t-51.5 3q-35 0 -46.5 -9t-11.5 -29v-266
q0 -20 11.5 -29t46.5 -9q29 0 51.5 3t41.5 8t35.5 13t34.5 19v256z" />
    <glyph glyph-name="e" unicode="e" horiz-adv-x="541" 
d="M170 133q0 -21 8.5 -29.5t29.5 -8.5h129q20 0 29 8.5t9 29.5v41h115v-42q0 -68 -32 -100t-100 -32h-171q-68 0 -100 32t-32 100v276q0 68 32 100t100 32h171q68 0 100 -32t32 -100v-169h-320v-106zM208 445q-21 0 -29.5 -8.5t-8.5 -29.5v-87h205v87q0 21 -8.5 29.5
t-29.5 8.5h-129z" />
    <glyph glyph-name="f" unicode="f" horiz-adv-x="378" 
d="M272 641q-21 0 -29.5 -9t-8.5 -29v-63h117v-95h-117v-358h98v-87h-303v87h90v358h-87v95h88v58q0 68 32 100t100 32h108v-89h-88z" />
    <glyph glyph-name="g" unicode="g" horiz-adv-x="611" 
d="M506 453v-481q0 -68 -32 -100t-100 -32h-253v93h232q38 0 38 38v128q-16 -18 -32 -33.5t-36.5 -26t-47.5 -16.5t-66 -6q-84 0 -119 33t-35 105v250q0 73 35 106t119 33q39 0 66 -6t47.5 -17t36.5 -26t32 -33v78h192v-87h-77zM391 398q-18 10 -34.5 18.5t-35.5 13.5
t-41.5 8t-51.5 3q-35 0 -46.5 -9t-11.5 -29v-245q0 -20 11.5 -29t46.5 -9q29 0 51.5 2.5t41.5 8t35.5 13.5t34.5 19v235z" />
    <glyph glyph-name="h" unicode="h" horiz-adv-x="659" 
d="M629 0h-261v87h70v314q0 23 -10 32t-42 9q-27 0 -48.5 -3t-40 -8t-35 -13.5t-34.5 -18.5v-312h69v-87h-265v87h81v556h-81v87h196v-267q15 18 31 33t36 26t46.5 17t62.5 6q81 0 115 -32.5t34 -102.5v-323h76v-87z" />
    <glyph glyph-name="i" unicode="i" horiz-adv-x="353" 
d="M118 607v116h123v-116h-123zM316 0h-277v87h83v366h-83v87h198v-453h79v-87z" />
    <glyph glyph-name="j" unicode="j" horiz-adv-x="302" 
d="M241 607h-123v116h123v-116zM237 -17q0 -32 -8 -53.5t-24.5 -36.5t-41.5 -24.5t-58 -16.5l-87 -18v78l69 33q16 8 25.5 16t9.5 25v467h-83v87h198v-557z" />
    <glyph glyph-name="k" unicode="k" horiz-adv-x="607" 
d="M596 0h-153l-127 243l-90 -104v-52h70v-87h-264v87h81v556h-81v87h194v-461l152 184h-52v87h247v-87h-73l-111 -127l128 -239h79v-87z" />
    <glyph glyph-name="l" unicode="l" horiz-adv-x="353" 
d="M316 0h-277v87h83v556h-83v87h198v-643h79v-87z" />
    <glyph glyph-name="m" unicode="m" horiz-adv-x="960" 
d="M930 0h-259v87h68v315q0 23 -9.5 32t-36.5 9q-50 0 -83.5 -11t-68.5 -32v-313h66v-87h-248v87h67v315q0 23 -9.5 32t-36.5 9q-50 0 -83.5 -11t-68.5 -32v-313h68v-87h-264v87h81v366h-81v87h196v-76q15 18 31 33t35.5 26t44.5 17t59 6q61 0 94 -20.5t44 -65.5
q15 19 32 34.5t37.5 27t46 18t59.5 6.5q76 0 109.5 -32.5t33.5 -102.5v-324h76v-87z" />
    <glyph glyph-name="n" unicode="n" horiz-adv-x="659" 
d="M629 0h-261v87h70v314q0 23 -10 32t-42 9q-27 0 -48.5 -3t-40 -8t-35 -13.5t-34.5 -18.5v-312h69v-87h-265v87h81v366h-81v87h196v-77q15 18 31 33t36 26t46.5 17t62.5 6q81 0 115 -32.5t34 -102.5v-323h76v-87z" />
    <glyph glyph-name="o" unicode="o" horiz-adv-x="550" 
d="M363 540q68 0 100 -32t32 -100v-276q0 -68 -32 -100t-100 -32h-176q-68 0 -100 32t-32 100v276q0 68 32 100t100 32h176zM380 401q0 21 -8.5 29.5t-29.5 8.5h-134q-20 0 -29 -8.5t-9 -29.5v-262q0 -21 9 -29.5t29 -8.5h134q21 0 29.5 8.5t8.5 29.5v262z" />
    <glyph glyph-name="p" unicode="p" horiz-adv-x="619" 
d="M410 544q84 0 119 -33t35 -106v-270q0 -73 -35 -106t-119 -33q-39 0 -66.5 6t-48 17t-36.5 26t-31 33v-151h96v-87h-292v87h81v526h-81v87h196v-78q15 18 31 33t36.5 26t48 17t66.5 6zM448 396q0 26 -11 35.5t-46 9.5q-30 0 -52.5 -3t-41.5 -8t-35.5 -13.5t-34.5 -18.5
v-256q18 -11 34.5 -19t35.5 -13t41.5 -8t52.5 -3q35 0 46 9.5t11 35.5v252z" />
    <glyph glyph-name="q" unicode="q" horiz-adv-x="615" 
d="M506 -73h81v-87h-292v87h96v151q-16 -18 -32 -33t-36.5 -26t-47.5 -17t-66 -6q-84 0 -119 33t-35 106v270q0 73 35 106t119 33q39 0 66 -6t47.5 -17t36.5 -26t32 -33v78h196v-87h-81v-526zM228 99q30 0 52.5 3t41 8t35 13t34.5 19v256q-18 10 -34.5 18.5t-35 13.5t-41 8
t-52.5 3q-35 0 -46.5 -9.5t-11.5 -35.5v-252q0 -26 11.5 -35.5t46.5 -9.5z" />
    <glyph glyph-name="r" unicode="r" horiz-adv-x="443" 
d="M418 431h-47q-44 0 -76.5 -11t-66.5 -31v-302h97v-87h-293v87h81v366h-81v87h196v-82q15 18 30.5 33t34 26t41.5 17t54 6h30v-109z" />
    <glyph glyph-name="s" unicode="s" horiz-adv-x="529" 
d="M354 409q0 21 -9 29.5t-29 8.5h-109q-20 0 -29 -10.5t-9 -44.5t9 -43.5t32 -13.5l152 -25q31 -5 53 -14t36.5 -25.5t21 -42.5t6.5 -65q0 -91 -32 -127t-100 -36h-166q-68 0 -100 32t-32 100v42h113v-43q0 -21 8.5 -29.5t29.5 -8.5h128q20 0 29 11.5t9 50.5q0 19 -2 30.5
t-7 18t-12.5 9.5t-19.5 5l-152 25q-31 5 -53 13.5t-36.5 24.5t-21 41t-6.5 62q0 86 32 121t100 35h147q68 0 100 -32t32 -100v-33h-113v34z" />
    <glyph glyph-name="t" unicode="t" horiz-adv-x="394" 
d="M225 135q0 -21 8.5 -29.5t29.5 -8.5h84v-97h-105q-68 0 -100 32t-32 100v313h-80v95h81v130h112v-130h124v-95h-122v-310z" />
    <glyph glyph-name="u" unicode="u" horiz-adv-x="650" 
d="M621 0h-191v77q-15 -18 -31 -33t-36 -26t-46.5 -17t-62.5 -6q-81 0 -115 32.5t-34 102.5v323h-75v87h190v-398q0 -23 10 -32t42 -9q27 0 48.5 2.5t40 8t35 13.5t34.5 19v309h-91v87h206v-453h76v-87z" />
    <glyph glyph-name="v" unicode="v" horiz-adv-x="590" 
d="M516 453l-156 -453h-130l-155 453h-59v87h233v-87h-56l105 -353l105 353h-58v87h229v-87h-58z" />
    <glyph glyph-name="w" unicode="w" horiz-adv-x="846" 
d="M772 453l-122 -453h-122l-101 404l-102 -404h-122l-128 453h-59v87h233v-87h-58l72 -331l107 418h113l107 -418l72 331h-59v87h227v-87h-58z" />
    <glyph glyph-name="x" unicode="x" horiz-adv-x="569" 
d="M553 0h-230v87h49l-93 142l-92 -142h50v-87h-221v87h56l128 187l-125 179h-57v87h230v-87h-50l89 -137l88 137h-49v87h221v-87h-58l-123 -180l129 -186h58v-87z" />
    <glyph glyph-name="y" unicode="y" horiz-adv-x="594" 
d="M325 -71h59v-89h-254v89h82l24 71l-161 453h-59v87h233v-87h-56l102 -336l110 336h-56v87h229v-87h-59z" />
    <glyph glyph-name="z" unicode="z" horiz-adv-x="534" 
d="M489 0h-444v78l295 371h-172v-86h-107v177h422v-78l-295 -371h194v86h107v-177z" />
    <glyph glyph-name="braceleft" unicode="{" horiz-adv-x="457" 
d="M276 430q0 -38 -18.5 -61t-41.5 -36q23 -13 41.5 -36t18.5 -61v-195q0 -20 8.5 -28.5t28.5 -8.5h74v-110h-91q-140 0 -140 140v209q0 39 -37 39h-60v103h60q37 0 37 39v200q0 140 140 140h91v-110h-74q-20 0 -28.5 -8.5t-8.5 -28.5v-187z" />
    <glyph glyph-name="bar" unicode="|" horiz-adv-x="359" 
d="M233 767v-983h-107v983h107z" />
    <glyph glyph-name="braceright" unicode="}" horiz-adv-x="457" 
d="M180 617q0 20 -8.5 28.5t-28.5 8.5h-74v110h91q140 0 140 -140v-200q0 -39 37 -39h60v-103h-60q-37 0 -37 -39v-209q0 -140 -140 -140h-91v110h74q20 0 28.5 8.5t8.5 28.5v195q0 38 18.5 61t41.5 36q-23 13 -41.5 36t-18.5 61v187z" />
    <glyph glyph-name="asciitilde" unicode="~" horiz-adv-x="539" 
d="M159 268h-73v25q0 53 27.5 79.5t62.5 26.5q25 0 49.5 -8.5t47 -18.5t42.5 -18.5t37 -8.5q11 0 18 5.5t7 19.5v22h74v-25q0 -54 -25.5 -80t-60.5 -26q-24 0 -49 8.5t-48.5 18.5t-44.5 18.5t-38 8.5q-11 0 -18.5 -5t-7.5 -20v-22z" />
    <glyph glyph-name="exclamdown" unicode="&#xa1;" horiz-adv-x="307" 
d="M222 540v-137h-137v137h137zM197 312l27 -472h-141l27 472h87z" />
    <glyph glyph-name="cent" unicode="&#xa2;" horiz-adv-x="597" 
d="M415 468q0 20 -8.5 28.5t-28.5 8.5h-35v-304h35q20 0 28.5 8.5t8.5 28.5v47h111v-48q0 -140 -140 -140h-37v-97h-95v97h-41q-140 0 -140 140v232q0 140 140 140h41v91h95v-91h37q140 0 140 -140v-48h-111v47zM221 505q-20 0 -28.5 -8.5t-8.5 -28.5v-230q0 -20 8.5 -28.5
t28.5 -8.5h39v304h-39z" />
    <glyph glyph-name="sterling" unicode="&#xa3;" horiz-adv-x="650" 
d="M582 0h-541v110h62q20 0 20 20v164h-82v108h82v158q0 140 140 140h175q140 0 140 -140v-87h-120v80q0 20 -8.5 28.5t-28.5 8.5h-141q-20 0 -28.5 -8.5t-8.5 -28.5v-151h168v-108h-168v-184h227v96h112v-206z" />
    <glyph glyph-name="currency" unicode="&#xa4;" horiz-adv-x="627" 
d="M516 278q0 -34 -8 -61l79 -79l-72 -72l-80 80q-27 -8 -59 -8h-126q-35 0 -59 7l-79 -79l-72 72l78 78q-4 14 -6 29t-2 33v160q0 32 8 59l-78 78l72 72l77 -77q27 8 61 8h126q18 0 33 -2t29 -6l77 77l72 -72l-78 -78q7 -24 7 -59v-160zM412 443q0 21 -8.5 29.5t-28.5 8.5
h-123q-20 0 -28.5 -8.5t-8.5 -29.5v-170q0 -21 8.5 -29.5t28.5 -8.5h123q20 0 28.5 8.5t8.5 29.5v170z" />
    <glyph glyph-name="yen" unicode="&#xa5;" horiz-adv-x="718" 
d="M487 365h91v-68h-129l-27 -49h156v-67h-159v-82h96v-99h-311v99h95v82h-158v67h155l-28 49h-127v68h90l-131 236h-79v99h269v-99h-61l129 -236h4l128 236h-60v99h267v-99h-80z" />
    <glyph glyph-name="brokenbar" unicode="&#xa6;" horiz-adv-x="359" 
d="M233 767v-386h-107v386h107zM126 -216v386h107v-386h-107z" />
    <glyph glyph-name="section" unicode="&#xa7;" horiz-adv-x="560" 
d="M372 565q0 21 -8.5 29.5t-29.5 8.5h-107q-20 0 -28.5 -11t-8.5 -46q0 -30 8.5 -40.5t23.5 -12.5l160 -26q27 -5 48 -13.5t36 -25.5t23 -45.5t8 -73.5q0 -34 -3.5 -56.5t-9.5 -37.5t-14 -25t-16 -17q8 -6 14.5 -13.5t11.5 -18.5t7.5 -27t2.5 -41q0 -92 -34 -129.5
t-106 -37.5h-147q-140 0 -140 140v36h112v-37q0 -21 8.5 -29.5t28.5 -8.5h128q20 0 28.5 11.5t8.5 49.5q0 31 -8.5 42t-24.5 13l-158 26q-28 5 -49.5 14.5t-36.5 27t-22.5 45t-7.5 68.5q0 34 3.5 56.5t9.5 37.5t14 25t18 18q-9 6 -16 13.5t-12 18t-7.5 26.5t-2.5 39
q0 88 34 125t106 37h127q140 0 140 -140v-24h-112v29zM354 220q17 -2 23.5 14.5t6.5 64.5q0 45 -8 58.5t-24 15.5l-139 23q-16 2 -23 -13t-7 -64q0 -23 2 -37.5t6.5 -22.5t10.5 -11.5t14 -4.5z" />
    <glyph glyph-name="dieresis" unicode="&#xa8;" horiz-adv-x="664" 
d="M180 766v119h113v-119h-113zM371 766v119h113v-119h-113z" />
    <glyph glyph-name="copyright" unicode="&#xa9;" horiz-adv-x="871" 
d="M633 700q140 0 140 -140v-420q0 -140 -140 -140h-396q-140 0 -140 140v420q0 140 140 140h396zM695 561q0 35 -15.5 50.5t-49.5 15.5h-389q-34 0 -49.5 -15.5t-15.5 -50.5v-422q0 -35 15.5 -50.5t49.5 -15.5h389q34 0 49.5 15.5t15.5 50.5v422zM499 571q54 0 79 -25.5
t25 -79.5v-61h-90v54q0 17 -6.5 23t-22.5 6h-97q-16 0 -22 -6t-6 -23v-218q0 -17 6 -23t22 -6h97q16 0 22.5 6t6.5 23v54h90v-61q0 -54 -25 -79.5t-79 -25.5h-126q-54 0 -79.5 25.5t-25.5 79.5v232q0 54 25.5 79.5t79.5 25.5h126z" />
    <glyph glyph-name="ordfeminine" unicode="&#xaa;" horiz-adv-x="433" 
d="M398 349h-127v48q-17 -22 -39.5 -36.5t-66.5 -14.5q-57 0 -81 24t-24 82q0 28 6 46.5t18 30t30 18t42 9.5q36 5 60.5 6.5t54.5 3.5v45q0 22 -22 22h-81q-22 0 -22 -22v-19h-75v18q0 47 21.5 68.5t68.5 21.5h97q46 0 68 -21.5t22 -68.5v-194h50v-67zM159 502
q-12 -2 -17 -9t-5 -34t7 -34.5t30 -7.5q35 0 56.5 7t41.5 21v75zM398 291v-68h-330v68h330z" />
    <glyph glyph-name="guillemotleft" unicode="&#xab;" horiz-adv-x="518" 
d="M134 301l145 -207h-120l-128 183v48l128 184h120zM334 301l145 -207h-120l-128 183v48l128 184h120z" />
    <glyph glyph-name="registered" unicode="&#xae;" horiz-adv-x="386" 
d="M288 700q64 0 64 -64v-239q0 -64 -64 -64h-190q-64 0 -64 64v239q0 64 64 64h190zM319 638q0 17 -7 23.5t-23 6.5h-191q-17 0 -23.5 -6.5t-6.5 -23.5v-243q0 -16 6.5 -23t23.5 -7h191q30 0 30 30v243zM289 439v-31h-52l-39 87h-42v-56h23v-31h-79v31h22v157h-22v30h128
q43 0 43 -43v-46q0 -40 -36 -43l25 -55h29zM224 527q13 0 13 13v42q0 12 -13 12h-67v-67h67z" />
    <glyph glyph-name="macron" unicode="&#xaf;" horiz-adv-x="631" 
d="M444 773h-269v94h269v-94z" />
    <glyph glyph-name="degree" unicode="&#xb0;" horiz-adv-x="344" 
d="M126 488q-56 0 -56 56v100q0 56 56 56h92q56 0 56 -56v-100q0 -56 -56 -56h-92zM144 649q-15 0 -15 -16v-78q0 -16 15 -16h56q16 0 16 16v78q0 16 -16 16h-56z" />
    <glyph glyph-name="plusminus" unicode="&#xb1;" horiz-adv-x="532" 
d="M215 385h-144v101h144v137h101v-137h144v-101h-144v-138h-101v138zM460 194v-100h-389v100h389z" />
    <glyph glyph-name="uni00B2" unicode="&#xb2;" horiz-adv-x="375" 
d="M129 691h-80v29q0 48 21 69t69 21h106q48 0 69 -21t21 -69v-54q0 -18 -7.5 -30.5t-19.5 -21t-27 -14.5t-30 -10l-101 -31q-11 -3 -17 -7t-6 -12v-36h134v55h75v-133h-292v134q0 18 6.5 30t17.5 20.5t26.5 14.5t33.5 11l100 31q11 3 17.5 7t6.5 12v25q0 13 -4 17t-17 4
h-81q-13 0 -17 -4t-4 -17v-20z" />
    <glyph glyph-name="uni00B3" unicode="&#xb3;" horiz-adv-x="376" 
d="M122 543q0 -28 3.5 -34.5t16.5 -6.5h86q13 0 17 6.5t4 35.5t-4 35.5t-17 6.5h-89v72h85q13 0 16.5 6t3.5 32t-3.5 32t-16.5 6h-78q-13 0 -16.5 -6t-3.5 -32v-5h-82v9q0 62 21.5 86t68.5 24h102q48 0 69 -23.5t21 -86.5q0 -36 -8.5 -52t-28.5 -26q22 -9 32 -26.5t10 -57.5
q0 -64 -21 -88t-69 -24h-112q-24 0 -41 5.5t-28 18.5t-16 34.5t-5 53.5v7h83v-2z" />
    <glyph glyph-name="acute" unicode="&#xb4;" horiz-adv-x="500" 
d="M135 766l90 144h147l-142 -144h-95z" />
    <glyph glyph-name="paragraph" unicode="&#xb6;" horiz-adv-x="882" 
d="M724 601v-601h-120v587h-83v-587h-120v257h-193q-140 0 -140 140v163q0 140 140 140h599v-99h-83z" />
    <glyph glyph-name="periodcentered" unicode="&#xb7;" horiz-adv-x="268" 
d="M65 263v138h139v-138h-139z" />
    <glyph glyph-name="cedilla" unicode="&#xb8;" horiz-adv-x="589" 
d="M338 -67q0 -54 -22 -73.5t-70 -19.5h-69l-47 70h91q16 0 21 5.5t5 19.5v65h91v-67z" />
    <glyph glyph-name="uni00B9" unicode="&#xb9;" horiz-adv-x="301" 
d="M275 426h-248v68h83v231l-82 -24v68l99 41h65v-316h83v-68z" />
    <glyph glyph-name="ordmasculine" unicode="&#xba;" horiz-adv-x="409" 
d="M259 700q46 0 68 -21.5t22 -68.5v-171q0 -46 -21.5 -68t-68.5 -22h-109q-90 0 -90 90v171q0 46 21.5 68t68.5 22h109zM272 608q0 22 -22 22h-91q-22 0 -22 -22v-167q0 -22 22 -22h91q22 0 22 22v167zM341 223h-273v68h273v-68z" />
    <glyph glyph-name="guillemotright" unicode="&#xbb;" horiz-adv-x="518" 
d="M287 277l-128 -183h-120l145 207l-145 208h120l128 -184v-48zM487 277l-128 -183h-120l145 207l-145 208h120l128 -184v-48z" />
    <glyph glyph-name="onequarter" unicode="&#xbc;" horiz-adv-x="871" 
d="M27 385h83v231l-82 -24v68l99 41h65v-316h83v-68h-248v68zM249 0h-86l402 700h86zM777 68h58v-68h-218v68h79v40h-193l-17 48l220 228h71v-210h59v-66h-59v-40zM696 277l-103 -103h103v103z" />
    <glyph glyph-name="onehalf" unicode="&#xbd;" horiz-adv-x="888" 
d="M27 385h83v231l-82 -24v68l99 41h65v-316h83v-68h-248v68zM249 0h-86l402 700h86zM849 0h-292v134q0 18 6.5 30t17.5 20.5t26.5 14.5t33.5 11l100 31q11 3 17.5 7t6.5 12v25q0 13 -4 17t-17 4h-81q-13 0 -17 -4t-4 -17v-20h-80v29q0 48 21 69t69 21h106q48 0 69 -21
t21 -69v-54q0 -18 -7.5 -30.5t-19.5 -21t-27 -14.5t-30 -10l-101 -31q-11 -3 -17 -7t-6 -12v-36h134v55h75v-133z" />
    <glyph glyph-name="threequarters" unicode="&#xbe;" horiz-adv-x="946" 
d="M331 428q0 -64 -21 -88t-69 -24h-112q-24 0 -41 5.5t-28 18.5t-16 34.5t-5 53.5v7h83v-2q0 -28 3.5 -34.5t16.5 -6.5h86q13 0 17 6.5t4 35.5t-4 35.5t-17 6.5h-89v72h85q13 0 16.5 6t3.5 32t-3.5 32t-16.5 6h-78q-13 0 -16.5 -6t-3.5 -32v-5h-82v9q0 62 21.5 86t68.5 24
h102q48 0 69 -23.5t21 -86.5q0 -36 -8.5 -52t-28.5 -26q22 -9 32 -26.5t10 -57.5zM324 0h-86l402 700h86zM852 68h58v-68h-218v68h79v40h-193l-17 48l220 228h71v-210h59v-66h-59v-40zM771 277l-103 -103h103v103z" />
    <glyph glyph-name="questiondown" unicode="&#xbf;" horiz-adv-x="586" 
d="M276 540h120v-132h-120v132zM191 -160q-140 0 -140 140v94q0 25 10.5 44t29.5 35.5t45.5 32t57.5 33.5l35 20q26 15 36.5 24t10.5 21v51h120v-70q0 -24 -11 -43t-30.5 -35.5t-46 -32t-56.5 -33.5l-34 -21q-27 -15 -37 -24.5t-10 -23.5v-65q0 -20 8.5 -28.5t28.5 -8.5h187
q20 0 28.5 8.5t8.5 28.5v69h120v-76q0 -140 -140 -140h-221z" />
    <glyph glyph-name="Agrave" unicode="&#xc0;" horiz-adv-x="781" 
d="M218 910h147l90 -144h-95zM760 0h-289v99h82l-37 110h-255l-37 -110h80v-99h-283v99h81l175 502h-81v99h273l210 -601h81v-99zM389 592l-94 -281h187z" />
    <glyph glyph-name="Aacute" unicode="&#xc1;" horiz-adv-x="781" 
d="M317 766l90 144h147l-142 -144h-95zM760 0h-289v99h82l-37 110h-255l-37 -110h80v-99h-283v99h81l175 502h-81v99h273l210 -601h81v-99zM389 592l-94 -281h187z" />
    <glyph glyph-name="Acircumflex" unicode="&#xc2;" horiz-adv-x="781" 
d="M209 766l125 127h104l126 -127h-111l-67 69l-67 -69h-110zM760 0h-289v99h82l-37 110h-255l-37 -110h80v-99h-283v99h81l175 502h-81v99h273l210 -601h81v-99zM389 592l-94 -281h187z" />
    <glyph glyph-name="Atilde" unicode="&#xc3;" horiz-adv-x="781" 
d="M226 768v22q0 54 24 79t59 25q24 0 43 -8t35.5 -18t32 -18t32.5 -8q11 0 18 5.5t7 19.5v20h68v-22q0 -54 -22.5 -79t-57.5 -25q-23 0 -42.5 8t-37 18t-34 18t-33.5 8q-11 0 -18.5 -5t-7.5 -20v-20h-66zM760 0h-289v99h82l-37 110h-255l-37 -110h80v-99h-283v99h81
l175 502h-81v99h273l210 -601h81v-99zM389 592l-94 -281h187z" />
    <glyph glyph-name="Adieresis" unicode="&#xc4;" horiz-adv-x="781" 
d="M234 766v119h113v-119h-113zM425 766v119h113v-119h-113zM760 0h-289v99h82l-37 110h-255l-37 -110h80v-99h-283v99h81l175 502h-81v99h273l210 -601h81v-99zM389 592l-94 -281h187z" />
    <glyph glyph-name="Aring" unicode="&#xc5;" horiz-adv-x="781" 
d="M353 766q-32 0 -46 14t-14 46v53q0 32 14 46t46 14h65q32 0 46 -14t14 -46v-53q0 -32 -14 -46t-46 -14h-65zM351 829q0 -8 2 -10t9 -2h48q8 0 10 2t2 10v47q0 7 -2 9t-10 2h-48q-11 0 -11 -11v-47zM760 0h-289v99h82l-37 110h-255l-37 -110h80v-99h-283v99h81l175 502
h-81v99h273l210 -601h81v-99zM389 592l-94 -281h187z" />
    <glyph glyph-name="AE" unicode="&#xc6;" horiz-adv-x="1044" 
d="M984 496h-107v101h-235v-187h263v-108h-263v-199h235v101h107v-204h-551v99h89v118h-240l-60 -118h81v-99h-298v99h83l267 502h-77v99h706v-204zM522 589h-49l-136 -265h185v265z" />
    <glyph glyph-name="Ccedilla" unicode="&#xc7;" horiz-adv-x="642" 
d="M460 553q0 20 -8.5 28.5t-28.5 8.5h-195q-20 0 -28.5 -8.5t-8.5 -28.5v-406q0 -20 8.5 -28.5t28.5 -8.5h195q20 0 28.5 8.5t8.5 28.5v94h120v-101q0 -140 -140 -140h-65v-67q0 -54 -22 -73.5t-70 -19.5h-69l-47 70h91q16 0 21 5.5t5 19.5v65h-73q-140 0 -140 140v420
q0 140 140 140h229q140 0 140 -140v-101h-120v94z" />
    <glyph glyph-name="Egrave" unicode="&#xc8;" horiz-adv-x="651" 
d="M177 910h147l90 -144h-95zM591 496h-107v101h-233v-187h261v-108h-261v-199h233v101h107v-204h-552v99h92v502h-92v99h552v-204z" />
    <glyph glyph-name="Eacute" unicode="&#xc9;" horiz-adv-x="651" 
d="M276 766l90 144h147l-142 -144h-95zM591 496h-107v101h-233v-187h261v-108h-261v-199h233v101h107v-204h-552v99h92v502h-92v99h552v-204z" />
    <glyph glyph-name="Ecircumflex" unicode="&#xca;" horiz-adv-x="651" 
d="M168 766l125 127h104l126 -127h-111l-67 69l-67 -69h-110zM591 496h-107v101h-233v-187h261v-108h-261v-199h233v101h107v-204h-552v99h92v502h-92v99h552v-204z" />
    <glyph glyph-name="Edieresis" unicode="&#xcb;" horiz-adv-x="651" 
d="M193 766v119h113v-119h-113zM384 766v119h113v-119h-113zM591 496h-107v101h-233v-187h261v-108h-261v-199h233v101h107v-204h-552v99h92v502h-92v99h552v-204z" />
    <glyph glyph-name="Igrave" unicode="&#xcc;" horiz-adv-x="401" 
d="M33 910h147l90 -144h-95zM261 99h97v-99h-315v99h98v502h-98v99h315v-99h-97v-502z" />
    <glyph glyph-name="Iacute" unicode="&#xcd;" horiz-adv-x="401" 
d="M132 766l90 144h147l-142 -144h-95zM358 601h-97v-502h97v-99h-315v99h98v502h-98v99h315v-99z" />
    <glyph glyph-name="Icircumflex" unicode="&#xce;" horiz-adv-x="401" 
d="M24 766l125 127h104l126 -127h-111l-67 69l-67 -69h-110zM358 601h-97v-502h97v-99h-315v99h98v502h-98v99h315v-99z" />
    <glyph glyph-name="Idieresis" unicode="&#xcf;" horiz-adv-x="401" 
d="M49 766v119h113v-119h-113zM240 766v119h113v-119h-113zM261 99h97v-99h-315v99h98v502h-98v99h315v-99h-97v-502z" />
    <glyph glyph-name="Eth" unicode="&#xd0;" horiz-adv-x="712" 
d="M501 700q140 0 140 -140v-420q0 -140 -140 -140h-462v99h92v201h-78v118h78v183h-92v99h462zM521 553q0 20 -8.5 28.5t-29.5 8.5h-232v-172h78v-118h-78v-190h232q21 0 29.5 8.5t8.5 28.5v406z" />
    <glyph glyph-name="Ntilde" unicode="&#xd1;" horiz-adv-x="789" 
d="M236 768v22q0 54 24 79t59 25q24 0 43 -8t35.5 -18t32 -18t32.5 -8q11 0 18 5.5t7 19.5v20h68v-22q0 -54 -22.5 -79t-57.5 -25q-23 0 -42.5 8t-37 18t-34 18t-33.5 8q-11 0 -18.5 -5t-7.5 -20v-20h-66zM666 601v-601h-122l-299 522v-423h101v-99h-307v99h92v502h-92v99
h224l289 -505v406h-101v99h303v-99h-88z" />
    <glyph glyph-name="Ograve" unicode="&#xd2;" horiz-adv-x="665" 
d="M307 766l-142 144h147l90 -144h-95zM453 0q140 0 140 140v420q0 140 -140 140h-242q-140 0 -140 -140v-420q0 -140 140 -140h242zM191 553q0 20 8.5 28.5t28.5 8.5h208q20 0 28.5 -8.5t8.5 -28.5v-406q0 -20 -8.5 -28.5t-28.5 -8.5h-208q-20 0 -28.5 8.5t-8.5 28.5v406z
" />
    <glyph glyph-name="Oacute" unicode="&#xd3;" horiz-adv-x="665" 
d="M264 766l90 144h147l-142 -144h-95zM211 0q-140 0 -140 140v420q0 140 140 140h242q140 0 140 -140v-420q0 -140 -140 -140h-242zM191 147q0 -20 8.5 -28.5t28.5 -8.5h208q20 0 28.5 8.5t8.5 28.5v406q0 20 -8.5 28.5t-28.5 8.5h-208q-20 0 -28.5 -8.5t-8.5 -28.5v-406z
" />
    <glyph glyph-name="Ocircumflex" unicode="&#xd4;" horiz-adv-x="665" 
d="M266 766h-110l125 127h104l126 -127h-111l-67 69zM453 0q140 0 140 140v420q0 140 -140 140h-242q-140 0 -140 -140v-420q0 -140 140 -140h242zM191 553q0 20 8.5 28.5t28.5 8.5h208q20 0 28.5 -8.5t8.5 -28.5v-406q0 -20 -8.5 -28.5t-28.5 -8.5h-208q-20 0 -28.5 8.5
t-8.5 28.5v406z" />
    <glyph glyph-name="Otilde" unicode="&#xd5;" horiz-adv-x="665" 
d="M239 768h-66v22q0 54 24 79t59 25q24 0 43 -8t35.5 -18t32 -18t32.5 -8q11 0 18 5.5t7 19.5v20h68v-22q0 -54 -22.5 -79t-57.5 -25q-23 0 -42.5 8t-37 18t-34 18t-33.5 8q-11 0 -18.5 -5t-7.5 -20v-20zM453 0q140 0 140 140v420q0 140 -140 140h-242q-140 0 -140 -140
v-420q0 -140 140 -140h242zM191 553q0 20 8.5 28.5t28.5 8.5h208q20 0 28.5 -8.5t8.5 -28.5v-406q0 -20 -8.5 -28.5t-28.5 -8.5h-208q-20 0 -28.5 8.5t-8.5 28.5v406z" />
    <glyph glyph-name="Odieresis" unicode="&#xd6;" horiz-adv-x="665" 
d="M181 766v119h113v-119h-113zM372 766v119h113v-119h-113zM211 0q-140 0 -140 140v420q0 140 140 140h242q140 0 140 -140v-420q0 -140 -140 -140h-242zM191 147q0 -20 8.5 -28.5t28.5 -8.5h208q20 0 28.5 8.5t8.5 28.5v406q0 20 -8.5 28.5t-28.5 8.5h-208
q-20 0 -28.5 -8.5t-8.5 -28.5v-406z" />
    <glyph glyph-name="multiply" unicode="&#xd7;" horiz-adv-x="532" 
d="M453 216l-69 -68l-117 117l-117 -118l-69 69l117 118l-117 117l69 68l117 -117l117 118l69 -69l-117 -118z" />
    <glyph glyph-name="Oslash" unicode="&#xd8;" horiz-adv-x="665" 
d="M525 688q68 -28 68 -128v-420q0 -140 -140 -140h-213l-25 -60h-106l30 72q-68 28 -68 128v420q0 140 140 140h213l25 60h106zM191 139l188 451h-151q-20 0 -28.5 -8.5t-8.5 -28.5v-406v-8zM472 561l-187 -451h151q20 0 28.5 8.5t8.5 28.5v406z" />
    <glyph glyph-name="Ugrave" unicode="&#xd9;" horiz-adv-x="755" 
d="M210 910h147l90 -144h-95zM633 601v-461q0 -140 -140 -140h-231q-140 0 -140 140v461h-87v99h299v-99h-92v-454q0 -20 8.5 -28.5t28.5 -8.5h197q20 0 28.5 8.5t8.5 28.5v454h-92v99h299v-99h-87z" />
    <glyph glyph-name="Uacute" unicode="&#xda;" horiz-adv-x="755" 
d="M309 766l90 144h147l-142 -144h-95zM633 601v-461q0 -140 -140 -140h-231q-140 0 -140 140v461h-87v99h299v-99h-92v-454q0 -20 8.5 -28.5t28.5 -8.5h197q20 0 28.5 8.5t8.5 28.5v454h-92v99h299v-99h-87z" />
    <glyph glyph-name="Ucircumflex" unicode="&#xdb;" horiz-adv-x="755" 
d="M201 766l125 127h104l126 -127h-111l-67 69l-67 -69h-110zM633 601v-461q0 -140 -140 -140h-231q-140 0 -140 140v461h-87v99h299v-99h-92v-454q0 -20 8.5 -28.5t28.5 -8.5h197q20 0 28.5 8.5t8.5 28.5v454h-92v99h299v-99h-87z" />
    <glyph glyph-name="Udieresis" unicode="&#xdc;" horiz-adv-x="755" 
d="M226 766v119h113v-119h-113zM417 766v119h113v-119h-113zM633 601v-461q0 -140 -140 -140h-231q-140 0 -140 140v461h-87v99h299v-99h-92v-454q0 -20 8.5 -28.5t28.5 -8.5h197q20 0 28.5 8.5t8.5 28.5v454h-92v99h299v-99h-87z" />
    <glyph glyph-name="Yacute" unicode="&#xdd;" horiz-adv-x="721" 
d="M293 766l90 144h147l-142 -144h-95zM421 99h98v-99h-317v99h99v144l-199 358h-81v99h273v-99h-62l130 -241l130 241h-63v99h271v-99h-81l-198 -358v-144z" />
    <glyph glyph-name="Thorn" unicode="&#xde;" horiz-adv-x="675" 
d="M486 564q140 0 140 -140v-138q0 -140 -140 -140h-231v-47h92v-99h-304v99h92v502h-92v99h300v-99h-88v-37h231zM506 420q0 20 -8.5 28.5t-29.5 8.5h-213v-204h213q21 0 29.5 8.5t8.5 28.5v130z" />
    <glyph glyph-name="germandbls" unicode="&#xdf;" horiz-adv-x="609" 
d="M482 375q19 -7 33 -19t23 -32t13.5 -50t4.5 -73q0 -59 -8 -98t-24.5 -62t-41 -32t-58.5 -9h-135v101h113q10 0 17.5 3.5t12 15t6.5 33.5t2 60t-2 60.5t-6.5 34t-12 15t-17.5 3.5h-106v97h98q10 0 17.5 3t12 14t6.5 31t2 55q0 34 -2 54.5t-6.5 31.5t-12 14t-17.5 3h-132
q-20 0 -29 -8.5t-9 -29.5v-591h-192v89h77v509q0 68 32.5 100t99.5 32h175q34 0 58.5 -9t41 -30.5t24.5 -58.5t8 -93q0 -39 -3.5 -66.5t-11 -46.5t-20.5 -31t-31 -20z" />
    <glyph glyph-name="agrave" unicode="&#xe0;" horiz-adv-x="592" 
d="M116 750h147l90 -144h-95zM562 0h-191v81q-15 -19 -30.5 -34.5t-36 -26t-47 -16t-63.5 -5.5q-80 0 -114.5 35.5t-34.5 119.5q0 42 9 71t27 47.5t44 28t59 13.5q34 5 82.5 9t104.5 7v77q0 38 -38 38h-119q-38 0 -38 -38v-27h-113v28q0 68 32 100t100 32h159q68 0 100 -32
t32 -100v-321h76v-87zM206 229q-13 -2 -22 -5t-14.5 -10t-8 -19t-2.5 -32t2.5 -33t8.5 -20.5t16.5 -10t26.5 -2.5q55 0 89.5 13t69.5 34v111z" />
    <glyph glyph-name="aacute" unicode="&#xe1;" horiz-adv-x="592" 
d="M215 606l90 144h147l-142 -144h-95zM562 0h-191v81q-15 -19 -30.5 -34.5t-36 -26t-47 -16t-63.5 -5.5q-80 0 -114.5 35.5t-34.5 119.5q0 42 9 71t27 47.5t44 28t59 13.5q34 5 82.5 9t104.5 7v77q0 38 -38 38h-119q-38 0 -38 -38v-27h-113v28q0 68 32 100t100 32h159
q68 0 100 -32t32 -100v-321h76v-87zM206 229q-13 -2 -22 -5t-14.5 -10t-8 -19t-2.5 -32t2.5 -33t8.5 -20.5t16.5 -10t26.5 -2.5q55 0 89.5 13t69.5 34v111z" />
    <glyph glyph-name="acircumflex" unicode="&#xe2;" horiz-adv-x="592" 
d="M107 606l125 127h104l126 -127h-111l-67 69l-67 -69h-110zM562 0h-191v81q-15 -19 -30.5 -34.5t-36 -26t-47 -16t-63.5 -5.5q-80 0 -114.5 35.5t-34.5 119.5q0 42 9 71t27 47.5t44 28t59 13.5q34 5 82.5 9t104.5 7v77q0 38 -38 38h-119q-38 0 -38 -38v-27h-113v28
q0 68 32 100t100 32h159q68 0 100 -32t32 -100v-321h76v-87zM206 229q-13 -2 -22 -5t-14.5 -10t-8 -19t-2.5 -32t2.5 -33t8.5 -20.5t16.5 -10t26.5 -2.5q55 0 89.5 13t69.5 34v111z" />
    <glyph glyph-name="atilde" unicode="&#xe3;" horiz-adv-x="592" 
d="M124 608v22q0 54 24 79t59 25q24 0 43 -8t35.5 -18t32 -18t32.5 -8q11 0 18 5.5t7 19.5v20h68v-22q0 -54 -22.5 -79t-57.5 -25q-23 0 -42.5 8t-37 18t-34 18t-33.5 8q-11 0 -18.5 -5t-7.5 -20v-20h-66zM562 0h-191v81q-15 -19 -30.5 -34.5t-36 -26t-47 -16t-63.5 -5.5
q-80 0 -114.5 35.5t-34.5 119.5q0 42 9 71t27 47.5t44 28t59 13.5q34 5 82.5 9t104.5 7v77q0 38 -38 38h-119q-38 0 -38 -38v-27h-113v28q0 68 32 100t100 32h159q68 0 100 -32t32 -100v-321h76v-87zM206 229q-13 -2 -22 -5t-14.5 -10t-8 -19t-2.5 -32t2.5 -33t8.5 -20.5
t16.5 -10t26.5 -2.5q55 0 89.5 13t69.5 34v111z" />
    <glyph glyph-name="adieresis" unicode="&#xe4;" horiz-adv-x="592" 
d="M132 606v119h113v-119h-113zM323 606v119h113v-119h-113zM562 0h-191v81q-15 -19 -30.5 -34.5t-36 -26t-47 -16t-63.5 -5.5q-80 0 -114.5 35.5t-34.5 119.5q0 42 9 71t27 47.5t44 28t59 13.5q34 5 82.5 9t104.5 7v77q0 38 -38 38h-119q-38 0 -38 -38v-27h-113v28
q0 68 32 100t100 32h159q68 0 100 -32t32 -100v-321h76v-87zM206 229q-13 -2 -22 -5t-14.5 -10t-8 -19t-2.5 -32t2.5 -33t8.5 -20.5t16.5 -10t26.5 -2.5q55 0 89.5 13t69.5 34v111z" />
    <glyph glyph-name="aring" unicode="&#xe5;" horiz-adv-x="592" 
d="M251 606q-32 0 -46 14t-14 46v53q0 32 14 46t46 14h65q32 0 46 -14t14 -46v-53q0 -32 -14 -46t-46 -14h-65zM249 669q0 -8 2 -10t9 -2h48q8 0 10 2t2 10v47q0 7 -2 9t-10 2h-48q-11 0 -11 -11v-47zM562 0h-191v81q-15 -19 -30.5 -34.5t-36 -26t-47 -16t-63.5 -5.5
q-80 0 -114.5 35.5t-34.5 119.5q0 42 9 71t27 47.5t44 28t59 13.5q34 5 82.5 9t104.5 7v77q0 38 -38 38h-119q-38 0 -38 -38v-27h-113v28q0 68 32 100t100 32h159q68 0 100 -32t32 -100v-321h76v-87zM206 229q-13 -2 -22 -5t-14.5 -10t-8 -19t-2.5 -32t2.5 -33t8.5 -20.5
t16.5 -10t26.5 -2.5q55 0 89.5 13t69.5 34v111z" />
    <glyph glyph-name="ae" unicode="&#xe6;" horiz-adv-x="859" 
d="M486 133q0 -21 8.5 -29.5t29.5 -8.5h130q21 0 29.5 8.5t8.5 29.5v41h115v-42q0 -68 -32 -100t-100 -32h-172q-108 0 -127 85q-24 -36 -68.5 -61t-113.5 -25q-80 0 -114.5 35.5t-34.5 119.5q0 42 9 71t27 47.5t44 28t59 13.5q34 5 82.5 9t104.5 7v77q0 38 -38 38h-119
q-38 0 -38 -38v-27h-113v28q0 68 32 100t100 32h159q33 0 49.5 -8.5t24.5 -22.5q8 14 25 22.5t50 8.5h172q68 0 100 -32t32 -100v-169h-321v-106zM693 407q0 21 -9 29.5t-29 8.5h-131q-20 0 -29 -8.5t-9 -29.5v-87h207v87zM206 229q-13 -2 -22 -5t-14.5 -10t-8 -19t-2.5 -32
t2.5 -33t8.5 -20.5t16.5 -10t26.5 -2.5q55 0 89.5 13t69.5 34v111z" />
    <glyph glyph-name="ccedilla" unicode="&#xe7;" horiz-adv-x="532" 
d="M368 401q0 21 -9 29.5t-29 8.5h-122q-21 0 -29.5 -8.5t-8.5 -29.5v-262q0 -21 8.5 -29.5t29.5 -8.5h122q20 0 29 8.5t9 29.5v50h114v-57q0 -68 -32 -100t-100 -32h-27v-67q0 -54 -22 -73.5t-70 -19.5h-69l-47 70h91q16 0 21 5.5t5 19.5v65h-45q-68 0 -100 32t-32 100v276
q0 68 32 100t100 32h163q68 0 100 -32t32 -100v-57h-114v50z" />
    <glyph glyph-name="egrave" unicode="&#xe8;" horiz-adv-x="541" 
d="M105 750h147l90 -144h-95zM170 133q0 -21 8.5 -29.5t29.5 -8.5h129q20 0 29 8.5t9 29.5v41h115v-42q0 -68 -32 -100t-100 -32h-171q-68 0 -100 32t-32 100v276q0 68 32 100t100 32h171q68 0 100 -32t32 -100v-169h-320v-106zM208 445q-21 0 -29.5 -8.5t-8.5 -29.5v-87
h205v87q0 21 -8.5 29.5t-29.5 8.5h-129z" />
    <glyph glyph-name="eacute" unicode="&#xe9;" horiz-adv-x="541" 
d="M204 606l90 144h147l-142 -144h-95zM170 133q0 -21 8.5 -29.5t29.5 -8.5h129q20 0 29 8.5t9 29.5v41h115v-42q0 -68 -32 -100t-100 -32h-171q-68 0 -100 32t-32 100v276q0 68 32 100t100 32h171q68 0 100 -32t32 -100v-169h-320v-106zM208 445q-21 0 -29.5 -8.5
t-8.5 -29.5v-87h205v87q0 21 -8.5 29.5t-29.5 8.5h-129z" />
    <glyph glyph-name="ecircumflex" unicode="&#xea;" horiz-adv-x="541" 
d="M96 606l125 127h104l126 -127h-111l-67 69l-67 -69h-110zM170 133q0 -21 8.5 -29.5t29.5 -8.5h129q20 0 29 8.5t9 29.5v41h115v-42q0 -68 -32 -100t-100 -32h-171q-68 0 -100 32t-32 100v276q0 68 32 100t100 32h171q68 0 100 -32t32 -100v-169h-320v-106zM208 445
q-21 0 -29.5 -8.5t-8.5 -29.5v-87h205v87q0 21 -8.5 29.5t-29.5 8.5h-129z" />
    <glyph glyph-name="edieresis" unicode="&#xeb;" horiz-adv-x="541" 
d="M121 606v119h113v-119h-113zM312 606v119h113v-119h-113zM170 133q0 -21 8.5 -29.5t29.5 -8.5h129q20 0 29 8.5t9 29.5v41h115v-42q0 -68 -32 -100t-100 -32h-171q-68 0 -100 32t-32 100v276q0 68 32 100t100 32h171q68 0 100 -32t32 -100v-169h-320v-106zM208 445
q-21 0 -29.5 -8.5t-8.5 -29.5v-87h205v87q0 21 -8.5 29.5t-29.5 8.5h-129z" />
    <glyph glyph-name="igrave" unicode="&#xec;" horiz-adv-x="353" 
d="M1 730h147l90 -144h-95zM316 0h-277v87h83v366h-83v87h198v-453h79v-87z" />
    <glyph glyph-name="iacute" unicode="&#xed;" horiz-adv-x="353" 
d="M81 586l90 144h147l-142 -144h-95zM316 87v-87h-277v87h83v366h-83v87h198v-453h79z" />
    <glyph glyph-name="icircumflex" unicode="&#xee;" horiz-adv-x="353" 
d="M-1 586l125 127h104l126 -127h-111l-67 69l-67 -69h-110zM316 87v-87h-277v87h83v366h-83v87h198v-453h79z" />
    <glyph glyph-name="idieresis" unicode="&#xef;" horiz-adv-x="353" 
d="M27 604v119h113v-119h-113zM331 604h-113v119h113v-119zM316 87v-87h-277v87h83v366h-83v87h198v-453h79z" />
    <glyph glyph-name="eth" unicode="&#xf0;" horiz-adv-x="561" 
d="M372 675q37 -9 63 -22t41.5 -30.5t22.5 -41.5t7 -56v-393q0 -68 -32 -100t-100 -32h-187q-68 0 -100 32t-32 100v245q0 72 35 105t119 33q39 0 66 -6t47.5 -16.5t36.5 -26t32 -33.5v98q0 29 -11 39.5t-36 18.5l-50 17l-45 -45h-101l71 71l-88 31v73l153 -39l46 46h101
l-66 -66zM391 369q-18 11 -34.5 19t-35.5 13.5t-41.5 8t-51.5 2.5q-35 0 -46.5 -9.5t-11.5 -35.5v-228q0 -21 9 -29.5t29 -8.5h145q21 0 29.5 8.5t8.5 29.5v230z" />
    <glyph glyph-name="ntilde" unicode="&#xf1;" horiz-adv-x="659" 
d="M176 608v22q0 54 24 79t59 25q24 0 43 -8t35.5 -18t32 -18t32.5 -8q11 0 18 5.5t7 19.5v20h68v-22q0 -54 -22.5 -79t-57.5 -25q-23 0 -42.5 8t-37 18t-34 18t-33.5 8q-11 0 -18.5 -5t-7.5 -20v-20h-66zM629 0h-261v87h70v314q0 23 -10 32t-42 9q-27 0 -48.5 -3t-40 -8
t-35 -13.5t-34.5 -18.5v-312h69v-87h-265v87h81v366h-81v87h196v-77q15 18 31 33t36 26t46.5 17t62.5 6q81 0 115 -32.5t34 -102.5v-323h76v-87z" />
    <glyph glyph-name="ograve" unicode="&#xf2;" horiz-adv-x="550" 
d="M250 606l-142 144h147l90 -144h-95zM187 540q-68 0 -100 -32t-32 -100v-276q0 -68 32 -100t100 -32h176q68 0 100 32t32 100v276q0 68 -32 100t-100 32h-176zM380 139q0 -21 -8.5 -29.5t-29.5 -8.5h-134q-20 0 -29 8.5t-9 29.5v262q0 21 9 29.5t29 8.5h134
q21 0 29.5 -8.5t8.5 -29.5v-262z" />
    <glyph glyph-name="oacute" unicode="&#xf3;" horiz-adv-x="550" 
d="M207 606l90 144h147l-142 -144h-95zM363 540q68 0 100 -32t32 -100v-276q0 -68 -32 -100t-100 -32h-176q-68 0 -100 32t-32 100v276q0 68 32 100t100 32h176zM380 401q0 21 -8.5 29.5t-29.5 8.5h-134q-20 0 -29 -8.5t-9 -29.5v-262q0 -21 9 -29.5t29 -8.5h134
q21 0 29.5 8.5t8.5 29.5v262z" />
    <glyph glyph-name="ocircumflex" unicode="&#xf4;" horiz-adv-x="550" 
d="M209 606h-110l125 127h104l126 -127h-111l-67 69zM187 540q-68 0 -100 -32t-32 -100v-276q0 -68 32 -100t100 -32h176q68 0 100 32t32 100v276q0 68 -32 100t-100 32h-176zM380 139q0 -21 -8.5 -29.5t-29.5 -8.5h-134q-20 0 -29 8.5t-9 29.5v262q0 21 9 29.5t29 8.5h134
q21 0 29.5 -8.5t8.5 -29.5v-262z" />
    <glyph glyph-name="otilde" unicode="&#xf5;" horiz-adv-x="550" 
d="M182 608h-66v22q0 54 24 79t59 25q24 0 43 -8t35.5 -18t32 -18t32.5 -8q11 0 18 5.5t7 19.5v20h68v-22q0 -54 -22.5 -79t-57.5 -25q-23 0 -42.5 8t-37 18t-34 18t-33.5 8q-11 0 -18.5 -5t-7.5 -20v-20zM187 540q-68 0 -100 -32t-32 -100v-276q0 -68 32 -100t100 -32h176
q68 0 100 32t32 100v276q0 68 -32 100t-100 32h-176zM380 139q0 -21 -8.5 -29.5t-29.5 -8.5h-134q-20 0 -29 8.5t-9 29.5v262q0 21 9 29.5t29 8.5h134q21 0 29.5 -8.5t8.5 -29.5v-262z" />
    <glyph glyph-name="odieresis" unicode="&#xf6;" horiz-adv-x="550" 
d="M124 606v119h113v-119h-113zM315 606v119h113v-119h-113zM363 540q68 0 100 -32t32 -100v-276q0 -68 -32 -100t-100 -32h-176q-68 0 -100 32t-32 100v276q0 68 32 100t100 32h176zM380 401q0 21 -8.5 29.5t-29.5 8.5h-134q-20 0 -29 -8.5t-9 -29.5v-262q0 -21 9 -29.5
t29 -8.5h134q21 0 29.5 8.5t8.5 29.5v262z" />
    <glyph glyph-name="divide" unicode="&#xf7;" horiz-adv-x="532" 
d="M207 495v121h117v-121h-117zM474 422v-110h-416v110h416zM207 118v120h117v-120h-117z" />
    <glyph glyph-name="oslash" unicode="&#xf8;" horiz-adv-x="550" 
d="M425 531q70 -25 70 -123v-276q0 -68 -32 -100t-100 -32h-151l-24 -60h-87l27 68q-73 25 -73 124v276q0 68 32 100t100 32h155l24 60h87zM170 139q0 -13 3 -20l128 320h-93q-20 0 -29 -8.5t-9 -29.5v-262zM380 401q0 10 -1 14l-126 -314h89q21 0 29.5 8.5t8.5 29.5v262z
" />
    <glyph glyph-name="ugrave" unicode="&#xf9;" horiz-adv-x="650" 
d="M147 750h147l90 -144h-95zM621 0h-191v77q-15 -18 -31 -33t-36 -26t-46.5 -17t-62.5 -6q-81 0 -115 32.5t-34 102.5v323h-75v87h190v-398q0 -23 10 -32t42 -9q27 0 48.5 2.5t40 8t35 13.5t34.5 19v309h-91v87h206v-453h76v-87z" />
    <glyph glyph-name="uacute" unicode="&#xfa;" horiz-adv-x="650" 
d="M246 606l90 144h147l-142 -144h-95zM621 0h-191v77q-15 -18 -31 -33t-36 -26t-46.5 -17t-62.5 -6q-81 0 -115 32.5t-34 102.5v323h-75v87h190v-398q0 -23 10 -32t42 -9q27 0 48.5 2.5t40 8t35 13.5t34.5 19v309h-91v87h206v-453h76v-87z" />
    <glyph glyph-name="ucircumflex" unicode="&#xfb;" horiz-adv-x="650" 
d="M138 606l125 127h104l126 -127h-111l-67 69l-67 -69h-110zM621 0h-191v77q-15 -18 -31 -33t-36 -26t-46.5 -17t-62.5 -6q-81 0 -115 32.5t-34 102.5v323h-75v87h190v-398q0 -23 10 -32t42 -9q27 0 48.5 2.5t40 8t35 13.5t34.5 19v309h-91v87h206v-453h76v-87z" />
    <glyph glyph-name="udieresis" unicode="&#xfc;" horiz-adv-x="650" 
d="M163 606v119h113v-119h-113zM354 606v119h113v-119h-113zM621 0h-191v77q-15 -18 -31 -33t-36 -26t-46.5 -17t-62.5 -6q-81 0 -115 32.5t-34 102.5v323h-75v87h190v-398q0 -23 10 -32t42 -9q27 0 48.5 2.5t40 8t35 13.5t34.5 19v309h-91v87h206v-453h76v-87z" />
    <glyph glyph-name="yacute" unicode="&#xfd;" horiz-adv-x="594" 
d="M230 606l90 144h147l-142 -144h-95zM325 -71h59v-89h-254v89h82l24 71l-161 453h-59v87h233v-87h-56l102 -336l110 336h-56v87h229v-87h-59z" />
    <glyph glyph-name="thorn" unicode="&#xfe;" horiz-adv-x="619" 
d="M410 544q84 0 119 -33t35 -106v-270q0 -73 -35 -106t-119 -33q-39 0 -66.5 6t-48 17t-36.5 26t-31 33v-151h96v-87h-292v87h81v716h-81v87h196v-268q15 18 31 33t36.5 26t48 17t66.5 6zM448 396q0 26 -11 35.5t-46 9.5q-30 0 -52.5 -3t-41.5 -8t-35.5 -13.5t-34.5 -18.5
v-256q18 -11 34.5 -19t35.5 -13t41.5 -8t52.5 -3q35 0 46 9.5t11 35.5v252z" />
    <glyph glyph-name="ydieresis" unicode="&#xff;" horiz-adv-x="594" 
d="M147 606v119h113v-119h-113zM338 606v119h113v-119h-113zM325 -71h59v-89h-254v89h82l24 71l-161 453h-59v87h233v-87h-56l102 -336l110 336h-56v87h229v-87h-59z" />
    <glyph glyph-name="Amacron" unicode="&#x100;" horiz-adv-x="781" 
d="M250 773v94h269v-94h-269zM760 0h-289v99h82l-37 110h-255l-37 -110h80v-99h-283v99h81l175 502h-81v99h273l210 -601h81v-99zM389 592l-94 -281h187z" />
    <glyph glyph-name="amacron" unicode="&#x101;" horiz-adv-x="592" 
d="M148 613v94h269v-94h-269zM562 0h-191v81q-15 -19 -30.5 -34.5t-36 -26t-47 -16t-63.5 -5.5q-80 0 -114.5 35.5t-34.5 119.5q0 42 9 71t27 47.5t44 28t59 13.5q34 5 82.5 9t104.5 7v77q0 38 -38 38h-119q-38 0 -38 -38v-27h-113v28q0 68 32 100t100 32h159q68 0 100 -32
t32 -100v-321h76v-87zM206 229q-13 -2 -22 -5t-14.5 -10t-8 -19t-2.5 -32t2.5 -33t8.5 -20.5t16.5 -10t26.5 -2.5q55 0 89.5 13t69.5 34v111z" />
    <glyph glyph-name="Abreve" unicode="&#x102;" horiz-adv-x="781" 
d="M349 766q-39 0 -57 18t-18 57v53h73v-45q0 -11 3.5 -14.5t14.5 -3.5h42q11 0 14.5 3.5t3.5 14.5v45h74v-53q0 -39 -18.5 -57t-56.5 -18h-75zM760 0h-289v99h82l-37 110h-255l-37 -110h80v-99h-283v99h81l175 502h-81v99h273l210 -601h81v-99zM389 592l-94 -281h187z" />
    <glyph glyph-name="abreve" unicode="&#x103;" horiz-adv-x="592" 
d="M247 606q-39 0 -57 18t-18 57v53h73v-45q0 -11 3.5 -14.5t14.5 -3.5h42q11 0 14.5 3.5t3.5 14.5v45h74v-53q0 -39 -18.5 -57t-56.5 -18h-75zM562 0h-191v81q-15 -19 -30.5 -34.5t-36 -26t-47 -16t-63.5 -5.5q-80 0 -114.5 35.5t-34.5 119.5q0 42 9 71t27 47.5t44 28
t59 13.5q34 5 82.5 9t104.5 7v77q0 38 -38 38h-119q-38 0 -38 -38v-27h-113v28q0 68 32 100t100 32h159q68 0 100 -32t32 -100v-321h76v-87zM206 229q-13 -2 -22 -5t-14.5 -10t-8 -19t-2.5 -32t2.5 -33t8.5 -20.5t16.5 -10t26.5 -2.5q55 0 89.5 13t69.5 34v111z" />
    <glyph glyph-name="Aogonek" unicode="&#x104;" horiz-adv-x="781" 
d="M760 0h-70q-29 -18 -41.5 -33.5t-12.5 -31.5q0 -28 35 -28h39v-80h-59q-51 0 -80.5 16.5t-29.5 58.5q0 19 6 34.5t15.5 27.5t20 21t19.5 15h-131v99h82l-37 110h-255l-37 -110h80v-99h-283v99h81l175 502h-81v99h273l210 -601h81v-99zM389 592l-94 -281h187z" />
    <glyph glyph-name="aogonek" unicode="&#x105;" horiz-adv-x="592" 
d="M582 -173h-59q-51 0 -80.5 16.5t-29.5 58.5q0 19 6 34.5t15.5 27.5t20 21t19.5 15h-103v81q-15 -19 -30.5 -34.5t-36 -26t-47 -16t-63.5 -5.5q-80 0 -114.5 35.5t-34.5 119.5q0 42 9 71t27 47.5t44 28t59 13.5q34 5 82.5 9t104.5 7v77q0 38 -38 38h-119q-38 0 -38 -38
v-27h-113v28q0 68 32 100t100 32h159q68 0 100 -32t32 -100v-321h76v-87q-29 -18 -41.5 -33.5t-12.5 -31.5q0 -28 35 -28h39v-80zM206 229q-13 -2 -22 -5t-14.5 -10t-8 -19t-2.5 -32t2.5 -33t8.5 -20.5t16.5 -10t26.5 -2.5q55 0 89.5 13t69.5 34v111z" />
    <glyph glyph-name="Cacute" unicode="&#x106;" horiz-adv-x="642" 
d="M260 766l90 144h147l-142 -144h-95zM211 0q-140 0 -140 140v420q0 140 140 140h229q140 0 140 -140v-101h-120v94q0 20 -8.5 28.5t-28.5 8.5h-195q-20 0 -28.5 -8.5t-8.5 -28.5v-406q0 -20 8.5 -28.5t28.5 -8.5h195q20 0 28.5 8.5t8.5 28.5v94h120v-101q0 -140 -140 -140
h-229z" />
    <glyph glyph-name="cacute" unicode="&#x107;" horiz-adv-x="532" 
d="M202 606l90 144h147l-142 -144h-95zM350 540q68 0 100 -32t32 -100v-57h-114v50q0 21 -9 29.5t-29 8.5h-122q-21 0 -29.5 -8.5t-8.5 -29.5v-262q0 -21 8.5 -29.5t29.5 -8.5h122q20 0 29 8.5t9 29.5v50h114v-57q0 -68 -32 -100t-100 -32h-163q-68 0 -100 32t-32 100v276
q0 68 32 100t100 32h163z" />
    <glyph glyph-name="Cdotaccent" unicode="&#x10a;" horiz-adv-x="642" 
d="M272 766v117h113v-117h-113zM211 0q-140 0 -140 140v420q0 140 140 140h229q140 0 140 -140v-101h-120v94q0 20 -8.5 28.5t-28.5 8.5h-195q-20 0 -28.5 -8.5t-8.5 -28.5v-406q0 -20 8.5 -28.5t28.5 -8.5h195q20 0 28.5 8.5t8.5 28.5v94h120v-101q0 -140 -140 -140h-229z
" />
    <glyph glyph-name="cdotaccent" unicode="&#x10b;" horiz-adv-x="532" 
d="M214 606v117h113v-117h-113zM350 540q68 0 100 -32t32 -100v-57h-114v50q0 21 -9 29.5t-29 8.5h-122q-21 0 -29.5 -8.5t-8.5 -29.5v-262q0 -21 8.5 -29.5t29.5 -8.5h122q20 0 29 8.5t9 29.5v50h114v-57q0 -68 -32 -100t-100 -32h-163q-68 0 -100 32t-32 100v276
q0 68 32 100t100 32h163z" />
    <glyph glyph-name="Ccaron" unicode="&#x10c;" horiz-adv-x="642" 
d="M277 766l-125 127h109l68 -70l67 70h109l-124 -127h-104zM440 0q140 0 140 140v101h-120v-94q0 -20 -8.5 -28.5t-28.5 -8.5h-195q-20 0 -28.5 8.5t-8.5 28.5v406q0 20 8.5 28.5t28.5 8.5h195q20 0 28.5 -8.5t8.5 -28.5v-94h120v101q0 140 -140 140h-229q-140 0 -140 -140
v-420q0 -140 140 -140h229z" />
    <glyph glyph-name="ccaron" unicode="&#x10d;" horiz-adv-x="532" 
d="M219 606l-125 127h109l68 -70l67 70h109l-124 -127h-104zM187 540q-68 0 -100 -32t-32 -100v-276q0 -68 32 -100t100 -32h163q68 0 100 32t32 100v57h-114v-50q0 -21 -9 -29.5t-29 -8.5h-122q-21 0 -29.5 8.5t-8.5 29.5v262q0 21 8.5 29.5t29.5 8.5h122q20 0 29 -8.5
t9 -29.5v-50h114v57q0 68 -32 100t-100 32h-163z" />
    <glyph glyph-name="Dcaron" unicode="&#x10e;" horiz-adv-x="712" 
d="M313 766l-125 127h109l68 -70l67 70h109l-124 -127h-104zM39 99v-99h462q140 0 140 140v420q0 140 -140 140h-462v-99h92v-502h-92zM251 110v480h232q21 0 29.5 -8.5t8.5 -28.5v-406q0 -20 -8.5 -28.5t-29.5 -8.5h-232z" />
    <glyph glyph-name="dcaron" unicode="&#x10f;" horiz-adv-x="730" 
d="M583 87v-87h-192v78q-16 -18 -32 -33t-36.5 -26t-47.5 -17t-66 -6q-84 0 -119 33t-35 106v270q0 73 35 106t119 33q39 0 66 -6t47.5 -17t36.5 -26t32 -33v181h-96v87h211v-643h77zM720 633q0 -14 -2 -25.5t-7 -22.5t-13.5 -23.5t-21.5 -28.5l-58 -71h-51l72 130h-58v138
h139v-97zM391 398q-18 10 -34.5 18.5t-35.5 13.5t-41.5 8t-51.5 3q-35 0 -46.5 -9t-11.5 -29v-266q0 -20 11.5 -29t46.5 -9q29 0 51.5 3t41.5 8t35.5 13t34.5 19v256z" />
    <glyph glyph-name="Dcroat" unicode="&#x110;" horiz-adv-x="712" 
d="M501 700q140 0 140 -140v-420q0 -140 -140 -140h-462v99h92v201h-78v118h78v183h-92v99h462zM521 553q0 20 -8.5 28.5t-29.5 8.5h-232v-172h78v-118h-78v-190h232q21 0 29.5 8.5t8.5 28.5v406z" />
    <glyph glyph-name="dcroat" unicode="&#x111;" horiz-adv-x="611" 
d="M583 0h-192v78q-16 -18 -32 -33t-36.5 -26t-47.5 -17t-66 -6q-84 0 -119 33t-35 106v270q0 73 35 106t119 33q39 0 66 -6t47.5 -17t36.5 -26t32 -33v92h-96v52h96v37h-96v87h211v-124h58v-52h-58v-467h77v-87zM391 398q-18 10 -34.5 18.5t-35.5 13.5t-41.5 8t-51.5 3
q-35 0 -46.5 -9t-11.5 -29v-266q0 -20 11.5 -29t46.5 -9q29 0 51.5 3t41.5 8t35.5 13t34.5 19v256z" />
    <glyph glyph-name="Emacron" unicode="&#x112;" horiz-adv-x="651" 
d="M209 773v94h269v-94h-269zM591 496h-107v101h-233v-187h261v-108h-261v-199h233v101h107v-204h-552v99h92v502h-92v99h552v-204z" />
    <glyph glyph-name="emacron" unicode="&#x113;" horiz-adv-x="541" 
d="M137 613v94h269v-94h-269zM170 133q0 -21 8.5 -29.5t29.5 -8.5h129q20 0 29 8.5t9 29.5v41h115v-42q0 -68 -32 -100t-100 -32h-171q-68 0 -100 32t-32 100v276q0 68 32 100t100 32h171q68 0 100 -32t32 -100v-169h-320v-106zM208 445q-21 0 -29.5 -8.5t-8.5 -29.5v-87
h205v87q0 21 -8.5 29.5t-29.5 8.5h-129z" />
    <glyph glyph-name="Edotaccent" unicode="&#x116;" horiz-adv-x="651" 
d="M288 766v117h113v-117h-113zM591 496h-107v101h-233v-187h261v-108h-261v-199h233v101h107v-204h-552v99h92v502h-92v99h552v-204z" />
    <glyph glyph-name="edotaccent" unicode="&#x117;" horiz-adv-x="541" 
d="M216 606v117h113v-117h-113zM170 133q0 -21 8.5 -29.5t29.5 -8.5h129q20 0 29 8.5t9 29.5v41h115v-42q0 -68 -32 -100t-100 -32h-171q-68 0 -100 32t-32 100v276q0 68 32 100t100 32h171q68 0 100 -32t32 -100v-169h-320v-106zM208 445q-21 0 -29.5 -8.5t-8.5 -29.5v-87
h205v87q0 21 -8.5 29.5t-29.5 8.5h-129z" />
    <glyph glyph-name="Eogonek" unicode="&#x118;" horiz-adv-x="651" 
d="M611 -173h-59q-51 0 -80.5 16.5t-29.5 58.5q0 19 6 34.5t15.5 27.5t20 21t19.5 15h-464v99h92v502h-92v99h552v-204h-107v101h-233v-187h261v-108h-261v-199h233v101h107v-204q-29 -18 -41.5 -33.5t-12.5 -31.5q0 -28 35 -28h39v-80z" />
    <glyph glyph-name="eogonek" unicode="&#x119;" horiz-adv-x="541" 
d="M170 133q0 -21 8.5 -29.5t29.5 -8.5h129q20 0 29 8.5t9 29.5v41h115v-42q0 -68 -32 -100t-100 -32h-3q-29 -18 -41.5 -33.5t-12.5 -31.5q0 -28 35 -28h39v-80h-59q-51 0 -80.5 16.5t-29.5 58.5q0 19 6 34.5t15.5 27.5t20 21t19.5 15h-80q-68 0 -100 32t-32 100v276
q0 68 32 100t100 32h171q68 0 100 -32t32 -100v-169h-320v-106zM208 445q-21 0 -29.5 -8.5t-8.5 -29.5v-87h205v87q0 21 -8.5 29.5t-29.5 8.5h-129z" />
    <glyph glyph-name="Ecaron" unicode="&#x11a;" horiz-adv-x="651" 
d="M168 893h109l68 -70l67 70h109l-124 -127h-104zM591 496h-107v101h-233v-187h261v-108h-261v-199h233v101h107v-204h-552v99h92v502h-92v99h552v-204z" />
    <glyph glyph-name="ecaron" unicode="&#x11b;" horiz-adv-x="541" 
d="M96 733h109l68 -70l67 70h109l-124 -127h-104zM170 133q0 -21 8.5 -29.5t29.5 -8.5h129q20 0 29 8.5t9 29.5v41h115v-42q0 -68 -32 -100t-100 -32h-171q-68 0 -100 32t-32 100v276q0 68 32 100t100 32h171q68 0 100 -32t32 -100v-169h-320v-106zM208 445
q-21 0 -29.5 -8.5t-8.5 -29.5v-87h205v87q0 21 -8.5 29.5t-29.5 8.5h-129z" />
    <glyph glyph-name="Gbreve" unicode="&#x11e;" horiz-adv-x="658" 
d="M450 841q0 -39 -18.5 -57t-56.5 -18h-75q-39 0 -57 18t-18 57v53h73v-45q0 -11 3.5 -14.5t14.5 -3.5h42q11 0 14.5 3.5t3.5 14.5v45h74v-53zM469 553q0 20 -8.5 28.5t-29.5 8.5h-203q-20 0 -28.5 -8.5t-8.5 -28.5v-406q0 -20 8.5 -28.5t28.5 -8.5h203q21 0 29.5 8.5
t8.5 28.5v128h-155v106h275v-241q0 -140 -140 -140h-238q-140 0 -140 140v420q0 140 140 140h238q140 0 140 -140v-83h-120v76z" />
    <glyph glyph-name="gbreve" unicode="&#x11f;" horiz-adv-x="611" 
d="M256 606q-39 0 -57 18t-18 57v53h73v-45q0 -11 3.5 -14.5t14.5 -3.5h42q11 0 14.5 3.5t3.5 14.5v45h74v-53q0 -39 -18.5 -57t-56.5 -18h-75zM506 453v-481q0 -68 -32 -100t-100 -32h-253v93h232q38 0 38 38v128q-16 -18 -32 -33.5t-36.5 -26t-47.5 -16.5t-66 -6
q-84 0 -119 33t-35 105v250q0 73 35 106t119 33q39 0 66 -6t47.5 -17t36.5 -26t32 -33v78h192v-87h-77zM391 398q-18 10 -34.5 18.5t-35.5 13.5t-41.5 8t-51.5 3q-35 0 -46.5 -9t-11.5 -29v-245q0 -20 11.5 -29t46.5 -9q29 0 51.5 2.5t41.5 8t35.5 13.5t34.5 19v235z" />
    <glyph glyph-name="Gdotaccent" unicode="&#x120;" horiz-adv-x="658" 
d="M280 766v117h113v-117h-113zM469 553q0 20 -8.5 28.5t-29.5 8.5h-203q-20 0 -28.5 -8.5t-8.5 -28.5v-406q0 -20 8.5 -28.5t28.5 -8.5h203q21 0 29.5 8.5t8.5 28.5v128h-155v106h275v-241q0 -140 -140 -140h-238q-140 0 -140 140v420q0 140 140 140h238q140 0 140 -140
v-83h-120v76z" />
    <glyph glyph-name="gdotaccent" unicode="&#x121;" horiz-adv-x="611" 
d="M236 606v117h113v-117h-113zM506 453v-481q0 -68 -32 -100t-100 -32h-253v93h232q38 0 38 38v128q-16 -18 -32 -33.5t-36.5 -26t-47.5 -16.5t-66 -6q-84 0 -119 33t-35 105v250q0 73 35 106t119 33q39 0 66 -6t47.5 -17t36.5 -26t32 -33v78h192v-87h-77zM391 398
q-18 10 -34.5 18.5t-35.5 13.5t-41.5 8t-51.5 3q-35 0 -46.5 -9t-11.5 -29v-245q0 -20 11.5 -29t46.5 -9q29 0 51.5 2.5t41.5 8t35.5 13.5t34.5 19v235z" />
    <glyph glyph-name="uni0122" unicode="&#x122;" horiz-adv-x="658" 
d="M469 553q0 20 -8.5 28.5t-29.5 8.5h-203q-20 0 -28.5 -8.5t-8.5 -28.5v-406q0 -20 8.5 -28.5t28.5 -8.5h203q21 0 29.5 8.5t8.5 28.5v128h-155v106h275v-241q0 -140 -140 -140h-238q-140 0 -140 140v420q0 140 140 140h238q140 0 140 -140v-83h-120v76zM394 -169
q0 -20 -14.5 -44.5t-29.5 -45.5l-49 -71h-52l71 130h-49v130h123v-99z" />
    <glyph glyph-name="uni0123" unicode="&#x123;" horiz-adv-x="611" 
d="M231 610v99q0 20 14.5 44.5t29.5 45.5l49 71h52l-71 -130h49v-130h-123zM506 453v-481q0 -68 -32 -100t-100 -32h-253v93h232q38 0 38 38v128q-16 -18 -32 -33.5t-36.5 -26t-47.5 -16.5t-66 -6q-84 0 -119 33t-35 105v250q0 73 35 106t119 33q39 0 66 -6t47.5 -17
t36.5 -26t32 -33v78h192v-87h-77zM391 398q-18 10 -34.5 18.5t-35.5 13.5t-41.5 8t-51.5 3q-35 0 -46.5 -9t-11.5 -29v-245q0 -20 11.5 -29t46.5 -9q29 0 51.5 2.5t41.5 8t35.5 13.5t34.5 19v235z" />
    <glyph glyph-name="Hbar" unicode="&#x126;" horiz-adv-x="785" 
d="M654 542h73v-60h-73v-383h92v-99h-303v99h91v206h-283v-206h91v-99h-303v99h92v383h-72v60h72v59h-92v99h303v-99h-91v-59h283v59h-91v99h303v-99h-92v-59zM251 482v-68h283v68h-283z" />
    <glyph glyph-name="hbar" unicode="&#x127;" horiz-adv-x="659" 
d="M629 0h-261v87h70v314q0 23 -10 32t-42 9q-27 0 -48.5 -3t-40 -8t-35 -13.5t-34.5 -18.5v-312h69v-87h-265v87h81v467h-65v52h65v37h-81v87h196v-124h85v-52h-85v-91q15 18 31 33t36 26t46.5 17t62.5 6q81 0 115 -32.5t34 -102.5v-323h76v-87z" />
    <glyph glyph-name="Imacron" unicode="&#x12a;" horiz-adv-x="401" 
d="M65 773v94h269v-94h-269zM261 99h97v-99h-315v99h98v502h-98v99h315v-99h-97v-502z" />
    <glyph glyph-name="imacron" unicode="&#x12b;" horiz-adv-x="353" 
d="M33 608v94h269v-94h-269zM316 0h-277v87h83v366h-83v87h198v-453h79v-87z" />
    <glyph glyph-name="Iogonek" unicode="&#x12e;" horiz-adv-x="401" 
d="M378 -173h-59q-51 0 -80.5 16.5t-29.5 58.5q0 19 6 34.5t15.5 27.5t20 21t19.5 15h-227v99h98v502h-98v99h315v-99h-97v-502h97v-99q-29 -18 -41.5 -33.5t-12.5 -31.5q0 -28 35 -28h39v-80z" />
    <glyph glyph-name="iogonek" unicode="&#x12f;" horiz-adv-x="353" 
d="M118 607v116h123v-116h-123zM336 -173h-59q-51 0 -80.5 16.5t-29.5 58.5q0 19 6 34.5t15.5 27.5t20 21t19.5 15h-189v87h83v366h-83v87h198v-453h79v-87q-29 -18 -41.5 -33.5t-12.5 -31.5q0 -28 35 -28h39v-80z" />
    <glyph glyph-name="Idotaccent" unicode="&#x130;" horiz-adv-x="401" 
d="M144 766v117h113v-117h-113zM261 99h97v-99h-315v99h98v502h-98v99h315v-99h-97v-502z" />
    <glyph glyph-name="IJ" unicode="&#x132;" horiz-adv-x="1012" 
d="M358 601h-97v-502h97v-99h-315v99h98v502h-98v99h315v-99zM890 601v-461q0 -140 -140 -140h-182q-140 0 -140 140v141h120v-134q0 -20 8.5 -28.5t28.5 -8.5h148q20 0 28.5 8.5t8.5 28.5v454h-106v99h313v-99h-87z" />
    <glyph glyph-name="ij" unicode="&#x133;" horiz-adv-x="625" 
d="M118 607v116h123v-116h-123zM564 607h-123v116h123v-116zM316 87v-87h-277v87h83v366h-83v87h198v-453h79zM560 -17q0 -32 -8 -53.5t-24.5 -36.5t-41.5 -24.5t-58 -16.5l-87 -18v78l69 33q16 8 25.5 16t9.5 25v467h-83v87h198v-557z" />
    <glyph glyph-name="uni0136" unicode="&#x136;" horiz-adv-x="744" 
d="M723 0h-167l-186 325l-117 -139v-87h98v-99h-309v99h92v502h-92v99h303v-99h-92v-269l215 269h-59v99h285v-99h-91l-154 -182l183 -320h91v-99zM467 -70v-99q0 -20 -14.5 -44.5t-29.5 -45.5l-49 -71h-52l71 130h-49v130h123z" />
    <glyph glyph-name="uni0137" unicode="&#x137;" horiz-adv-x="607" 
d="M596 0h-153l-127 243l-90 -104v-52h70v-87h-264v87h81v556h-81v87h194v-461l152 184h-52v87h247v-87h-73l-111 -127l128 -239h79v-87zM388 -70v-99q0 -20 -14.5 -44.5t-29.5 -45.5l-49 -71h-52l71 130h-49v130h123z" />
    <glyph glyph-name="Lacute" unicode="&#x139;" horiz-adv-x="625" 
d="M125 766l90 144h147l-142 -144h-95zM39 0v99h92v502h-92v99h320v-99h-108v-498h227v148h109v-251h-548z" />
    <glyph glyph-name="lacute" unicode="&#x13a;" horiz-adv-x="353" 
d="M110 796l90 144h147l-142 -144h-95zM316 87v-87h-277v87h83v556h-83v87h198v-643h79z" />
    <glyph glyph-name="uni013B" unicode="&#x13b;" horiz-adv-x="625" 
d="M39 0v99h92v502h-92v99h320v-99h-108v-498h227v148h109v-251h-548zM416 -169q0 -20 -14.5 -44.5t-29.5 -45.5l-49 -71h-52l71 130h-49v130h123v-99z" />
    <glyph glyph-name="uni013C" unicode="&#x13c;" horiz-adv-x="353" 
d="M316 0h-277v87h83v556h-83v87h198v-643h79v-87zM241 -70v-99q0 -20 -14.5 -44.5t-29.5 -45.5l-49 -71h-52l71 130h-49v130h123z" />
    <glyph glyph-name="Lcaron" unicode="&#x13d;" horiz-adv-x="625" 
d="M39 0v99h92v502h-92v99h320v-99h-108v-498h227v148h109v-251h-548zM569 603q0 -14 -2 -25.5t-7 -22.5t-13.5 -23.5t-21.5 -28.5l-58 -71h-51l72 130h-58v138h139v-97z" />
    <glyph glyph-name="lcaron" unicode="&#x13e;" horiz-adv-x="423" 
d="M316 87v-87h-277v87h83v556h-83v87h198v-643h79zM407 631q0 -20 -14.5 -44.5t-29.5 -45.5l-49 -71h-52l71 130h-49v130h123v-99z" />
    <glyph glyph-name="Ldot" unicode="&#x13f;" horiz-adv-x="625" 
d="M39 0v99h92v502h-92v99h320v-99h-108v-498h227v148h109v-251h-548zM339 343v138h139v-138h-139z" />
    <glyph glyph-name="ldot" unicode="&#x140;" horiz-adv-x="450" 
d="M316 87v-87h-277v87h83v556h-83v87h198v-643h79zM437 326h-123v130h123v-130z" />
    <glyph glyph-name="Lslash" unicode="&#x141;" horiz-adv-x="623" 
d="M586 0h-547v99h92v200l-65 -25v112l65 25v190h-92v99h319v-99h-107v-143l134 52v-111l-134 -53v-243h225v148h110v-251z" />
    <glyph glyph-name="lslash" unicode="&#x142;" horiz-adv-x="351" 
d="M233 87h78v-87h-277v87h84v230l-95 -39v111l95 39v215h-84v87h199v-255l95 39v-112l-95 -39v-276z" />
    <glyph glyph-name="Nacute" unicode="&#x143;" horiz-adv-x="789" 
d="M327 766l90 144h147l-142 -144h-95zM666 601v-601h-122l-299 522v-423h101v-99h-307v99h92v502h-92v99h224l289 -505v406h-101v99h303v-99h-88z" />
    <glyph glyph-name="nacute" unicode="&#x144;" horiz-adv-x="659" 
d="M267 606l90 144h147l-142 -144h-95zM629 0h-261v87h70v314q0 23 -10 32t-42 9q-27 0 -48.5 -3t-40 -8t-35 -13.5t-34.5 -18.5v-312h69v-87h-265v87h81v366h-81v87h196v-77q15 18 31 33t36 26t46.5 17t62.5 6q81 0 115 -32.5t34 -102.5v-323h76v-87z" />
    <glyph glyph-name="uni0145" unicode="&#x145;" horiz-adv-x="789" 
d="M666 601v-601h-122l-299 522v-423h101v-99h-307v99h92v502h-92v99h224l289 -505v406h-101v99h303v-99h-88zM463 -70v-99q0 -20 -14.5 -44.5t-29.5 -45.5l-49 -71h-52l71 130h-49v130h123z" />
    <glyph glyph-name="uni0146" unicode="&#x146;" horiz-adv-x="659" 
d="M629 0h-261v87h70v314q0 23 -10 32t-42 9q-27 0 -48.5 -3t-40 -8t-35 -13.5t-34.5 -18.5v-312h69v-87h-265v87h81v366h-81v87h196v-77q15 18 31 33t36 26t46.5 17t62.5 6q81 0 115 -32.5t34 -102.5v-323h76v-87zM392 -70v-99q0 -20 -14.5 -44.5t-29.5 -45.5l-49 -71h-52
l71 130h-49v130h123z" />
    <glyph glyph-name="Ncaron" unicode="&#x147;" horiz-adv-x="789" 
d="M219 893h109l68 -70l67 70h109l-124 -127h-104zM666 601v-601h-122l-299 522v-423h101v-99h-307v99h92v502h-92v99h224l289 -505v406h-101v99h303v-99h-88z" />
    <glyph glyph-name="ncaron" unicode="&#x148;" horiz-adv-x="659" 
d="M159 733h109l68 -70l67 70h109l-124 -127h-104zM629 0h-261v87h70v314q0 23 -10 32t-42 9q-27 0 -48.5 -3t-40 -8t-35 -13.5t-34.5 -18.5v-312h69v-87h-265v87h81v366h-81v87h196v-77q15 18 31 33t36 26t46.5 17t62.5 6q81 0 115 -32.5t34 -102.5v-323h76v-87z" />
    <glyph glyph-name="Eng" unicode="&#x14a;" horiz-adv-x="789" 
d="M666 601v-641q0 -69 -35.5 -104.5t-104.5 -35.5h-104v104h98q38 0 38 37v28l-314 533v-423h102v-99h-307v99h92v502h-92v99h223l292 -502v403h-103v99h303v-99h-88z" />
    <glyph glyph-name="eng" unicode="&#x14b;" horiz-adv-x="612" 
d="M404 545q81 0 115 -32.5t34 -102.5v-438q0 -67 -32 -99.5t-100 -32.5h-92v101h71q20 0 29 8.5t9 29.5v422q0 23 -10.5 32t-41.5 9q-28 0 -49.5 -3t-40 -8t-35 -13.5t-34.5 -18.5v-312h70v-87h-265v87h81v366h-81v87h195v-77q16 18 31.5 33t36 26t46.5 17t63 6z" />
    <glyph glyph-name="Omacron" unicode="&#x14c;" horiz-adv-x="665" 
d="M466 773h-269v94h269v-94zM211 0q-140 0 -140 140v420q0 140 140 140h242q140 0 140 -140v-420q0 -140 -140 -140h-242zM191 147q0 -20 8.5 -28.5t28.5 -8.5h208q20 0 28.5 8.5t8.5 28.5v406q0 20 -8.5 28.5t-28.5 8.5h-208q-20 0 -28.5 -8.5t-8.5 -28.5v-406z" />
    <glyph glyph-name="omacron" unicode="&#x14d;" horiz-adv-x="550" 
d="M409 613h-269v94h269v-94zM363 540q68 0 100 -32t32 -100v-276q0 -68 -32 -100t-100 -32h-176q-68 0 -100 32t-32 100v276q0 68 32 100t100 32h176zM380 401q0 21 -8.5 29.5t-29.5 8.5h-134q-20 0 -29 -8.5t-9 -29.5v-262q0 -21 9 -29.5t29 -8.5h134q21 0 29.5 8.5
t8.5 29.5v262z" />
    <glyph glyph-name="Ohungarumlaut" unicode="&#x150;" horiz-adv-x="665" 
d="M274 766h-113l115 145h113zM453 766h-113l115 145h113zM211 0q-140 0 -140 140v420q0 140 140 140h242q140 0 140 -140v-420q0 -140 -140 -140h-242zM191 147q0 -20 8.5 -28.5t28.5 -8.5h208q20 0 28.5 8.5t8.5 28.5v406q0 20 -8.5 28.5t-28.5 8.5h-208q-20 0 -28.5 -8.5
t-8.5 -28.5v-406z" />
    <glyph glyph-name="ohungarumlaut" unicode="&#x151;" horiz-adv-x="550" 
d="M217 606h-113l115 145h113zM396 606h-113l115 145h113zM363 540q68 0 100 -32t32 -100v-276q0 -68 -32 -100t-100 -32h-176q-68 0 -100 32t-32 100v276q0 68 32 100t100 32h176zM380 401q0 21 -8.5 29.5t-29.5 8.5h-134q-20 0 -29 -8.5t-9 -29.5v-262q0 -21 9 -29.5
t29 -8.5h134q21 0 29.5 8.5t8.5 29.5v262z" />
    <glyph glyph-name="OE" unicode="&#x152;" horiz-adv-x="994" 
d="M934 496h-107v101h-233v-187h261v-108h-261v-199h233v101h107v-204h-723q-140 0 -140 140v420q0 140 140 140h723v-204zM228 590q-20 0 -28.5 -8.5t-8.5 -28.5v-406q0 -20 8.5 -28.5t28.5 -8.5h245v480h-245z" />
    <glyph glyph-name="oe" unicode="&#x153;" horiz-adv-x="870" 
d="M497 133q0 -21 9 -29.5t29 -8.5h131q20 0 29 8.5t9 29.5v41h115v-42q0 -68 -32 -100t-100 -32h-172q-33 0 -50 8.5t-25 22.5q-8 -14 -25 -22.5t-50 -8.5h-178q-68 0 -100 32t-32 100v276q0 68 32 100t100 32h178q33 0 50 -8.5t25 -22.5q8 14 25 22.5t50 8.5h172
q68 0 100 -32t32 -100v-169h-322v-106zM705 407q0 21 -9 29.5t-29 8.5h-131q-20 0 -29 -8.5t-9 -29.5v-87h207v87zM383 401q0 21 -9 29.5t-29 8.5h-137q-20 0 -29 -8.5t-9 -29.5v-262q0 -21 9 -29.5t29 -8.5h137q20 0 29 8.5t9 29.5v262z" />
    <glyph glyph-name="Racute" unicode="&#x154;" horiz-adv-x="712" 
d="M291 766l90 144h147l-142 -144h-95zM693 0h-171l-137 279h-134v-180h103v-99h-315v99h92v502h-92v99h443q140 0 140 -140v-135q0 -125 -110 -138l90 -188h91v-99zM464 385q21 0 29.5 8.5t8.5 28.5v133q0 21 -8.5 29.5t-29.5 8.5h-213v-208h213z" />
    <glyph glyph-name="racute" unicode="&#x155;" horiz-adv-x="443" 
d="M171 606l90 144h147l-142 -144h-95zM418 431h-47q-44 0 -76.5 -11t-66.5 -31v-302h97v-87h-293v87h81v366h-81v87h196v-82q15 18 30.5 33t34 26t41.5 17t54 6h30v-109z" />
    <glyph glyph-name="uni0156" unicode="&#x156;" horiz-adv-x="712" 
d="M693 0h-171l-137 279h-134v-180h103v-99h-315v99h92v502h-92v99h443q140 0 140 -140v-135q0 -125 -110 -138l90 -188h91v-99zM464 385q21 0 29.5 8.5t8.5 28.5v133q0 21 -8.5 29.5t-29.5 8.5h-213v-208h213zM457 -70v-99q0 -20 -14.5 -44.5t-29.5 -45.5l-49 -71h-52
l71 130h-49v130h123z" />
    <glyph glyph-name="uni0157" unicode="&#x157;" horiz-adv-x="443" 
d="M418 431h-47q-44 0 -76.5 -11t-66.5 -31v-302h97v-87h-293v87h81v366h-81v87h196v-82q15 18 30.5 33t34 26t41.5 17t54 6h30v-109zM232 -70v-99q0 -20 -14.5 -44.5t-29.5 -45.5l-49 -71h-52l71 130h-49v130h123z" />
    <glyph glyph-name="Rcaron" unicode="&#x158;" horiz-adv-x="712" 
d="M183 893h109l68 -70l67 70h109l-124 -127h-104zM693 0h-171l-137 279h-134v-180h103v-99h-315v99h92v502h-92v99h443q140 0 140 -140v-135q0 -125 -110 -138l90 -188h91v-99zM464 385q21 0 29.5 8.5t8.5 28.5v133q0 21 -8.5 29.5t-29.5 8.5h-213v-208h213z" />
    <glyph glyph-name="rcaron" unicode="&#x159;" horiz-adv-x="443" 
d="M63 733h109l68 -70l67 70h109l-124 -127h-104zM418 431h-47q-44 0 -76.5 -11t-66.5 -31v-302h97v-87h-293v87h81v366h-81v87h196v-82q15 18 30.5 33t34 26t41.5 17t54 6h30v-109z" />
    <glyph glyph-name="Sacute" unicode="&#x15a;" horiz-adv-x="620" 
d="M242 766l90 144h147l-142 -144h-95zM434 555q0 21 -8.5 29.5t-29.5 8.5h-180q-20 0 -28.5 -8.5t-8.5 -29.5v-74q0 -24 10.5 -34.5t36.5 -15.5l192 -41q32 -7 58.5 -17t45.5 -26.5t29.5 -40.5t10.5 -60v-106q0 -140 -140 -140h-225q-140 0 -140 140v82h117v-77
q0 -21 8.5 -29.5t29.5 -8.5h193q20 0 28.5 8.5t8.5 29.5v84q0 24 -10.5 34t-35.5 15l-193 42q-32 7 -58.5 17t-45.5 26.5t-29.5 40.5t-10.5 60v96q0 140 140 140h212q140 0 140 -140v-75h-117v70z" />
    <glyph glyph-name="sacute" unicode="&#x15b;" horiz-adv-x="529" 
d="M197 606l90 144h147l-142 -144h-95zM354 409q0 21 -9 29.5t-29 8.5h-109q-20 0 -29 -10.5t-9 -44.5t9 -43.5t32 -13.5l152 -25q31 -5 53 -14t36.5 -25.5t21 -42.5t6.5 -65q0 -91 -32 -127t-100 -36h-166q-68 0 -100 32t-32 100v42h113v-43q0 -21 8.5 -29.5t29.5 -8.5h128
q20 0 29 11.5t9 50.5q0 19 -2 30.5t-7 18t-12.5 9.5t-19.5 5l-152 25q-31 5 -53 13.5t-36.5 24.5t-21 41t-6.5 62q0 86 32 121t100 35h147q68 0 100 -32t32 -100v-33h-113v34z" />
    <glyph glyph-name="Scedilla" unicode="&#x15e;" horiz-adv-x="620" 
d="M418 390q32 -7 58.5 -17t45.5 -26.5t29.5 -40.5t10.5 -60v-106q0 -140 -140 -140h-54v-67q0 -54 -22 -73.5t-70 -19.5h-69l-47 70h91q16 0 21 5.5t5 19.5v65h-80q-140 0 -140 140v82h117v-77q0 -21 8.5 -29.5t29.5 -8.5h193q20 0 28.5 8.5t8.5 29.5v84q0 24 -10.5 34
t-35.5 15l-193 42q-32 7 -58.5 17t-45.5 26.5t-29.5 40.5t-10.5 60v96q0 140 140 140h212q140 0 140 -140v-75h-117v70q0 21 -8.5 29.5t-29.5 8.5h-180q-20 0 -28.5 -8.5t-8.5 -29.5v-74q0 -24 10.5 -34.5t36.5 -15.5z" />
    <glyph glyph-name="scedilla" unicode="&#x15f;" horiz-adv-x="529" 
d="M362 310q31 -5 53 -14t36.5 -25.5t21 -42.5t6.5 -65q0 -91 -32 -127t-100 -36h-28v-67q0 -54 -22 -73.5t-70 -19.5h-69l-47 70h91q16 0 21 5.5t5 19.5v65h-47q-68 0 -100 32t-32 100v42h113v-43q0 -21 8.5 -29.5t29.5 -8.5h128q20 0 29 11.5t9 50.5q0 19 -2 30.5t-7 18
t-12.5 9.5t-19.5 5l-152 25q-31 5 -53 13.5t-36.5 24.5t-21 41t-6.5 62q0 86 32 121t100 35h147q68 0 100 -32t32 -100v-33h-113v34q0 21 -9 29.5t-29 8.5h-109q-20 0 -29 -10.5t-9 -44.5t9 -43.5t32 -13.5z" />
    <glyph glyph-name="Scaron" unicode="&#x160;" horiz-adv-x="620" 
d="M259 766l-125 127h109l68 -70l67 70h109l-124 -127h-104zM434 485h117v75q0 140 -140 140h-212q-140 0 -140 -140v-96q0 -36 10.5 -60t29.5 -40.5t45.5 -26.5t58.5 -17l193 -42q25 -5 35.5 -15t10.5 -34v-84q0 -21 -8.5 -29.5t-28.5 -8.5h-193q-21 0 -29.5 8.5t-8.5 29.5
v77h-117v-82q0 -140 140 -140h225q140 0 140 140v106q0 36 -10.5 60t-29.5 40.5t-45.5 26.5t-58.5 17l-192 41q-26 5 -36.5 15.5t-10.5 34.5v74q0 21 8.5 29.5t28.5 8.5h180q21 0 29.5 -8.5t8.5 -29.5v-70z" />
    <glyph glyph-name="scaron" unicode="&#x161;" horiz-adv-x="529" 
d="M214 606l-125 127h109l68 -70l67 70h109l-124 -127h-104zM354 375h113v33q0 68 -32 100t-100 32h-147q-68 0 -100 -35t-32 -121q0 -37 6.5 -62t21 -41t36.5 -24.5t53 -13.5l152 -25q12 -2 19.5 -5t12.5 -9.5t7 -18t2 -30.5q0 -39 -9 -50.5t-29 -11.5h-128
q-21 0 -29.5 8.5t-8.5 29.5v43h-113v-42q0 -68 32 -100t100 -32h166q68 0 100 36t32 127q0 39 -6.5 65t-21 42.5t-36.5 25.5t-53 14l-152 25q-23 4 -32 13.5t-9 43.5t9 44.5t29 10.5h109q20 0 29 -8.5t9 -29.5v-34z" />
    <glyph glyph-name="uni0162" unicode="&#x162;" horiz-adv-x="670" 
d="M635 469h-107v129h-133v-499h110v-99h-124v-67q0 -54 -22 -73.5t-70 -19.5h-69l-47 70h91q16 0 21 5.5t5 19.5v65h-126v99h111v499h-133v-129h-107v231h600v-231z" />
    <glyph glyph-name="uni0163" unicode="&#x163;" horiz-adv-x="394" 
d="M225 135q0 -21 8.5 -29.5t29.5 -8.5h84v-164q0 -54 -22 -73.5t-70 -19.5h-69l-47 70h91q16 0 21 5.5t5 19.5v65h-14q-68 0 -100 32t-32 100v313h-80v95h81v130h112v-130h124v-95h-122v-310z" />
    <glyph glyph-name="Tcaron" unicode="&#x164;" horiz-adv-x="670" 
d="M158 893h109l68 -70l67 70h109l-124 -127h-104zM635 469h-107v129h-133v-499h110v-99h-341v99h111v499h-133v-129h-107v231h600v-231z" />
    <glyph glyph-name="tcaron" unicode="&#x165;" horiz-adv-x="394" 
d="M416 748q0 -14 -2 -25.5t-7 -22.5t-13.5 -23.5t-21.5 -28.5l-58 -71h-51l72 130h-58v138h139v-97zM225 135q0 -21 8.5 -29.5t29.5 -8.5h84v-97h-105q-68 0 -100 32t-32 100v313h-80v95h81v130h112v-130h124v-95h-122v-310z" />
    <glyph glyph-name="Tbar" unicode="&#x166;" horiz-adv-x="670" 
d="M199 773v94h269v-94h-269zM635 469h-107v129h-133v-499h110v-99h-341v99h111v499h-133v-129h-107v231h600v-231z" />
    <glyph glyph-name="tbar" unicode="&#x167;" horiz-adv-x="394" 
d="M225 322h99v-94h-99v-93q0 -21 8.5 -29.5t29.5 -8.5h84v-97h-105q-68 0 -100 32t-32 100v96h-55v94h55v123h-80v95h81v130h112v-130h124v-95h-122v-123z" />
    <glyph glyph-name="Umacron" unicode="&#x16a;" horiz-adv-x="755" 
d="M242 773v94h269v-94h-269zM633 601v-461q0 -140 -140 -140h-231q-140 0 -140 140v461h-87v99h299v-99h-92v-454q0 -20 8.5 -28.5t28.5 -8.5h197q20 0 28.5 8.5t8.5 28.5v454h-92v99h299v-99h-87z" />
    <glyph glyph-name="umacron" unicode="&#x16b;" horiz-adv-x="650" 
d="M179 613v94h269v-94h-269zM621 0h-191v77q-15 -18 -31 -33t-36 -26t-46.5 -17t-62.5 -6q-81 0 -115 32.5t-34 102.5v323h-75v87h190v-398q0 -23 10 -32t42 -9q27 0 48.5 2.5t40 8t35 13.5t34.5 19v309h-91v87h206v-453h76v-87z" />
    <glyph glyph-name="Uring" unicode="&#x16e;" horiz-adv-x="755" 
d="M345 766q-32 0 -46 14t-14 46v53q0 32 14 46t46 14h65q32 0 46 -14t14 -46v-53q0 -32 -14 -46t-46 -14h-65zM343 829q0 -8 2 -10t9 -2h48q8 0 10 2t2 10v47q0 7 -2 9t-10 2h-48q-11 0 -11 -11v-47zM633 601v-461q0 -140 -140 -140h-231q-140 0 -140 140v461h-87v99h299
v-99h-92v-454q0 -20 8.5 -28.5t28.5 -8.5h197q20 0 28.5 8.5t8.5 28.5v454h-92v99h299v-99h-87z" />
    <glyph glyph-name="uring" unicode="&#x16f;" horiz-adv-x="650" 
d="M282 606q-32 0 -46 14t-14 46v53q0 32 14 46t46 14h65q32 0 46 -14t14 -46v-53q0 -32 -14 -46t-46 -14h-65zM280 669q0 -8 2 -10t9 -2h48q8 0 10 2t2 10v47q0 7 -2 9t-10 2h-48q-11 0 -11 -11v-47zM621 0h-191v77q-15 -18 -31 -33t-36 -26t-46.5 -17t-62.5 -6
q-81 0 -115 32.5t-34 102.5v323h-75v87h190v-398q0 -23 10 -32t42 -9q27 0 48.5 2.5t40 8t35 13.5t34.5 19v309h-91v87h206v-453h76v-87z" />
    <glyph glyph-name="Uhungarumlaut" unicode="&#x170;" horiz-adv-x="755" 
d="M206 766l115 145h113l-115 -145h-113zM500 911h113l-115 -145h-113zM633 601v-461q0 -140 -140 -140h-231q-140 0 -140 140v461h-87v99h299v-99h-92v-454q0 -20 8.5 -28.5t28.5 -8.5h197q20 0 28.5 8.5t8.5 28.5v454h-92v99h299v-99h-87z" />
    <glyph glyph-name="uhungarumlaut" unicode="&#x171;" horiz-adv-x="650" 
d="M143 606l115 145h113l-115 -145h-113zM437 751h113l-115 -145h-113zM621 0h-191v77q-15 -18 -31 -33t-36 -26t-46.5 -17t-62.5 -6q-81 0 -115 32.5t-34 102.5v323h-75v87h190v-398q0 -23 10 -32t42 -9q27 0 48.5 2.5t40 8t35 13.5t34.5 19v309h-91v87h206v-453h76v-87z
" />
    <glyph glyph-name="Uogonek" unicode="&#x172;" horiz-adv-x="755" 
d="M633 601v-461q0 -140 -140 -140h-61q-29 -18 -41.5 -33.5t-12.5 -31.5q0 -28 35 -28h39v-80h-59q-51 0 -80.5 16.5t-29.5 58.5q0 19 6 34.5t15.5 27.5t20 21t19.5 15h-82q-140 0 -140 140v461h-87v99h299v-99h-92v-454q0 -20 8.5 -28.5t28.5 -8.5h197q20 0 28.5 8.5
t8.5 28.5v454h-92v99h299v-99h-87z" />
    <glyph glyph-name="uogonek" unicode="&#x173;" horiz-adv-x="650" 
d="M641 -173h-59q-51 0 -80.5 16.5t-29.5 58.5q0 19 6 34.5t15.5 27.5t20 21t19.5 15h-103v77q-15 -18 -31 -33t-36 -26t-46.5 -17t-62.5 -6q-81 0 -115 32.5t-34 102.5v323h-75v87h190v-398q0 -23 10 -32t42 -9q27 0 48.5 2.5t40 8t35 13.5t34.5 19v309h-91v87h206v-453h76
v-87q-29 -18 -41.5 -33.5t-12.5 -31.5q0 -28 35 -28h39v-80z" />
    <glyph glyph-name="Wcircumflex" unicode="&#x174;" horiz-adv-x="1039" 
d="M345 766l125 127h104l126 -127h-111l-67 69l-67 -69h-110zM936 601l-155 -601h-127l-132 500l-132 -500h-132l-155 601h-82v99h291v-99h-86l100 -446l144 545h104l144 -545l100 446h-86v99h286v-99h-82z" />
    <glyph glyph-name="wcircumflex" unicode="&#x175;" horiz-adv-x="846" 
d="M250 606l125 127h104l126 -127h-111l-67 69l-67 -69h-110zM772 453l-122 -453h-122l-101 404l-102 -404h-122l-128 453h-59v87h233v-87h-58l72 -331l107 418h113l107 -418l72 331h-59v87h227v-87h-58z" />
    <glyph glyph-name="Ycircumflex" unicode="&#x176;" horiz-adv-x="721" 
d="M185 766l125 127h104l126 -127h-111l-67 69l-67 -69h-110zM421 99h98v-99h-317v99h99v144l-199 358h-81v99h273v-99h-62l130 -241l130 241h-63v99h271v-99h-81l-198 -358v-144z" />
    <glyph glyph-name="ycircumflex" unicode="&#x177;" horiz-adv-x="594" 
d="M122 606l125 127h104l126 -127h-111l-67 69l-67 -69h-110zM325 -71h59v-89h-254v89h82l24 71l-161 453h-59v87h233v-87h-56l102 -336l110 336h-56v87h229v-87h-59z" />
    <glyph glyph-name="Ydieresis" unicode="&#x178;" horiz-adv-x="721" 
d="M210 766v119h113v-119h-113zM401 766v119h113v-119h-113zM421 99h98v-99h-317v99h99v144l-199 358h-81v99h273v-99h-62l130 -241l130 241h-63v99h271v-99h-81l-198 -358v-144z" />
    <glyph glyph-name="Zacute" unicode="&#x179;" horiz-adv-x="635" 
d="M260 766l90 144h147l-142 -144h-95zM578 0h-521v90l369 503h-253v-117h-105v224h506v-90l-369 -503h268v117h105v-224z" />
    <glyph glyph-name="zacute" unicode="&#x17a;" horiz-adv-x="534" 
d="M209 606l90 144h147l-142 -144h-95zM489 0h-444v78l295 371h-172v-86h-107v177h422v-78l-295 -371h194v86h107v-177z" />
    <glyph glyph-name="Zdotaccent" unicode="&#x17b;" horiz-adv-x="635" 
d="M272 766v117h113v-117h-113zM578 0h-521v90l369 503h-253v-117h-105v224h506v-90l-369 -503h268v117h105v-224z" />
    <glyph glyph-name="zdotaccent" unicode="&#x17c;" horiz-adv-x="534" 
d="M221 606v117h113v-117h-113zM489 0h-444v78l295 371h-172v-86h-107v177h422v-78l-295 -371h194v86h107v-177z" />
    <glyph glyph-name="Zcaron" unicode="&#x17d;" horiz-adv-x="635" 
d="M152 893h109l68 -70l67 70h109l-124 -127h-104zM578 0h-521v90l369 503h-253v-117h-105v224h506v-90l-369 -503h268v117h105v-224z" />
    <glyph glyph-name="zcaron" unicode="&#x17e;" horiz-adv-x="534" 
d="M101 733h109l68 -70l67 70h109l-124 -127h-104zM489 0h-444v78l295 371h-172v-86h-107v177h422v-78l-295 -371h194v86h107v-177z" />
    <glyph glyph-name="florin" unicode="&#x192;" horiz-adv-x="469" 
d="M318 590q-21 0 -29.5 -8.5t-8.5 -28.5v-111h133v-105h-133v-197q0 -140 -140 -140h-94v110h77q20 0 28.5 8.5t8.5 28.5v190h-107v105h107v118q0 140 140 140h123v-110h-105z" />
    <glyph glyph-name="circumflex" unicode="&#x2c6;" horiz-adv-x="684" 
d="M275 766h-110l125 127h104l126 -127h-111l-67 69z" />
    <glyph glyph-name="caron" unicode="&#x2c7;" horiz-adv-x="684" 
d="M290 766l-125 127h109l68 -70l67 70h109l-124 -127h-104z" />
    <glyph glyph-name="breve" unicode="&#x2d8;" horiz-adv-x="642" 
d="M434 841q0 -39 -18.5 -57t-56.5 -18h-75q-39 0 -57 18t-18 57v53h73v-45q0 -11 3.5 -14.5t14.5 -3.5h42q11 0 14.5 3.5t3.5 14.5v45h74v-53z" />
    <glyph glyph-name="dotaccent" unicode="&#x2d9;" horiz-adv-x="472" 
d="M179 766v117h113v-117h-113z" />
    <glyph glyph-name="ring" unicode="&#x2da;" horiz-adv-x="368" 
d="M151 766q-32 0 -46 14t-14 46v53q0 32 14 46t46 14h65q32 0 46 -14t14 -46v-53q0 -32 -14 -46t-46 -14h-65zM160 887q-11 0 -11 -11v-47q0 -8 2 -10t9 -2h48q8 0 10 2t2 10v47q0 7 -2 9t-10 2h-48z" />
    <glyph glyph-name="ogonek" unicode="&#x2db;" horiz-adv-x="410" 
d="M215 -65q0 -28 35 -28h39v-80h-59q-51 0 -80.5 16.5t-29.5 58.5q0 19 6 34.5t15.5 27.5t20 21t19.5 15h88q-29 -18 -41.5 -33.5t-12.5 -31.5z" />
    <glyph glyph-name="tilde" unicode="&#x2dc;" horiz-adv-x="653" 
d="M232 768h-66v22q0 54 24 79t59 25q24 0 43 -8t35.5 -18t32 -18t32.5 -8q11 0 18 5.5t7 19.5v20h68v-22q0 -54 -22.5 -79t-57.5 -25q-23 0 -42.5 8t-37 18t-34 18t-33.5 8q-11 0 -18.5 -5t-7.5 -20v-20z" />
    <glyph glyph-name="hungarumlaut" unicode="&#x2dd;" horiz-adv-x="774" 
d="M296 766h-113l115 145h113zM475 766h-113l115 145h113z" />
    <glyph glyph-name="uni0326" unicode="&#x326;" horiz-adv-x="0" 
d="M254 -169q0 -20 -14.5 -44.5t-29.5 -45.5l-49 -71h-52l71 130h-49v130h123v-99z" />
    <glyph glyph-name="Wgrave" unicode="&#x1e80;" horiz-adv-x="1039" 
d="M354 910h147l90 -144h-95zM936 601l-155 -601h-127l-132 500l-132 -500h-132l-155 601h-82v99h291v-99h-86l100 -446l144 545h104l144 -545l100 446h-86v99h286v-99h-82z" />
    <glyph glyph-name="wgrave" unicode="&#x1e81;" horiz-adv-x="846" 
d="M259 750h147l90 -144h-95zM772 453l-122 -453h-122l-101 404l-102 -404h-122l-128 453h-59v87h233v-87h-58l72 -331l107 418h113l107 -418l72 331h-59v87h227v-87h-58z" />
    <glyph glyph-name="Wacute" unicode="&#x1e82;" horiz-adv-x="1039" 
d="M453 766l90 144h147l-142 -144h-95zM936 601l-155 -601h-127l-132 500l-132 -500h-132l-155 601h-82v99h291v-99h-86l100 -446l144 545h104l144 -545l100 446h-86v99h286v-99h-82z" />
    <glyph glyph-name="wacute" unicode="&#x1e83;" horiz-adv-x="846" 
d="M358 606l90 144h147l-142 -144h-95zM772 453l-122 -453h-122l-101 404l-102 -404h-122l-128 453h-59v87h233v-87h-58l72 -331l107 418h113l107 -418l72 331h-59v87h227v-87h-58z" />
    <glyph glyph-name="Wdieresis" unicode="&#x1e84;" horiz-adv-x="1039" 
d="M370 766v119h113v-119h-113zM561 766v119h113v-119h-113zM936 601l-155 -601h-127l-132 500l-132 -500h-132l-155 601h-82v99h291v-99h-86l100 -446l144 545h104l144 -545l100 446h-86v99h286v-99h-82z" />
    <glyph glyph-name="wdieresis" unicode="&#x1e85;" horiz-adv-x="846" 
d="M275 606v119h113v-119h-113zM466 606v119h113v-119h-113zM772 453l-122 -453h-122l-101 404l-102 -404h-122l-128 453h-59v87h233v-87h-58l72 -331l107 418h113l107 -418l72 331h-59v87h227v-87h-58z" />
    <glyph glyph-name="Ygrave" unicode="&#x1ef2;" horiz-adv-x="721" 
d="M194 910h147l90 -144h-95zM421 99h98v-99h-317v99h99v144l-199 358h-81v99h273v-99h-62l130 -241l130 241h-63v99h271v-99h-81l-198 -358v-144z" />
    <glyph glyph-name="ygrave" unicode="&#x1ef3;" horiz-adv-x="594" 
d="M131 750h147l90 -144h-95zM325 -71h59v-89h-254v89h82l24 71l-161 453h-59v87h233v-87h-56l102 -336l110 336h-56v87h229v-87h-59z" />
    <glyph glyph-name="endash" unicode="&#x2013;" horiz-adv-x="585" 
d="M517 275h-450v108h450v-108z" />
    <glyph glyph-name="emdash" unicode="&#x2014;" horiz-adv-x="829" 
d="M762 276h-695v107h695v-107z" />
    <glyph glyph-name="quoteleft" unicode="&#x2018;" horiz-adv-x="265" 
d="M63 528q0 14 2 25.5t7 22.5t13.5 23.5t21.5 29.5l58 71h51l-72 -130h58v-138h-139v96z" />
    <glyph glyph-name="quoteright" unicode="&#x2019;" horiz-adv-x="265" 
d="M202 603q0 -14 -2 -25.5t-7 -22.5t-13.5 -23.5t-21.5 -28.5l-58 -71h-51l72 130h-58v138h139v-97z" />
    <glyph glyph-name="quotesinglbase" unicode="&#x201a;" horiz-adv-x="265" 
d="M202 41q0 -14 -2 -25.5t-7 -22.5t-13.5 -23.5t-21.5 -28.5l-58 -71h-51l72 130h-58v138h139v-97z" />
    <glyph glyph-name="quotedblleft" unicode="&#x201c;" horiz-adv-x="453" 
d="M63 528q0 14 2 25.5t7 22.5t13.5 23.5t21.5 29.5l58 71h51l-72 -130h58v-138h-139v96zM251 528q0 14 2 25.5t7 22.5t13.5 23.5t21.5 29.5l58 71h51l-72 -130h58v-138h-139v96z" />
    <glyph glyph-name="quotedblright" unicode="&#x201d;" horiz-adv-x="453" 
d="M202 603q0 -14 -2 -25.5t-7 -22.5t-13.5 -23.5t-21.5 -28.5l-58 -71h-51l72 130h-58v138h139v-97zM389 603q0 -14 -2 -25.5t-7 -22.5t-13.5 -23.5t-21.5 -28.5l-58 -71h-51l72 130h-58v138h139v-97z" />
    <glyph glyph-name="quotedblbase" unicode="&#x201e;" horiz-adv-x="453" 
d="M202 41q0 -14 -2 -25.5t-7 -22.5t-13.5 -23.5t-21.5 -28.5l-58 -71h-51l72 130h-58v138h139v-97zM389 41q0 -14 -2 -25.5t-7 -22.5t-13.5 -23.5t-21.5 -28.5l-58 -71h-51l72 130h-58v138h139v-97z" />
    <glyph glyph-name="dagger" unicode="&#x2020;" horiz-adv-x="398" 
d="M252 440v-440h-106v440h-107v100h107v160h106v-160h108v-100h-108z" />
    <glyph glyph-name="daggerdbl" unicode="&#x2021;" horiz-adv-x="398" 
d="M252 280h108v-100h-108v-180h-106v180h-107v100h107v160h-107v100h107v160h106v-160h108v-100h-108v-160z" />
    <glyph glyph-name="bullet" unicode="&#x2022;" horiz-adv-x="452" 
d="M226 257q-59 0 -82 23t-23 82q0 30 5.5 50t18 32t32.5 17.5t49 5.5q59 0 82.5 -23t23.5 -82t-23.5 -82t-82.5 -23z" />
    <glyph glyph-name="ellipsis" unicode="&#x2026;" horiz-adv-x="699" 
d="M63 0v138h139v-138h-139zM280 0v138h139v-138h-139zM497 0v138h139v-138h-139z" />
    <glyph glyph-name="perthousand" unicode="&#x2030;" horiz-adv-x="916" 
d="M208 700q38 0 54.5 -16.5t16.5 -54.5v-134q0 -38 -16.5 -54.5t-54.5 -16.5h-82q-38 0 -54.5 16.5t-16.5 54.5v134q0 38 16.5 54.5t54.5 16.5h82zM201 0h-97l343 700h97zM212 618q0 12 -4 16t-16 4h-50q-12 0 -16 -4t-4 -16v-112q0 -12 4 -16t16 -4h50q12 0 16 4t4 16v112
zM523 276q38 0 54.5 -16.5t16.5 -54.5v-134q0 -38 -16.5 -54.5t-54.5 -16.5h-82q-38 0 -54.5 16.5t-16.5 54.5v134q0 38 16.5 54.5t54.5 16.5h82zM790 276q38 0 54.5 -16.5t16.5 -54.5v-134q0 -38 -16.5 -54.5t-54.5 -16.5h-82q-38 0 -54.5 16.5t-16.5 54.5v134
q0 38 16.5 54.5t54.5 16.5h82zM526 194q0 12 -4 16t-16 4h-50q-12 0 -16 -4t-4 -16v-112q0 -12 4 -16t16 -4h50q12 0 16 4t4 16v112zM793 194q0 12 -4 16t-16 4h-50q-12 0 -16 -4t-4 -16v-112q0 -12 4 -16t16 -4h50q12 0 16 4t4 16v112z" />
    <glyph glyph-name="guilsinglleft" unicode="&#x2039;" horiz-adv-x="319" 
d="M134 301l145 -207h-120l-128 183v48l128 184h120z" />
    <glyph glyph-name="guilsinglright" unicode="&#x203a;" horiz-adv-x="319" 
d="M287 277l-128 -183h-120l145 207l-145 208h120l128 -184v-48z" />
    <glyph glyph-name="fraction" unicode="&#x2044;" horiz-adv-x="212" 
d="M-52 0h-86l402 700h86z" />
    <glyph glyph-name="uni2070" unicode="&#x2070;" horiz-adv-x="394" 
d="M139 426q-48 0 -69 21t-21 69v204q0 48 21 69t69 21h117q48 0 69 -21t21 -69v-204q0 -48 -21 -69t-69 -21h-117zM131 525q0 -13 4 -17t17 -4h90q13 0 16.5 4t3.5 17v186q0 13 -3.5 17t-16.5 4h-90q-13 0 -17 -4t-4 -17v-186z" />
    <glyph glyph-name="uni2074" unicode="&#x2074;" horiz-adv-x="418" 
d="M324 494h58v-68h-218v68h79v40h-193l-17 48l220 228h71v-210h59v-66h-59v-40zM243 703l-103 -103h103v103z" />
    <glyph glyph-name="uni2075" unicode="&#x2075;" horiz-adv-x="383" 
d="M133 732v-96q9 10 19 17.5t23 13t31 8.5t43 3q48 0 69 -21t21 -69v-72q0 -48 -21 -69t-69 -21h-114q-48 0 -69 21t-21 69v27h83v-18q0 -13 3.5 -17t16.5 -4h89q13 0 16.5 4t3.5 17v59q0 13 -3.5 17t-16.5 4q-44 0 -66 -5t-38 -12l-83 24v198h278v-78h-195z" />
    <glyph glyph-name="uni2076" unicode="&#x2076;" horiz-adv-x="390" 
d="M256 711q0 13 -3.5 17t-16.5 4h-84q-13 0 -16.5 -4t-3.5 -17v-86q9 10 19 18t23.5 13.5t32.5 8.5t46 3q48 0 69 -21t21 -69v-62q0 -48 -21 -69t-69 -21h-114q-48 0 -69 21t-21 69v204q0 48 21 69t69 21h110q48 0 69 -21t21 -69v-22h-83v13zM131 525q0 -13 4 -17t17 -4h88
q13 0 17 4t4 17v52q0 13 -4 16.5t-17 3.5q-47 0 -70 -4.5t-39 -11.5v-56z" />
    <glyph glyph-name="uni2077" unicode="&#x2077;" horiz-adv-x="361" 
d="M328 747l-170 -321h-91l165 306h-128v-67h-75v145h299v-63z" />
    <glyph glyph-name="uni2078" unicode="&#x2078;" horiz-adv-x="387" 
d="M337 702q0 -35 -8.5 -52.5t-28.5 -27.5q22 -9 32 -27t10 -56q0 -32 -5 -54t-16 -35t-28 -18.5t-41 -5.5h-116q-48 0 -69 24t-21 89q0 38 10 56t31 27q-20 10 -28 27.5t-8 52.5q0 61 21 84.5t69 23.5h106q48 0 69 -23t21 -85zM153 734q-13 0 -17 -6t-4 -32t4 -32t17 -6h80
q13 0 17 6t4 32t-4 32t-17 6h-80zM149 586q-13 0 -17 -6.5t-4 -35.5t4 -35.5t17 -6.5h89q13 0 17 6.5t4 35.5t-4 35.5t-17 6.5h-89z" />
    <glyph glyph-name="uni2079" unicode="&#x2079;" horiz-adv-x="390" 
d="M134 525q0 -13 4 -17t17 -4h83q13 0 17 4t4 17v86q-9 -10 -19.5 -18t-24 -13.5t-32.5 -8.5t-46 -3q-48 0 -69 21t-21 69v62q0 48 21 69t69 21h114q48 0 69 -21t21 -69v-204q0 -48 -21 -69t-69 -21h-110q-48 0 -69 21t-21 69v22h83v-13zM259 711q0 13 -4 17t-17 4h-88
q-13 0 -17 -4t-4 -17v-52q0 -13 4 -16.5t17 -3.5q24 0 40.5 1t29 3.5t22 5.5t17.5 6v56z" />
    <glyph glyph-name="Euro" unicode="&#x20ac;" horiz-adv-x="686" 
d="M505 553q0 20 -8.5 28.5t-28.5 8.5h-190q-20 0 -28.5 -8.5t-8.5 -28.5v-93h203v-68h-203v-81h203v-69h-203v-95q0 -20 8.5 -28.5t28.5 -8.5h190q20 0 28.5 8.5t8.5 28.5v94h120v-101q0 -140 -140 -140h-224q-140 0 -140 140v102h-80v69h80v81h-80v68h80v100
q0 140 140 140h224q140 0 140 -140v-101h-120v94z" />
    <glyph glyph-name="trademark" unicode="&#x2122;" horiz-adv-x="831" 
d="M334 572h-58v68h-60v-247h50v-53h-165v53h50v247h-59v-68h-58v128h300v-128zM754 393h43v-53h-148v53h44v188l-85 -190h-44l-85 190v-188h43v-53h-148v53h44v254h-45v53h116l97 -220l97 220h114v-53h-43v-254z" />
    <glyph glyph-name="oneeighth" unicode="&#x215b;" horiz-adv-x="900" 
d="M27 385h83v231l-82 -24v68l99 41h65v-316h83v-68h-248v68zM249 0h-86l402 700h86zM813 196q22 -9 32 -27t10 -56q0 -32 -5 -54t-16 -35t-28 -18.5t-41 -5.5h-116q-48 0 -69 24t-21 89q0 38 10 56t31 27q-20 10 -28 27.5t-8 52.5q0 61 21 84.5t69 23.5h106q48 0 69 -23
t21 -85q0 -35 -8.5 -52.5t-28.5 -27.5zM666 308q-13 0 -17 -6t-4 -32t4 -32t17 -6h80q13 0 17 6t4 32t-4 32t-17 6h-80zM751 76q13 0 17 6.5t4 35.5t-4 35.5t-17 6.5h-89q-13 0 -17 -6.5t-4 -35.5t4 -35.5t17 -6.5h89z" />
    <glyph glyph-name="threeeighths" unicode="&#x215c;" horiz-adv-x="975" 
d="M122 433q0 -28 3.5 -34.5t16.5 -6.5h86q13 0 17 6.5t4 35.5t-4 35.5t-17 6.5h-89v72h85q13 0 16.5 6t3.5 32t-3.5 32t-16.5 6h-78q-13 0 -16.5 -6t-3.5 -32v-5h-82v9q0 62 21.5 86t68.5 24h102q48 0 69 -23.5t21 -86.5q0 -36 -8.5 -52t-28.5 -26q22 -9 32 -26.5t10 -57.5
q0 -64 -21 -88t-69 -24h-112q-24 0 -41 5.5t-28 18.5t-16 34.5t-5 53.5v7h83v-2zM324 0h-86l402 700h86zM925 276q0 -35 -8.5 -52.5t-28.5 -27.5q22 -9 32 -27t10 -56q0 -32 -5 -54t-16 -35t-28 -18.5t-41 -5.5h-116q-48 0 -69 24t-21 89q0 38 10 56t31 27q-20 10 -28 27.5
t-8 52.5q0 61 21 84.5t69 23.5h106q48 0 69 -23t21 -85zM741 308q-13 0 -17 -6t-4 -32t4 -32t17 -6h80q13 0 17 6t4 32t-4 32t-17 6h-80zM737 160q-13 0 -17 -6.5t-4 -35.5t4 -35.5t17 -6.5h89q13 0 17 6.5t4 35.5t-4 35.5t-17 6.5h-89z" />
    <glyph glyph-name="fiveeighths" unicode="&#x215d;" horiz-adv-x="982" 
d="M133 622v-96q9 10 19 17.5t23 13t31 8.5t43 3q48 0 69 -21t21 -69v-72q0 -48 -21 -69t-69 -21h-114q-48 0 -69 21t-21 69v27h83v-18q0 -13 3.5 -17t16.5 -4h89q13 0 16.5 4t3.5 17v59q0 13 -3.5 17t-16.5 4q-44 0 -66 -5t-38 -12l-83 24v198h278v-78h-195zM331 0h-86
l402 700h86zM932 276q0 -35 -8.5 -52.5t-28.5 -27.5q22 -9 32 -27t10 -56q0 -32 -5 -54t-16 -35t-28 -18.5t-41 -5.5h-116q-48 0 -69 24t-21 89q0 38 10 56t31 27q-20 10 -28 27.5t-8 52.5q0 61 21 84.5t69 23.5h106q48 0 69 -23t21 -85zM748 308q-13 0 -17 -6t-4 -32t4 -32
t17 -6h80q13 0 17 6t4 32t-4 32t-17 6h-80zM744 160q-13 0 -17 -6.5t-4 -35.5t4 -35.5t17 -6.5h89q13 0 17 6.5t4 35.5t-4 35.5t-17 6.5h-89z" />
    <glyph glyph-name="seveneighths" unicode="&#x215e;" horiz-adv-x="880" 
d="M104 622v-67h-75v145h299v-63l-170 -321h-91l165 306h-128zM229 0h-86l402 700h86zM793 196q22 -9 32 -27t10 -56q0 -32 -5 -54t-16 -35t-28 -18.5t-41 -5.5h-116q-48 0 -69 24t-21 89q0 38 10 56t31 27q-20 10 -28 27.5t-8 52.5q0 61 21 84.5t69 23.5h106q48 0 69 -23
t21 -85q0 -35 -8.5 -52.5t-28.5 -27.5zM646 308q-13 0 -17 -6t-4 -32t4 -32t17 -6h80q13 0 17 6t4 32t-4 32t-17 6h-80zM731 76q13 0 17 6.5t4 35.5t-4 35.5t-17 6.5h-89q-13 0 -17 -6.5t-4 -35.5t4 -35.5t17 -6.5h89z" />
    <glyph glyph-name="minus" unicode="&#x2212;" horiz-adv-x="532" 
d="M460 422v-110h-389v110h389z" />
    <glyph glyph-name="infinity" unicode="&#x221e;" horiz-adv-x="856" 
d="M642 560q140 0 140 -140v-114q0 -140 -140 -140h-90q-34 0 -56.5 7.5t-36 18t-20.5 23t-11 23.5q-3 -11 -10 -23.5t-21 -23t-36 -18t-56 -7.5h-90q-140 0 -140 140v114q0 140 140 140h90q34 0 56 -7.5t36 -18t21 -23.5t10 -23q4 10 11 23t20.5 23.5t36 18t56.5 7.5h90z
M320 273q20 0 28.5 8.5t8.5 28.5v106q0 20 -8.5 28.5t-28.5 8.5h-106q-20 0 -28.5 -8.5t-8.5 -28.5v-106q0 -20 8.5 -28.5t28.5 -8.5h106zM679 416q0 20 -8.5 28.5t-28.5 8.5h-106q-20 0 -28.5 -8.5t-8.5 -28.5v-106q0 -20 8.5 -28.5t28.5 -8.5h106q20 0 28.5 8.5t8.5 28.5
v106z" />
    <glyph glyph-name="notequal" unicode="&#x2260;" horiz-adv-x="532" 
d="M292 328h168v-109h-213l-45 -108h-84l45 108h-92v109h137l35 85h-172v109h217l42 101h84l-42 -101h88v-109h-133z" />
    <glyph glyph-name="uniFB01" unicode="&#xfb01;" horiz-adv-x="731" 
d="M120 598q0 68 32 100t100 32h108v-89h-88q-21 0 -29.5 -9t-8.5 -29v-63h117v-95h-117v-358h98v-87h-303v87h90v358h-87v95h88v58zM496 607v116h123v-116h-123zM694 0h-277v87h83v366h-83v87h198v-453h79v-87z" />
    <glyph glyph-name="uniFB02" unicode="&#xfb02;" horiz-adv-x="731" 
d="M120 598q0 68 32 100t100 32h108v-89h-88q-21 0 -29.5 -9t-8.5 -29v-63h117v-95h-117v-358h98v-87h-303v87h90v358h-87v95h88v58zM694 0h-277v87h83v556h-83v87h198v-643h79v-87z" />
    <glyph glyph-name="glyph113" horiz-adv-x="688" 
d="M566 362q38 -14 55 -41.5t17 -65.5v-115q0 -140 -140 -140h-455v99h92v502h-92v99h447q140 0 140 -140v-91q0 -75 -64 -107zM473 414q20 0 28.5 8.5t8.5 29.5v102q0 20 -8.5 28.5t-28.5 8.5h-218v-177h218zM518 273q0 20 -8.5 28.5t-28.5 8.5h-226v-201h226
q20 0 28.5 8.5t8.5 28.5v127z" />
    <glyph glyph-name="glyph114" horiz-adv-x="745" 
d="M725 0h-183l-221 304h-66v-205h97v-99h-309v99h92v502h-92v99h303v-99h-91v-189h69l142 189h-48v99h275v-99h-90l-183 -243l191 -259h114v-99z" />
    <glyph glyph-name="glyph115" horiz-adv-x="745" 
d="M725 0h-183l-221 304h-66v-205h97v-99h-309v99h92v502h-92v99h303v-99h-91v-189h69l142 189h-48v99h275v-99h-90l-183 -243l191 -259h114v-99zM466 -70v-99q0 -20 -14.5 -44.5t-29.5 -45.5l-49 -71h-52l71 130h-49v130h123z" />
    <glyph glyph-name="glyph228" horiz-adv-x="603" 
d="M586 0h-144l-166 229h-50v-142h70v-87h-264v87h81v556h-81v87h194v-403h51l96 126h-41v87h236v-87h-69l-133 -175l142 -191h78v-87z" />
    <glyph glyph-name="glyph229" horiz-adv-x="603" 
d="M586 0h-144l-166 229h-50v-142h70v-87h-264v87h81v556h-81v87h194v-403h51l96 126h-41v87h236v-87h-69l-133 -175l142 -191h78v-87zM389 -70v-99q0 -20 -14.5 -44.5t-29.5 -45.5l-49 -71h-52l71 130h-49v130h123z" />
    <glyph glyph-name="glyph244" horiz-adv-x="601" 
d="M171 146q0 -20 8.5 -28.5t28.5 -8.5h180q21 0 29.5 8.5t8.5 28.5v122q0 20 -8.5 28.5t-29.5 8.5h-173v107h165q21 0 29.5 8.5t8.5 29.5v104q0 20 -8.5 28.5t-29.5 8.5h-164q-20 0 -28.5 -8.5t-8.5 -28.5v-64h-120v70q0 140 140 140h199q140 0 140 -140v-94
q0 -40 -16 -65.5t-48 -41.5q72 -29 72 -108v-111q0 -140 -140 -140h-215q-140 0 -140 140v70h120v-64z" />
    <glyph glyph-name="glyph245" horiz-adv-x="619" 
d="M491 359q38 -15 55 -41.5t17 -66.5v-111q0 -140 -140 -140h-228q-140 0 -140 140v111q0 40 17 66.5t55 41.5q-33 16 -48.5 41.5t-15.5 65.5v94q0 140 140 140h212q140 0 140 -140v-94q0 -40 -15.5 -65.5t-48.5 -41.5zM183 450q0 -21 8.5 -29.5t28.5 -8.5h178
q20 0 28.5 8.5t8.5 29.5v104q0 20 -8.5 28.5t-28.5 8.5h-178q-20 0 -28.5 -8.5t-8.5 -28.5v-104zM443 268q0 20 -8.5 28.5t-28.5 8.5h-194q-20 0 -28.5 -8.5t-8.5 -28.5v-122q0 -20 8.5 -28.5t28.5 -8.5h194q20 0 28.5 8.5t8.5 28.5v122z" />
    <glyph glyph-name="glyph246" horiz-adv-x="394" 
d="M139 -114q-48 0 -69 21t-21 69v204q0 48 21 69t69 21h117q48 0 69 -21t21 -69v-204q0 -48 -21 -69t-69 -21h-117zM131 -15q0 -13 4 -17t17 -4h90q13 0 16.5 4t3.5 17v186q0 13 -3.5 17t-16.5 4h-90q-13 0 -17 -4t-4 -17v-186z" />
    <glyph glyph-name="glyph247" horiz-adv-x="301" 
d="M275 -114h-248v68h83v231l-82 -24v68l99 41h65v-316h83v-68z" />
    <glyph glyph-name="glyph248" horiz-adv-x="375" 
d="M129 151h-80v29q0 48 21 69t69 21h106q48 0 69 -21t21 -69v-54q0 -18 -7.5 -30.5t-19.5 -21t-27 -14.5t-30 -10l-101 -31q-11 -3 -17 -7t-6 -12v-36h134v55h75v-133h-292v134q0 18 6.5 30t17.5 20.5t26.5 14.5t33.5 11l100 31q11 3 17.5 7t6.5 12v25q0 13 -4 17t-17 4
h-81q-13 0 -17 -4t-4 -17v-20z" />
    <glyph glyph-name="glyph249" horiz-adv-x="376" 
d="M122 3q0 -28 3.5 -34.5t16.5 -6.5h86q13 0 17 6.5t4 35.5t-4 35.5t-17 6.5h-89v72h85q13 0 16.5 6t3.5 32t-3.5 32t-16.5 6h-78q-13 0 -16.5 -6t-3.5 -32v-5h-82v9q0 62 21.5 86t68.5 24h102q48 0 69 -23.5t21 -86.5q0 -36 -8.5 -52t-28.5 -26q22 -9 32 -26.5t10 -57.5
q0 -64 -21 -88t-69 -24h-112q-24 0 -41 5.5t-28 18.5t-16 34.5t-5 53.5v7h83v-2z" />
    <glyph glyph-name="glyph250" horiz-adv-x="418" 
d="M324 -46h58v-68h-218v68h79v40h-193l-17 48l220 228h71v-210h59v-66h-59v-40zM243 163l-103 -103h103v103z" />
    <glyph glyph-name="glyph251" horiz-adv-x="383" 
d="M133 192v-96q9 10 19 17.5t23 13t31 8.5t43 3q48 0 69 -21t21 -69v-72q0 -48 -21 -69t-69 -21h-114q-48 0 -69 21t-21 69v27h83v-18q0 -13 3.5 -17t16.5 -4h89q13 0 16.5 4t3.5 17v59q0 13 -3.5 17t-16.5 4q-44 0 -66 -5t-38 -12l-83 24v198h278v-78h-195z" />
    <glyph glyph-name="glyph252" horiz-adv-x="390" 
d="M256 171q0 13 -3.5 17t-16.5 4h-84q-13 0 -16.5 -4t-3.5 -17v-86q9 10 19 18t23.5 13.5t32.5 8.5t46 3q48 0 69 -21t21 -69v-62q0 -48 -21 -69t-69 -21h-114q-48 0 -69 21t-21 69v204q0 48 21 69t69 21h110q48 0 69 -21t21 -69v-22h-83v13zM131 -15q0 -13 4 -17t17 -4h88
q13 0 17 4t4 17v52q0 13 -4 16.5t-17 3.5q-47 0 -70 -4.5t-39 -11.5v-56z" />
    <glyph glyph-name="glyph253" horiz-adv-x="361" 
d="M328 207l-170 -321h-91l165 306h-128v-67h-75v145h299v-63z" />
    <glyph glyph-name="glyph254" horiz-adv-x="387" 
d="M337 162q0 -35 -8.5 -52.5t-28.5 -27.5q22 -9 32 -27t10 -56q0 -32 -5 -54t-16 -35t-28 -18.5t-41 -5.5h-116q-48 0 -69 24t-21 89q0 38 10 56t31 27q-20 10 -28 27.5t-8 52.5q0 61 21 84.5t69 23.5h106q48 0 69 -23t21 -85zM153 194q-13 0 -17 -6t-4 -32t4 -32t17 -6h80
q13 0 17 6t4 32t-4 32t-17 6h-80zM149 46q-13 0 -17 -6.5t-4 -35.5t4 -35.5t17 -6.5h89q13 0 17 6.5t4 35.5t-4 35.5t-17 6.5h-89z" />
    <glyph glyph-name="glyph255" horiz-adv-x="390" 
d="M134 -15q0 -13 4 -17t17 -4h83q13 0 17 4t4 17v86q-9 -10 -19.5 -18t-24 -13.5t-32.5 -8.5t-46 -3q-48 0 -69 21t-21 69v62q0 48 21 69t69 21h114q48 0 69 -21t21 -69v-204q0 -48 -21 -69t-69 -21h-110q-48 0 -69 21t-21 69v22h83v-13zM259 171q0 13 -4 17t-17 4h-88
q-13 0 -17 -4t-4 -17v-52q0 -13 4 -16.5t17 -3.5q24 0 40.5 1t29 3.5t22 5.5t17.5 6v56z" />
    <glyph glyph-name="glyph256" 
d="M220 0q-140 0 -140 140v420q0 140 140 140h220q140 0 140 -140v-420q0 -140 -140 -140h-220zM200 147q0 -20 8.5 -28.5t28.5 -8.5h185q21 0 29.5 8.5t8.5 28.5v406q0 20 -8.5 28.5t-29.5 8.5h-185q-20 0 -28.5 -8.5t-8.5 -28.5v-406z" />
    <glyph glyph-name="glyph257" 
d="M115 0v110h168v474l-168 -50v116l167 50h121v-590h155v-110h-443z" />
    <glyph glyph-name="glyph258" 
d="M93 0v217q0 30 10 51t28.5 36.5t45 28.5t60.5 28l159 68q27 12 39 21t12 29v74q0 20 -8.5 28.5t-28.5 8.5h-154q-20 0 -28.5 -8.5t-8.5 -28.5v-67h-117v74q0 140 140 140h185q140 0 140 -140v-103q0 -30 -10 -51t-28.5 -36.5t-45 -28.5t-60.5 -28l-159 -68
q-26 -11 -38.5 -20t-12.5 -29v-86h251v122h109v-232h-480z" />
    <glyph glyph-name="glyph259" 
d="M202 156q0 -28 8.5 -37.5t28.5 -9.5h181q10 0 17 3t11.5 13t6.5 29.5t2 52.5t-2 52.5t-6.5 29.5t-11.5 13t-17 3h-174v107h166q10 0 17 3t11.5 12t6.5 27t2 48t-2 47.5t-6.5 26.5t-11.5 12t-17 3h-165q-20 0 -28.5 -9.5t-8.5 -37.5v-54h-120v60q0 79 34 114.5t106 35.5
h199q36 0 62.5 -9.5t44 -31t26 -57.5t8.5 -89q0 -36 -4 -61.5t-12 -43t-20 -29t-29 -20.5q19 -8 33 -20t23 -31t13 -46t4 -66q0 -57 -8.5 -94.5t-26 -60t-44 -32t-62.5 -9.5h-215q-72 0 -106 35.5t-34 114.5v60h120v-54z" />
    <glyph glyph-name="glyph260" 
d="M517 99h85v-99h-297v99h95v92h-339l-23 87l351 422h128v-408h87v-101h-87v-92zM400 555l-220 -263h220v263z" />
    <glyph glyph-name="glyph261" 
d="M225 378q15 18 30.5 33t36 26t47.5 17t65 6q91 0 128.5 -34t37.5 -106v-177q0 -143 -143 -143h-191q-140 0 -140 140v71h120v-64q0 -20 8.5 -28.5t28.5 -8.5h160q20 0 28.5 8.5t8.5 28.5v168q0 20 -11.5 28.5t-50.5 8.5q-29 0 -51.5 -3t-42 -8.5t-36 -13.5t-33.5 -18
l-120 32v359h448v-110h-328v-212z" />
    <glyph glyph-name="glyph262" 
d="M441 553q0 37 -37 37h-153q-37 0 -37 -37v-195q15 18 30.5 33t36.5 26t49.5 17t69.5 6q94 0 132 -34t38 -106v-160q0 -140 -140 -140h-196q-140 0 -140 140v420q0 140 140 140h187q140 0 140 -140v-63h-120v56zM214 147q0 -20 8.5 -28.5t28.5 -8.5h162q20 0 28.5 8.5
t8.5 28.5v149q0 20 -12.5 28.5t-55.5 8.5q-32 0 -55.5 -3t-43 -8.5t-36 -13.5t-33.5 -18v-143z" />
    <glyph glyph-name="glyph263" 
d="M595 615l-271 -615h-128l260 591h-277v-120h-109v229h525v-85z" />
    <glyph glyph-name="glyph264" 
d="M574 513q0 -36 -4 -61.5t-11.5 -43t-20 -29.5t-28.5 -21q19 -8 32.5 -20t22.5 -31t13 -46t4 -66q0 -56 -8.5 -93.5t-26 -60t-43.5 -32t-62 -9.5h-224q-36 0 -62.5 9.5t-44 32t-26 60t-8.5 93.5q0 39 4 66t13 46t23 31t33 20q-17 9 -29 21t-20 29.5t-12 43t-4 61.5
q0 53 8.5 89t26 57.5t44 31t62.5 9.5h208q36 0 62 -9.5t43.5 -31t26 -57.5t8.5 -89zM243 591q-10 0 -17 -3t-11.5 -12t-6.5 -27t-2 -48t2 -48t6.5 -27.5t11.5 -12.5t17 -3h174q10 0 17 3t11.5 12.5t6.5 27.5t2 48t-2 48t-6.5 27t-11.5 12t-17 3h-174zM235 305q-10 0 -17 -3
t-11.5 -13t-6.5 -29.5t-2 -52.5t2 -52.5t6.5 -29.5t11.5 -13t17 -3h190q10 0 17 3t11.5 13t6.5 29.5t2 52.5t-2 52.5t-6.5 29.5t-11.5 13t-17 3h-190z" />
    <glyph glyph-name="glyph265" 
d="M219 147q0 -37 37 -37h153q37 0 37 37v191q-15 -18 -30.5 -33t-36.5 -26t-49.5 -17t-69.5 -6q-94 0 -132 34t-38 106v164q0 140 140 140h196q140 0 140 -140v-420q0 -140 -140 -140h-187q-140 0 -140 140v63h120v-56zM446 553q0 20 -8.5 28.5t-28.5 8.5h-162
q-20 0 -28.5 -8.5t-8.5 -28.5v-153q0 -10 2.5 -17t10 -11.5t20.5 -6.5t35 -2q31 0 55 3t43.5 8.5t36 13.5t33.5 18v147z" />
    <glyph glyph-name="glyph274" horiz-adv-x="394" 
d="M139 0q-48 0 -69 21t-21 69v204q0 48 21 69t69 21h117q48 0 69 -21t21 -69v-204q0 -48 -21 -69t-69 -21h-117zM131 99q0 -13 4 -17t17 -4h90q13 0 16.5 4t3.5 17v186q0 13 -3.5 17t-16.5 4h-90q-13 0 -17 -4t-4 -17v-186z" />
    <glyph glyph-name="glyph275" horiz-adv-x="301" 
d="M275 0h-248v68h83v231l-82 -24v68l99 41h65v-316h83v-68z" />
    <glyph glyph-name="glyph276" horiz-adv-x="375" 
d="M129 265h-80v29q0 48 21 69t69 21h106q48 0 69 -21t21 -69v-54q0 -18 -7.5 -30.5t-19.5 -21t-27 -14.5t-30 -10l-101 -31q-11 -3 -17 -7t-6 -12v-36h134v55h75v-133h-292v134q0 18 6.5 30t17.5 20.5t26.5 14.5t33.5 11l100 31q11 3 17.5 7t6.5 12v25q0 13 -4 17t-17 4
h-81q-13 0 -17 -4t-4 -17v-20z" />
    <glyph glyph-name="glyph277" horiz-adv-x="376" 
d="M122 117q0 -28 3.5 -34.5t16.5 -6.5h86q13 0 17 6.5t4 35.5t-4 35.5t-17 6.5h-89v72h85q13 0 16.5 6t3.5 32t-3.5 32t-16.5 6h-78q-13 0 -16.5 -6t-3.5 -32v-5h-82v9q0 62 21.5 86t68.5 24h102q48 0 69 -23.5t21 -86.5q0 -36 -8.5 -52t-28.5 -26q22 -9 32 -26.5t10 -57.5
q0 -64 -21 -88t-69 -24h-112q-24 0 -41 5.5t-28 18.5t-16 34.5t-5 53.5v7h83v-2z" />
    <glyph glyph-name="glyph278" horiz-adv-x="418" 
d="M324 68h58v-68h-218v68h79v40h-193l-17 48l220 228h71v-210h59v-66h-59v-40zM243 277l-103 -103h103v103z" />
    <glyph glyph-name="glyph279" horiz-adv-x="383" 
d="M133 306v-96q9 10 19 17.5t23 13t31 8.5t43 3q48 0 69 -21t21 -69v-72q0 -48 -21 -69t-69 -21h-114q-48 0 -69 21t-21 69v27h83v-18q0 -13 3.5 -17t16.5 -4h89q13 0 16.5 4t3.5 17v59q0 13 -3.5 17t-16.5 4q-44 0 -66 -5t-38 -12l-83 24v198h278v-78h-195z" />
    <glyph glyph-name="glyph280" horiz-adv-x="390" 
d="M256 285q0 13 -3.5 17t-16.5 4h-84q-13 0 -16.5 -4t-3.5 -17v-86q9 10 19 18t23.5 13.5t32.5 8.5t46 3q48 0 69 -21t21 -69v-62q0 -48 -21 -69t-69 -21h-114q-48 0 -69 21t-21 69v204q0 48 21 69t69 21h110q48 0 69 -21t21 -69v-22h-83v13zM131 99q0 -13 4 -17t17 -4h88
q13 0 17 4t4 17v52q0 13 -4 16.5t-17 3.5q-47 0 -70 -4.5t-39 -11.5v-56z" />
    <glyph glyph-name="glyph281" horiz-adv-x="361" 
d="M328 321l-170 -321h-91l165 306h-128v-67h-75v145h299v-63z" />
    <glyph glyph-name="glyph282" horiz-adv-x="387" 
d="M337 276q0 -35 -8.5 -52.5t-28.5 -27.5q22 -9 32 -27t10 -56q0 -32 -5 -54t-16 -35t-28 -18.5t-41 -5.5h-116q-48 0 -69 24t-21 89q0 38 10 56t31 27q-20 10 -28 27.5t-8 52.5q0 61 21 84.5t69 23.5h106q48 0 69 -23t21 -85zM153 308q-13 0 -17 -6t-4 -32t4 -32t17 -6h80
q13 0 17 6t4 32t-4 32t-17 6h-80zM149 160q-13 0 -17 -6.5t-4 -35.5t4 -35.5t17 -6.5h89q13 0 17 6.5t4 35.5t-4 35.5t-17 6.5h-89z" />
    <glyph glyph-name="glyph283" horiz-adv-x="390" 
d="M134 99q0 -13 4 -17t17 -4h83q13 0 17 4t4 17v86q-9 -10 -19.5 -18t-24 -13.5t-32.5 -8.5t-46 -3q-48 0 -69 21t-21 69v62q0 48 21 69t69 21h114q48 0 69 -21t21 -69v-204q0 -48 -21 -69t-69 -21h-110q-48 0 -69 21t-21 69v22h83v-13zM259 285q0 13 -4 17t-17 4h-88
q-13 0 -17 -4t-4 -17v-52q0 -13 4 -16.5t17 -3.5q24 0 40.5 1t29 3.5t22 5.5t17.5 6v56z" />
    <glyph glyph-name="glyph284" horiz-adv-x="394" 
d="M139 316q-48 0 -69 21t-21 69v204q0 48 21 69t69 21h117q48 0 69 -21t21 -69v-204q0 -48 -21 -69t-69 -21h-117zM131 415q0 -13 4 -17t17 -4h90q13 0 16.5 4t3.5 17v186q0 13 -3.5 17t-16.5 4h-90q-13 0 -17 -4t-4 -17v-186z" />
    <glyph glyph-name="glyph285" horiz-adv-x="301" 
d="M275 317h-248v68h83v231l-82 -24v68l99 41h65v-316h83v-68z" />
    <glyph glyph-name="glyph286" horiz-adv-x="375" 
d="M129 581h-80v29q0 48 21 69t69 21h106q48 0 69 -21t21 -69v-54q0 -18 -7.5 -30.5t-19.5 -21t-27 -14.5t-30 -10l-101 -31q-11 -3 -17 -7t-6 -12v-36h134v55h75v-133h-292v134q0 18 6.5 30t17.5 20.5t26.5 14.5t33.5 11l100 31q11 3 17.5 7t6.5 12v25q0 13 -4 17t-17 4
h-81q-13 0 -17 -4t-4 -17v-20z" />
    <glyph glyph-name="glyph287" horiz-adv-x="376" 
d="M122 433q0 -28 3.5 -34.5t16.5 -6.5h86q13 0 17 6.5t4 35.5t-4 35.5t-17 6.5h-89v72h85q13 0 16.5 6t3.5 32t-3.5 32t-16.5 6h-78q-13 0 -16.5 -6t-3.5 -32v-5h-82v9q0 62 21.5 86t68.5 24h102q48 0 69 -23.5t21 -86.5q0 -36 -8.5 -52t-28.5 -26q22 -9 32 -26.5t10 -57.5
q0 -64 -21 -88t-69 -24h-112q-24 0 -41 5.5t-28 18.5t-16 34.5t-5 53.5v7h83v-2z" />
    <glyph glyph-name="glyph288" horiz-adv-x="418" 
d="M324 384h58v-68h-218v68h79v40h-193l-17 48l220 228h71v-210h59v-66h-59v-40zM243 593l-103 -103h103v103z" />
    <glyph glyph-name="glyph289" horiz-adv-x="383" 
d="M133 622v-96q9 10 19 17.5t23 13t31 8.5t43 3q48 0 69 -21t21 -69v-72q0 -48 -21 -69t-69 -21h-114q-48 0 -69 21t-21 69v27h83v-18q0 -13 3.5 -17t16.5 -4h89q13 0 16.5 4t3.5 17v59q0 13 -3.5 17t-16.5 4q-44 0 -66 -5t-38 -12l-83 24v198h278v-78h-195z" />
    <glyph glyph-name="glyph290" horiz-adv-x="390" 
d="M256 601q0 13 -3.5 17t-16.5 4h-84q-13 0 -16.5 -4t-3.5 -17v-86q9 10 19 18t23.5 13.5t32.5 8.5t46 3q48 0 69 -21t21 -69v-62q0 -48 -21 -69t-69 -21h-114q-48 0 -69 21t-21 69v204q0 48 21 69t69 21h110q48 0 69 -21t21 -69v-22h-83v13zM131 415q0 -13 4 -17t17 -4h88
q13 0 17 4t4 17v52q0 13 -4 16.5t-17 3.5q-47 0 -70 -4.5t-39 -11.5v-56z" />
    <glyph glyph-name="glyph291" horiz-adv-x="361" 
d="M328 637l-170 -321h-91l165 306h-128v-67h-75v145h299v-63z" />
    <glyph glyph-name="glyph292" horiz-adv-x="387" 
d="M337 592q0 -35 -8.5 -52.5t-28.5 -27.5q22 -9 32 -27t10 -56q0 -32 -5 -54t-16 -35t-28 -18.5t-41 -5.5h-116q-48 0 -69 24t-21 89q0 38 10 56t31 27q-20 10 -28 27.5t-8 52.5q0 61 21 84.5t69 23.5h106q48 0 69 -23t21 -85zM153 624q-13 0 -17 -6t-4 -32t4 -32t17 -6h80
q13 0 17 6t4 32t-4 32t-17 6h-80zM149 476q-13 0 -17 -6.5t-4 -35.5t4 -35.5t17 -6.5h89q13 0 17 6.5t4 35.5t-4 35.5t-17 6.5h-89z" />
    <glyph glyph-name="glyph293" horiz-adv-x="390" 
d="M134 415q0 -13 4 -17t17 -4h83q13 0 17 4t4 17v86q-9 -10 -19.5 -18t-24 -13.5t-32.5 -8.5t-46 -3q-48 0 -69 21t-21 69v62q0 48 21 69t69 21h114q48 0 69 -21t21 -69v-204q0 -48 -21 -69t-69 -21h-110q-48 0 -69 21t-21 69v22h83v-13zM259 601q0 13 -4 17t-17 4h-88
q-13 0 -17 -4t-4 -17v-52q0 -13 4 -16.5t17 -3.5q24 0 40.5 1t29 3.5t22 5.5t17.5 6v56z" />
    <glyph glyph-name="glyph322" 
d="M478 287h89v-104h-122l-59 -183h-112l58 183h-114l-59 -183h-112l58 183h-81v104h114l51 158h-96v104h129l48 151h113l-48 -151h114l48 151h113l-48 -151h74v-104h-108zM302 445l-51 -158h115l50 158h-114z" />
    <glyph glyph-name="glyph344" 
d="M413 590q-20 0 -28.5 -8.5t-8.5 -28.5v-111h135v-105h-135v-197q0 -140 -140 -140h-98v110h80q21 0 29.5 8.5t8.5 28.5v190h-111v105h111v118q0 140 140 140h125v-110h-108z" />
    <glyph glyph-name="glyph351" 
d="M450 468q0 20 -8.5 28.5t-28.5 8.5h-35v-304h35q20 0 28.5 8.5t8.5 28.5v47h111v-48q0 -140 -140 -140h-37v-97h-95v97h-41q-140 0 -140 140v232q0 140 140 140h41v91h95v-91h37q140 0 140 -140v-48h-111v47zM256 505q-20 0 -28.5 -8.5t-8.5 -28.5v-230q0 -20 8.5 -28.5
t28.5 -8.5h39v304h-39z" />
    <glyph glyph-name="glyph352" 
d="M533 278q0 -34 -8 -61l79 -79l-72 -72l-80 80q-27 -8 -59 -8h-126q-35 0 -59 7l-79 -79l-72 72l78 78q-4 14 -6 29t-2 33v160q0 32 8 59l-78 78l72 72l77 -77q27 8 61 8h126q18 0 33 -2t29 -6l77 77l72 -72l-78 -78q7 -24 7 -59v-160zM429 443q0 21 -8.5 29.5t-28.5 8.5
h-123q-20 0 -28.5 -8.5t-8.5 -29.5v-170q0 -21 8.5 -29.5t28.5 -8.5h123q20 0 28.5 8.5t8.5 29.5v170z" />
    <glyph glyph-name="glyph353" 
d="M443 390q33 -7 59.5 -17.5t45.5 -32t29.5 -56.5t10.5 -91t-8.5 -93t-26 -59t-44 -31.5t-62.5 -9.5h-70v-99h-98v99h-67q-36 0 -62 9.5t-43.5 31.5t-26 59t-8.5 93v31h117v-37q0 -26 2 -41t6.5 -23.5t11.5 -11t18 -2.5h62v197l-69 14q-33 7 -59.5 17.5t-45.5 31t-29.5 55
t-10.5 88.5t8.5 90t26 57.5t44 31t62.5 9.5h63v99h98v-99h58q36 0 62 -9.5t43.5 -31t26 -57.5t8.5 -90v-28h-117v33q0 48 -8.5 61t-29.5 13h-53v-185zM289 591h-56q-20 0 -28.5 -13t-8.5 -61q0 -26 2.5 -41.5t9 -24.5t17.5 -13.5t29 -8.5l35 -7v169zM430 109q10 0 17 2.5
t11.5 11t6.5 23.5t2 41q0 28 -2 44.5t-8 26t-17 14t-29 8.5l-44 9v-180h63z" />
    <glyph glyph-name="glyph354" 
d="M493 553q0 20 -8.5 28.5t-29.5 8.5h-186q-20 0 -28.5 -8.5t-8.5 -28.5v-93h204v-68h-204v-81h204v-69h-204v-95q0 -20 8.5 -28.5t28.5 -8.5h186q21 0 29.5 8.5t8.5 28.5v94h120v-101q0 -140 -140 -140h-221q-140 0 -140 140v102h-79v69h79v81h-79v68h79v100
q0 140 140 140h221q140 0 140 -140v-101h-120v94z" />
    <glyph glyph-name="glyph355" 
d="M590 0h-541v110h62q20 0 20 20v164h-82v108h82v158q0 140 140 140h175q140 0 140 -140v-87h-120v80q0 20 -8.5 28.5t-28.5 8.5h-141q-20 0 -28.5 -8.5t-8.5 -28.5v-151h168v-108h-168v-184h227v96h112v-206z" />
    <glyph glyph-name="glyph356" 
d="M458 365h91v-68h-129l-27 -49h156v-67h-159v-82h96v-99h-311v99h95v82h-158v67h155l-27 49h-128v68h90l-131 236h-78v99h268v-99h-60l129 -236h2l129 236h-60v99h267v-99h-80z" />
    <glyph glyph-name="glyph383" horiz-adv-x="687" 
d="M576 305v-165q0 -140 -140 -140h-220q-140 0 -140 140v111q0 38 17 65.5t55 42.5q-64 31 -64 108v93q0 140 140 140h184q140 0 140 -140v-66h-120v60q0 20 -8.5 28.5t-28.5 8.5h-150q-20 0 -28.5 -8.5t-8.5 -28.5v-104q0 -21 8.5 -29.5t28.5 -8.5h410v-107h-75zM233 305
q-20 0 -28.5 -8.5t-8.5 -28.5v-122q0 -20 8.5 -28.5t28.5 -8.5h185q21 0 29.5 8.5t8.5 28.5v159h-223z" />
    </font>
</defs>
</svg>
