<?xml version="1.0" standalone="no"?>
<!DOCTYPE svg PUBLIC "-//W3C//DTD SVG 1.1//EN" "http://www.w3.org/Graphics/SVG/1.1/DTD/svg11.dtd" >
<svg>
<metadata>
Created by FontForge 20120731 at Tue Apr 19 01:58:09 2016
 By www
Copyright (c) 2014 by Mattox Shuler. All rights reserved.
</metadata>
<defs>
<font id="FactoriaW00-Bold" horiz-adv-x="660" >
  <font-face 
    font-family="FactoriaW00-Bold"
    font-weight="700"
    font-stretch="normal"
    units-per-em="1000"
    panose-1="1 0 0 0 0 0 0 0 0 0"
    ascent="800"
    descent="-200"
    x-height="540"
    cap-height="700"
    bbox="-138 -350 1016 946"
    underline-thickness="50"
    underline-position="-125"
    unicode-range="U+0020-FB02"
  />
<missing-glyph horiz-adv-x="336" 
 />
    <glyph glyph-name=".notdef" horiz-adv-x="336" 
 />
    <glyph glyph-name=".null" horiz-adv-x="0" 
 />
    <glyph glyph-name="nonmarkingreturn" horiz-adv-x="333" 
 />
    <glyph glyph-name="space" unicode=" " horiz-adv-x="264" 
 />
    <glyph glyph-name="exclam" unicode="!" horiz-adv-x="300" 
d="M97 243l-31 457h168l-31 -457h-106zM70 0v156h160v-156h-160z" />
    <glyph glyph-name="quotedbl" unicode="&#x22;" horiz-adv-x="480" 
d="M181 444h-84l-36 256h156zM383 444h-84l-36 256h156z" />
    <glyph glyph-name="numbersign" unicode="#" horiz-adv-x="816" 
d="M602 301h100v-126h-142l-59 -175h-135l59 175h-154l-59 -175h-135l59 175h-91v126h133l43 130h-107v126h149l48 143h135l-48 -143h154l48 143h135l-48 -143h84v-126h-126zM356 431l-43 -130h154l43 130h-154z" />
    <glyph glyph-name="dollar" unicode="$" horiz-adv-x="630" 
d="M432 400q34 -7 60.5 -18t45 -33.5t28.5 -58.5t10 -92q0 -57 -8.5 -95.5t-26 -61t-43.5 -32t-62 -9.5h-65v-102h-115v102h-62q-36 0 -62 9.5t-43.5 32t-26 61t-8.5 95.5v32h140v-38q0 -21 1 -33.5t3.5 -19t6 -8t9.5 -1.5h56v164l-68 14q-34 7 -60.5 18t-45 33t-28.5 57
t-10 90q0 56 8.5 93t26 59.5t43.5 32t62 9.5h58v102h115v-102h53q36 0 62 -9.5t43.5 -32t26 -59.5t8.5 -93v-28h-140v34q0 20 -1 31.5t-3.5 17.5t-6 7.5t-9.5 1.5h-47v-155zM270 570h-48q-6 0 -9.5 -1.5t-6 -7.5t-3.5 -17.5t-1 -31.5q0 -23 1.5 -36t5.5 -20.5t10.5 -10.5
t16.5 -5l34 -7v137zM412 130q6 0 9.5 1.5t6 8t3.5 19t1 33.5q0 24 -1.5 38t-5.5 22t-10.5 11t-16.5 5l-41 8v-146h55z" />
    <glyph glyph-name="percent" unicode="%" horiz-adv-x="644" 
d="M208 700q38 0 54 -16t16 -54v-136q0 -38 -16 -54t-54 -16h-86q-37 0 -53.5 16.5t-16.5 53.5v136q0 38 16 54t54 16h86zM218 0h-116l324 700h116zM205 614q0 11 -3.5 14.5t-14.5 3.5h-44q-11 0 -14.5 -3.5t-3.5 -14.5v-104q0 -11 3.5 -14.5t14.5 -3.5h44q11 0 14.5 3.5
t3.5 14.5v104zM522 276q38 0 54 -16t16 -54v-136q0 -38 -16 -54t-54 -16h-86q-37 0 -53.5 16.5t-16.5 53.5v136q0 38 16 54t54 16h86zM519 190q0 11 -3.5 14.5t-14.5 3.5h-44q-11 0 -14.5 -3.5t-3.5 -14.5v-104q0 -11 3.5 -14.5t14.5 -3.5h44q11 0 14.5 3.5t3.5 14.5v104z
" />
    <glyph glyph-name="ampersand" unicode="&#x26;" horiz-adv-x="690" 
d="M586 140q0 -140 -140 -140h-234q-36 0 -62 9.5t-43.5 32t-26 60t-8.5 93.5q0 37 4 64t12.5 46t22 31.5t32.5 21.5q-17 10 -29 22.5t-19.5 30.5t-11 42.5t-3.5 59.5q0 53 8.5 89t26 57.5t43.5 31t62 9.5h192q140 0 140 -140v-68h-144v58q0 20 -20 20h-144q-6 0 -9.5 -2
t-6 -9.5t-3.5 -22t-1 -40.5t1 -40.5t3.5 -22t6 -9.5t9.5 -2h414v-128h-72v-154zM236 294q-6 0 -9.5 -2t-6 -10t-3.5 -24.5t-1 -45.5t1 -45.5t3.5 -24.5t6 -10t9.5 -2h186q20 0 20 20v144h-206z" />
    <glyph glyph-name="quotesingle" unicode="'" horiz-adv-x="278" 
d="M181 444h-84l-36 256h156z" />
    <glyph glyph-name="parenleft" unicode="(" horiz-adv-x="415" 
d="M259 632q-20 0 -20 -20v-566q0 -20 20 -20h91v-132h-115q-140 0 -140 140v590q0 140 140 140h115v-132h-91z" />
    <glyph glyph-name="parenright" unicode=")" horiz-adv-x="415" 
d="M180 764q140 0 140 -140v-590q0 -140 -140 -140h-115v132h91q20 0 20 20v566q0 20 -20 20h-91v132h115z" />
    <glyph glyph-name="asterisk" unicode="*" horiz-adv-x="444" 
d="M283 334l-62 137l-61 -136l-93 66l110 102l-148 16l34 109l132 -75l-30 147h114l-30 -147l130 74l36 -108l-150 -17l110 -101z" />
    <glyph glyph-name="plus" unicode="+" horiz-adv-x="532" 
d="M205 309h-137v122h137v127h122v-127h137v-122h-137v-127h-122v127z" />
    <glyph glyph-name="comma" unicode="," horiz-adv-x="274" 
d="M217 48q0 -29 -11 -51.5t-37 -52.5l-69 -78h-56l77 134h-64v156h160v-108z" />
    <glyph glyph-name="hyphen" unicode="-" horiz-adv-x="466" 
d="M403 265h-340v128h340v-128z" />
    <glyph glyph-name="period" unicode="." horiz-adv-x="274" 
d="M57 0v156h160v-156h-160z" />
    <glyph glyph-name="slash" unicode="/" horiz-adv-x="546" 
d="M166 -70h-140l354 840h140z" />
    <glyph glyph-name="zero" unicode="0" horiz-adv-x="645" 
d="M208 0q-140 0 -140 140v420q0 140 140 140h229q140 0 140 -140v-420q0 -69 -34 -104.5t-106 -35.5h-229zM212 152q0 -20 20 -20h181q20 0 20 20v396q0 20 -20 20h-181q-20 0 -20 -20v-396z" />
    <glyph glyph-name="one" unicode="1" horiz-adv-x="511" 
d="M491 0h-454v118h158v439l-165 -63v130l195 76h114v-582h152v-118z" />
    <glyph glyph-name="two" unicode="2" horiz-adv-x="610" 
d="M62 0v236q0 31 10.5 53t29 38t45 28.5t59.5 24.5l156 60q23 9 31.5 15.5t8.5 24.5v68q0 20 -20 20h-152q-20 0 -20 -20v-66h-140v78q0 140 140 140h196q140 0 140 -140v-112q0 -31 -10.5 -53t-29 -38t-45 -28.5t-59.5 -24.5l-156 -60q-23 -9 -31.5 -15.5t-8.5 -24.5v-72
h216v114h130v-246h-490z" />
    <glyph glyph-name="three" unicode="3" horiz-adv-x="606" 
d="M192 150q0 -20 20 -20h178q6 0 9.5 2t6 10t3.5 24.5t1 45.5t-1 45.5t-3.5 24.5t-6 10t-9.5 2h-169v128h161q6 0 9.5 2t6 9.5t3.5 22t1 40.5t-1 40.5t-3.5 22t-6 9.5t-9.5 2h-162q-20 0 -20 -20v-66h-144v76q0 140 140 140h210q36 0 62 -9.5t43.5 -31t26 -57.5t8.5 -89
q0 -35 -3.5 -59.5t-11 -42.5t-19.5 -30.5t-29 -22.5q19 -9 32.5 -21.5t22 -31.5t12.5 -46t4 -64q0 -56 -8.5 -93.5t-26 -60t-43.5 -32t-62 -9.5h-226q-140 0 -140 140v76h144v-66z" />
    <glyph glyph-name="four" unicode="4" horiz-adv-x="634" 
d="M522 118h78v-118h-302v118h84v75h-328l-30 103l346 404h152v-388h78v-119h-78v-75zM382 527l-188 -215h188v215z" />
    <glyph glyph-name="five" unicode="5" horiz-adv-x="606" 
d="M218 377q13 19 27.5 34.5t33 26.5t44.5 17t64 6q87 0 124 -34.5t37 -105.5v-177q0 -144 -144 -144h-200q-140 0 -140 140v77h144v-65q0 -20 20 -20h156q20 0 20 20v161q0 11 -7 15.5t-34 4.5t-47 -2t-36.5 -6t-31 -10.5t-30.5 -14.5l-144 36v364h454v-132h-310v-191z" />
    <glyph glyph-name="six" unicode="6" horiz-adv-x="620" 
d="M402 548q0 20 -20 20h-150q-20 0 -20 -20v-190q13 19 27.5 34.5t34 26.5t47 17t67.5 6q91 0 128.5 -34t37.5 -106v-162q0 -140 -140 -140h-206q-140 0 -140 140v420q0 140 140 140h198q140 0 140 -140v-66h-144v54zM212 152q0 -20 20 -20h158q20 0 20 20v142
q0 11 -7.5 15.5t-39.5 4.5q-29 0 -50 -2t-38.5 -6t-32 -10.5t-30.5 -14.5v-129z" />
    <glyph glyph-name="seven" unicode="7" horiz-adv-x="586" 
d="M558 597l-265 -597h-154l253 570h-226v-116h-130v246h522v-103z" />
    <glyph glyph-name="eight" unicode="8" horiz-adv-x="618" 
d="M558 513q0 -34 -3.5 -58.5t-11 -42.5t-19.5 -31t-29 -23q37 -18 54 -54t17 -109q0 -56 -8.5 -93.5t-26 -60t-43.5 -32t-62 -9.5h-234q-36 0 -62 9.5t-43.5 32t-26 60t-8.5 93.5q0 37 4 63.5t12.5 45.5t22 32t32.5 22q-17 10 -29 23t-19.5 31t-11 42.5t-3.5 58.5
q0 53 8.5 89t26 57.5t43.5 31t62 9.5h218q36 0 62 -9.5t43.5 -31t26 -57.5t8.5 -89zM224 570q-6 0 -9.5 -2t-6 -9.5t-3.5 -22.5t-1 -41t1 -41t3.5 -22.5t6 -9.5t9.5 -2h170q6 0 9.5 2t6 9.5t3.5 22.5t1 41t-1 41t-3.5 22.5t-6 9.5t-9.5 2h-170zM216 294q-6 0 -9.5 -2t-6 -10
t-3.5 -24.5t-1 -45.5t1 -45.5t3.5 -24.5t6 -10t9.5 -2h186q6 0 9.5 2t6 10t3.5 24.5t1 45.5t-1 45.5t-3.5 24.5t-6 10t-9.5 2h-186z" />
    <glyph glyph-name="nine" unicode="9" horiz-adv-x="620" 
d="M218 152q0 -20 20 -20h150q20 0 20 20v186q-14 -19 -28 -34.5t-33.5 -26.5t-47 -17t-67.5 -6q-91 0 -128.5 34t-37.5 106v166q0 140 140 140h206q140 0 140 -140v-420q0 -140 -140 -140h-198q-140 0 -140 140v66h144v-54zM408 548q0 20 -20 20h-158q-20 0 -20 -20v-146
q0 -11 7.5 -15.5t39.5 -4.5q29 0 50 2t38.5 6t32 10.5t30.5 14.5v133z" />
    <glyph glyph-name="colon" unicode=":" horiz-adv-x="274" 
d="M57 384v156h160v-156h-160zM57 0v156h160v-156h-160z" />
    <glyph glyph-name="semicolon" unicode=";" horiz-adv-x="274" 
d="M57 384v156h160v-156h-160zM217 48q0 -29 -11 -51.5t-37 -52.5l-69 -78h-56l77 134h-64v156h160v-108z" />
    <glyph glyph-name="less" unicode="&#x3c;" horiz-adv-x="532" 
d="M64 418l392 216v-124l-262 -147l262 -146v-124l-392 215v110z" />
    <glyph glyph-name="equal" unicode="=" horiz-adv-x="532" 
d="M464 414h-396v128h396v-128zM464 206h-396v128h396v-128z" />
    <glyph glyph-name="greater" unicode="&#x3e;" horiz-adv-x="532" 
d="M76 510v124l392 -216v-110l-392 -215v124l262 146z" />
    <glyph glyph-name="question" unicode="?" horiz-adv-x="588" 
d="M401 700q140 0 140 -140v-111q0 -24 -11 -42.5t-30 -34.5t-45 -31.5t-56 -33.5l-40 -24q-20 -12 -27 -18.5t-7 -15.5v-35h-144v65q0 22 12 41t32 36t46 33t54 34l38 24q20 13 27 19.5t7 14.5v67q0 20 -20 20h-184q-20 0 -20 -20v-68h-144v80q0 140 140 140h232zM325 0
h-144v144h144v-144z" />
    <glyph glyph-name="at" unicode="@" horiz-adv-x="1003" 
d="M770 700q140 0 140 -140v-373q0 -140 -140 -140h-180l-20 72q-9 -13 -21 -26.5t-29 -24.5t-41 -18t-57 -7q-76 0 -111 34t-35 106v174q0 72 35 106t111 34q33 0 57 -7t41 -18t29 -24.5t21 -26.5l20 72h120v-370h58q12 0 20 2.5t12.5 10t6 20.5t1.5 33v377q0 38 -38 38
h-537q-38 0 -38 -38v-592q0 -38 38 -38h511v-96h-511q-140 0 -140 140v580q0 140 140 140h537zM570 342q-23 16 -50.5 27.5t-69.5 11.5q-21 0 -27.5 -5t-6.5 -19v-174q0 -14 6.5 -19t27.5 -5q42 0 69.5 11.5t50.5 27.5v144z" />
    <glyph glyph-name="A" unicode="A" horiz-adv-x="784" 
d="M764 0h-302v118h74l-29 92h-234l-29 -92h72v-118h-296v118h76l159 464h-80v118h314l199 -582h76v-118zM390 576l-79 -246h157z" />
    <glyph glyph-name="B" unicode="B" horiz-adv-x="694" 
d="M36 582v118h458q36 0 62 -9.5t43.5 -31t26 -57.5t8.5 -89q0 -65 -14.5 -100t-48.5 -55q19 -9 32.5 -21.5t22 -31t12.5 -45.5t4 -65q0 -56 -8.5 -93.5t-26 -60t-43.5 -32t-62 -9.5h-466v118h88v464h-88zM460 423q9 0 15 2t9.5 9.5t4.5 22.5t1 41t-1 40.5t-4.5 22t-9.5 9.5
t-15 2h-192v-149h192zM468 128q9 0 15 2t9.5 10.5t4.5 26t1 48.5t-1 48t-4.5 25.5t-9.5 10.5t-15 2h-200v-173h200z" />
    <glyph glyph-name="C" unicode="C" horiz-adv-x="646" 
d="M208 0q-140 0 -140 140v420q0 140 140 140h240q140 0 140 -140v-114h-144v102q0 20 -20 20h-192q-20 0 -20 -20v-396q0 -20 20 -20h192q20 0 20 20v102h144v-114q0 -140 -140 -140h-240z" />
    <glyph glyph-name="D" unicode="D" horiz-adv-x="715" 
d="M124 118v464h-88v118h471q140 0 140 -140v-420q0 -140 -140 -140h-471v118h88zM483 132q20 0 20 20v396q0 20 -20 20h-215v-436h215z" />
    <glyph glyph-name="E" unicode="E" horiz-adv-x="652" 
d="M469 578h-201v-158h245v-130h-245v-168h201v94h126v-216h-559v118h88v464h-88v118h559v-216h-126v94z" />
    <glyph glyph-name="F" unicode="F" horiz-adv-x="631" 
d="M469 578h-201v-161h245v-130h-245v-169h102v-118h-334v118h88v464h-88v118h559v-216h-126v94z" />
    <glyph glyph-name="G" unicode="G" horiz-adv-x="661" 
d="M451 548q0 20 -20 20h-199q-20 0 -20 -20v-396q0 -20 20 -20h199q20 0 20 20v114h-138v126h282v-252q0 -140 -140 -140h-247q-140 0 -140 140v420q0 140 140 140h247q140 0 140 -140v-92h-144v80z" />
    <glyph glyph-name="H" unicode="H" horiz-adv-x="786" 
d="M662 118h88v-118h-318v118h86v172h-250v-172h86v-118h-318v118h88v464h-88v118h318v-118h-86v-162h250v162h-86v118h318v-118h-88v-464z" />
    <glyph glyph-name="I" unicode="I" horiz-adv-x="408" 
d="M276 118h92v-118h-328v118h92v464h-92v118h328v-118h-92v-464z" />
    <glyph glyph-name="J" unicode="J" horiz-adv-x="624" 
d="M508 582v-442q0 -140 -140 -140h-192q-140 0 -140 140v156h144v-144q0 -20 20 -20h144q20 0 20 20v430h-102v118h330v-118h-84z" />
    <glyph glyph-name="K" unicode="K" horiz-adv-x="748" 
d="M726 0h-189l-165 303l-102 -123v-62h90v-118h-320v118h88v464h-88v118h310v-118h-80v-226l174 226h-47v118h300v-118h-93l-136 -164l163 -300h95v-118z" />
    <glyph glyph-name="L" unicode="L" horiz-adv-x="626" 
d="M36 0v118h88v464h-88v118h334v-118h-102v-460h194v154h130v-276h-556z" />
    <glyph glyph-name="M" unicode="M" horiz-adv-x="940" 
d="M816 118h88v-118h-320v118h90v332l-153 -335h-106l-153 335v-332h90v-118h-316v118h88v464h-88v118h248l188 -410l188 410h244v-118h-88v-464z" />
    <glyph glyph-name="N" unicode="N" horiz-adv-x="790" 
d="M674 582v-582h-149l-263 481v-363h96v-118h-322v118h88v464h-88v118h246l254 -465v347h-96v118h318v-118h-84z" />
    <glyph glyph-name="O" unicode="O" horiz-adv-x="669" 
d="M208 0q-140 0 -140 140v420q0 140 140 140h253q140 0 140 -140v-420q0 -140 -140 -140h-253zM212 152q0 -20 20 -20h205q20 0 20 20v396q0 20 -20 20h-205q-20 0 -20 -20v-396z" />
    <glyph glyph-name="P" unicode="P" horiz-adv-x="672" 
d="M486 700q140 0 140 -140v-162q0 -140 -140 -140h-218v-140h104v-118h-336v118h88v464h-88v118h450zM482 552q0 20 -20 20h-194v-186h194q20 0 20 20v146z" />
    <glyph glyph-name="Q" unicode="Q" horiz-adv-x="669" 
d="M461 700q140 0 140 -140v-420q0 -140 -140 -140h-54v-132h-144v132h-55q-140 0 -140 140v420q0 140 140 140h253zM457 548q0 20 -20 20h-205q-20 0 -20 -20v-396q0 -20 20 -20h205q20 0 20 20v396z" />
    <glyph glyph-name="R" unicode="R" horiz-adv-x="712" 
d="M696 0h-187l-131 270h-110v-152h102v-118h-334v118h88v464h-88v118h450q140 0 140 -140v-142q0 -118 -98 -137l78 -163h90v-118zM462 396q20 0 20 20v136q0 20 -20 20h-194v-176h194z" />
    <glyph glyph-name="S" unicode="S" horiz-adv-x="624" 
d="M418 550q0 20 -20 20h-178q-20 0 -20 -20v-76q0 -17 7 -23.5t27 -10.5l192 -40q33 -7 59.5 -17.5t45.5 -27.5t29 -41t10 -58v-116q0 -140 -140 -140h-236q-140 0 -140 140v88h140v-78q0 -20 20 -20h192q20 0 20 20v84q0 17 -7 23.5t-27 10.5l-192 40q-33 7 -59.5 17.5
t-45.5 27.5t-29 41t-10 58v108q0 140 140 140h222q140 0 140 -140v-80h-140v70z" />
    <glyph glyph-name="T" unicode="T" horiz-adv-x="674" 
d="M516 580h-107v-462h108v-118h-360v118h108v462h-107v-126h-126v246h610v-246h-126v126z" />
    <glyph glyph-name="U" unicode="U" horiz-adv-x="754" 
d="M638 582v-442q0 -140 -140 -140h-242q-140 0 -140 140v442h-84v118h316v-118h-88v-430q0 -20 20 -20h194q20 0 20 20v430h-88v118h316v-118h-84z" />
    <glyph glyph-name="V" unicode="V" horiz-adv-x="758" 
d="M658 582l-193 -582h-172l-193 582h-80v118h304v-118h-69l126 -413l126 413h-69v118h300v-118h-80z" />
    <glyph glyph-name="W" unicode="W" horiz-adv-x="1036" 
d="M937 582l-146 -582h-152l-118 456l-118 -456h-159l-145 582h-79v118h306v-118h-82l84 -396l132 514h122l132 -514l84 396h-82v118h300v-118h-79z" />
    <glyph glyph-name="X" unicode="X" horiz-adv-x="709" 
d="M689 0h-286v118h46l-98 156l-97 -156h46v-118h-280v118h83l157 238l-150 226h-83v118h286v-118h-46l91 -146l92 146h-46v118h279v-118h-84l-154 -226l160 -238h84v-118z" />
    <glyph glyph-name="Y" unicode="Y" horiz-adv-x="720" 
d="M432 118h90v-118h-324v118h90v123l-190 341h-78v118h282v-118h-49l108 -200l108 200h-49v118h280v-118h-78l-190 -341v-123z" />
    <glyph glyph-name="Z" unicode="Z" horiz-adv-x="638" 
d="M584 0h-530v108l348 464h-214v-108h-124v236h516v-108l-348 -464h228v108h124v-236z" />
    <glyph glyph-name="bracketleft" unicode="[" horiz-adv-x="405" 
d="M239 26h101v-132h-245v870h245v-132h-101v-606z" />
    <glyph glyph-name="backslash" unicode="\" horiz-adv-x="546" 
d="M380 -70l-354 840h140l354 -840h-140z" />
    <glyph glyph-name="bracketright" unicode="]" horiz-adv-x="405" 
d="M310 764v-870h-245v132h101v606h-101v132h245z" />
    <glyph glyph-name="asciicircum" unicode="^" horiz-adv-x="736" 
d="M442 700l216 -432h-146l-144 288l-144 -288h-146l216 432h148z" />
    <glyph glyph-name="underscore" unicode="_" horiz-adv-x="600" 
d="M582 -170h-564v124h564v-124z" />
    <glyph glyph-name="grave" unicode="`" horiz-adv-x="439" 
d="M231 766l-149 144h175l90 -144h-116z" />
    <glyph glyph-name="a" unicode="a" horiz-adv-x="594" 
d="M566 0h-210v84q-14 -19 -28 -34.5t-33 -26.5t-45 -17t-63 -6q-78 0 -111.5 34.5t-33.5 118.5q0 42 9.5 71.5t27.5 48.5t44 29t59 15t78 9.5t96 6.5v72q0 22 -22 22h-116q-22 0 -22 -22v-32h-136v37q0 67 31.5 98.5t98.5 31.5h174q67 0 98.5 -31.5t31.5 -98.5v-308h72
v-102zM213 218q-20 -4 -27.5 -12t-7.5 -39q0 -32 6.5 -40.5t29.5 -8.5q25 0 44.5 3t36 8t31.5 12t30 15v89z" />
    <glyph glyph-name="b" unicode="b" horiz-adv-x="620" 
d="M418 544q82 0 116 -32.5t34 -107.5v-268q0 -75 -34 -107.5t-116 -32.5q-39 0 -66 6t-46.5 17t-34 26.5t-27.5 34.5v-80h-214v102h76v526h-76v102h214v-270q13 19 27.5 34.5t34 26.5t46.5 17t66 6zM430 388q0 20 -7 26t-33 6t-46.5 -2t-37.5 -6t-32 -10t-30 -14v-236
q15 -8 30 -14t32 -10t37.5 -6t46.5 -2t33 6t7 26v236z" />
    <glyph glyph-name="c" unicode="c" horiz-adv-x="535" 
d="M359 540q67 0 98.5 -31.5t31.5 -98.5v-68h-138v56q0 22 -22 22h-117q-22 0 -22 -22v-256q0 -22 22 -22h117q22 0 22 22v56h138v-68q0 -67 -31.5 -98.5t-98.5 -31.5h-177q-67 0 -98.5 31.5t-31.5 98.5v280q0 67 31.5 98.5t98.5 31.5h177z" />
    <glyph glyph-name="d" unicode="d" horiz-adv-x="612" 
d="M586 0h-210v80q-14 -19 -28 -34.5t-33.5 -26.5t-46.5 -17t-66 -6q-82 0 -116 32.5t-34 107.5v268q0 75 34 107.5t116 32.5q39 0 66 -6t46.5 -17t33.5 -26.5t28 -34.5v168h-94v102h232v-628h72v-102zM376 388q-15 8 -30 14t-32 10t-37.5 6t-46.5 2t-33 -5t-7 -17v-256
q0 -12 7 -17t33 -5t46.5 2t37.5 6t32 10t30 14v236z" />
    <glyph glyph-name="e" unicode="e" horiz-adv-x="545" 
d="M190 134q0 -22 22 -22h125q22 0 22 22v42h138v-46q0 -67 -31.5 -98.5t-98.5 -31.5h-185q-67 0 -98.5 31.5t-31.5 98.5v280q0 67 31.5 98.5t98.5 31.5h185q67 0 98.5 -31.5t31.5 -98.5v-179h-307v-97zM212 428q-22 0 -22 -22v-82h169v82q0 22 -22 22h-125z" />
    <glyph glyph-name="f" unicode="f" horiz-adv-x="385" 
d="M275 626q-22 0 -22 -22v-64h108v-112h-108v-326h88v-102h-314v102h88v326h-87v112h87v60q0 67 31.5 98.5t98.5 31.5h124v-104h-94z" />
    <glyph glyph-name="g" unicode="g" horiz-adv-x="612" 
d="M514 438v-468q0 -67 -31.5 -98.5t-98.5 -31.5h-262v110h232q22 0 22 22v132q-14 -19 -28 -34.5t-33.5 -26.5t-46.5 -17t-66 -6q-82 0 -116 32.5t-34 107.5v244q0 75 34 107.5t116 32.5q39 0 66 -6t46.5 -17t33.5 -26.5t28 -34.5v80h210v-102h-72zM376 388q-15 8 -30 14
t-32 10t-37.5 6t-46.5 2t-33 -5t-7 -17v-232q0 -12 7 -17t33 -5t46.5 2t37.5 6t32 10t30 14v212z" />
    <glyph glyph-name="h" unicode="h" 
d="M632 0h-272v102h62v293q0 15 -6.5 20.5t-28.5 5.5q-25 0 -45 -2t-36.5 -6t-31.5 -10t-30 -14v-287h62v-102h-276v102h76v526h-76v102h214v-269q13 19 27.5 34.5t34 26.5t45.5 17t63 6q79 0 112.5 -32t33.5 -102v-309h72v-102z" />
    <glyph glyph-name="i" unicode="i" horiz-adv-x="368" 
d="M114 600v130h146v-130h-146zM332 0h-294v102h80v336h-80v102h218v-438h76v-102z" />
    <glyph glyph-name="j" unicode="j" horiz-adv-x="318" 
d="M260 600h-146v130h146v-130zM256 -15q0 -32 -8 -53.5t-24 -36t-40.5 -23.5t-57.5 -16l-105 -22v92l79 42q9 5 13.5 9.5t4.5 14.5v446h-80v102h218v-555z" />
    <glyph glyph-name="k" unicode="k" horiz-adv-x="609" 
d="M599 0h-168l-111 223l-78 -92v-29h62v-102h-274v102h76v526h-76v102h212v-443l118 151h-44v102h258v-102h-71l-96 -112l115 -224h77v-102z" />
    <glyph glyph-name="l" unicode="l" horiz-adv-x="368" 
d="M332 0h-294v102h80v526h-80v102h218v-628h76v-102z" />
    <glyph glyph-name="m" unicode="m" horiz-adv-x="960" 
d="M932 0h-270v102h60v294q0 15 -6 20.5t-25 5.5q-47 0 -77.5 -8t-61.5 -24v-288h57v-102h-252v102h57v294q0 15 -6 20.5t-25 5.5q-47 0 -77.5 -8t-61.5 -24v-288h60v-102h-274v102h76v336h-76v102h214v-78q13 19 27.5 34.5t33.5 26.5t44 17t61 6q63 0 96 -21.5t42 -67.5
q13 19 28.5 35.5t35 28.5t45.5 18.5t61 6.5q76 0 109 -32t33 -102v-310h72v-102z" />
    <glyph glyph-name="n" unicode="n" 
d="M632 0h-272v102h62v293q0 15 -6.5 20.5t-28.5 5.5q-25 0 -45 -2t-36.5 -6t-31.5 -10t-30 -14v-287h62v-102h-276v102h76v336h-76v102h214v-79q13 19 27.5 34.5t34 26.5t45.5 17t63 6q79 0 112.5 -32t33.5 -102v-309h72v-102z" />
    <glyph glyph-name="o" unicode="o" horiz-adv-x="553" 
d="M371 540q67 0 98.5 -31.5t31.5 -98.5v-280q0 -67 -31.5 -98.5t-98.5 -31.5h-189q-67 0 -98.5 31.5t-31.5 98.5v280q0 67 31.5 98.5t98.5 31.5h189zM363 398q0 22 -22 22h-129q-22 0 -22 -22v-256q0 -22 22 -22h129q22 0 22 22v256z" />
    <glyph glyph-name="p" unicode="p" horiz-adv-x="620" 
d="M418 544q82 0 116 -32.5t34 -107.5v-268q0 -75 -34 -107.5t-116 -32.5q-39 0 -66 6t-46.5 17t-34 26.5t-27.5 34.5v-138h92v-102h-306v102h76v496h-76v102h214v-80q13 19 27.5 34.5t34 26.5t46.5 17t66 6zM430 388q0 20 -7 26t-32 6q-27 0 -47.5 -2t-37.5 -6t-32 -10
t-30 -14v-236q15 -8 30 -14t32 -10t37.5 -6t47.5 -2q25 0 32 6t7 26v236z" />
    <glyph glyph-name="q" unicode="q" horiz-adv-x="616" 
d="M514 -58h76v-102h-306v102h92v138q-14 -19 -28 -34.5t-33.5 -26.5t-46.5 -17t-66 -6q-82 0 -116 32.5t-34 107.5v268q0 75 34 107.5t116 32.5q39 0 66 -6t46.5 -17t33.5 -26.5t28 -34.5v80h214v-102h-76v-496zM230 120q27 0 47 2t37 6t32 10t30 14v236q-15 8 -30 14
t-32 10t-37 6t-47 2q-25 0 -32.5 -6t-7.5 -26v-236q0 -20 7.5 -26t32.5 -6z" />
    <glyph glyph-name="r" unicode="r" horiz-adv-x="455" 
d="M431 410h-58q-40 0 -69 -7.5t-60 -24.5v-276h92v-102h-306v102h76v336h-76v102h214v-84q13 19 27.5 34.5t32 26.5t40.5 17t54 6h33v-130z" />
    <glyph glyph-name="s" unicode="s" horiz-adv-x="532" 
d="M338 410q0 22 -22 22h-105q-12 0 -17 -7.5t-5 -33.5q0 -30 5 -38.5t25 -11.5l149 -24q32 -5 54.5 -14t36.5 -25.5t20.5 -43.5t6.5 -69q0 -93 -31.5 -129t-98.5 -36h-180q-67 0 -98.5 31.5t-31.5 98.5v49h136v-49q0 -22 22 -22h124q12 0 17 8t5 38q0 17 -1 27t-4 16t-9 8
t-16 4l-149 24q-32 5 -54.5 14t-36.5 25t-20.5 42t-6.5 66q0 89 31.5 124.5t98.5 35.5h161q67 0 98.5 -31.5t31.5 -98.5v-40h-136v40z" />
    <glyph glyph-name="t" unicode="t" horiz-adv-x="406" 
d="M246 136q0 -22 22 -22h94v-114h-124q-67 0 -98.5 31.5t-31.5 98.5v298h-80v112h82v130h134v-130h118v-112h-116v-292z" />
    <glyph glyph-name="u" unicode="u" horiz-adv-x="650" 
d="M624 0h-210v79q-14 -19 -28 -34.5t-33.5 -26.5t-45.5 -17t-63 -6q-79 0 -112.5 32t-33.5 102v309h-70v102h208v-391q0 -15 6.5 -20.5t28.5 -5.5q25 0 45 2t36.5 6t31.5 10t30 14v283h-86v102h224v-438h72v-102z" />
    <glyph glyph-name="v" unicode="v" horiz-adv-x="594" 
d="M523 438l-150 -438h-152l-150 438h-55v102h248v-102h-52l88 -315l88 315h-52v102h242v-102h-55z" />
    <glyph glyph-name="w" unicode="w" horiz-adv-x="850" 
d="M780 438l-118 -438h-144l-88 381l-88 -381h-144l-127 438h-55v102h248v-102h-53l58 -289l94 391h134l94 -391l58 289h-54v102h239v-102h-54z" />
    <glyph glyph-name="x" unicode="x" horiz-adv-x="568" 
d="M552 0h-240v102h41l-74 125l-74 -125h41v-102h-230v102h53l110 172l-107 164h-54v102h240v-102h-42l71 -121l71 121h-42v102h230v-102h-53l-107 -165l112 -171h54v-102z" />
    <glyph glyph-name="y" unicode="y" horiz-adv-x="596" 
d="M344 -58h61v-102h-278v102h80l19 58l-154 438h-56v102h248v-102h-51l85 -301l90 301h-50v102h242v-102h-57z" />
    <glyph glyph-name="z" unicode="z" horiz-adv-x="539" 
d="M497 0h-455v96l278 336h-135v-82h-128v190h433v-96l-278 -336h157v82h128v-190z" />
    <glyph glyph-name="braceleft" unicode="{" horiz-adv-x="476" 
d="M300 424q0 -36 -17 -57.5t-37 -34.5q20 -13 37 -34.5t17 -57.5v-194q0 -20 20 -20h91v-132h-115q-140 0 -140 140v216q0 20 -20 20h-81v124h81q20 0 20 20v210q0 140 140 140h115v-132h-91q-20 0 -20 -20v-188z" />
    <glyph glyph-name="bar" unicode="|" horiz-adv-x="376" 
d="M254 767v-983h-132v983h132z" />
    <glyph glyph-name="braceright" unicode="}" horiz-adv-x="476" 
d="M176 612q0 20 -20 20h-91v132h115q140 0 140 -140v-210q0 -20 20 -20h81v-124h-81q-20 0 -20 -20v-216q0 -140 -140 -140h-115v132h91q20 0 20 20v194q0 36 17 57.5t37 34.5q-20 13 -37 34.5t-17 57.5v188z" />
    <glyph glyph-name="asciitilde" unicode="~" horiz-adv-x="532" 
d="M157 264h-80v25q0 29 7.5 50t20 35t29 20.5t33.5 6.5q22 0 47.5 -7t50.5 -16t47 -16t38 -7q21 0 21 21v19h82v-25q0 -58 -24.5 -85t-59.5 -27q-21 0 -47 7t-52.5 16t-50 16t-39.5 7q-11 0 -17 -4t-6 -17v-19z" />
    <glyph glyph-name="exclamdown" unicode="&#xa1;" horiz-adv-x="300" 
d="M230 540v-156h-160v156h160zM203 297l31 -457h-168l31 457h106z" />
    <glyph glyph-name="cent" unicode="&#xa2;" horiz-adv-x="608" 
d="M411 468q0 20 -20 20h-34v-270h34q20 0 20 20v54h130v-56q0 -140 -140 -140h-36v-96h-114v96h-42q-140 0 -140 140v234q0 140 140 140h42v90h114v-90h36q140 0 140 -140v-56h-130v54zM219 488q-20 0 -20 -20v-230q0 -20 20 -20h40v270h-40z" />
    <glyph glyph-name="sterling" unicode="&#xa3;" horiz-adv-x="651" 
d="M588 0h-551v132h62q20 0 20 20v131h-82v130h82v147q0 140 140 140h185q140 0 140 -140v-92h-144v80q0 20 -20 20h-137q-20 0 -20 -20v-135h144v-130h-144v-151h191v84h134v-216z" />
    <glyph glyph-name="currency" unicode="&#xa4;" horiz-adv-x="625" 
d="M519 278q0 -26 -5 -51l82 -82l-85 -86l-84 84q-23 -5 -48 -5h-133q-25 0 -48 5l-84 -84l-85 86l82 82q-5 25 -5 51v160q0 25 5 48l-82 82l85 86l81 -81q25 5 51 5h133q26 0 51 -5l81 81l85 -86l-82 -82q5 -23 5 -48v-160zM397 444q0 20 -20 20h-129q-20 0 -20 -20v-172
q0 -20 20 -20h129q20 0 20 20v172z" />
    <glyph glyph-name="yen" unicode="&#xa5;" horiz-adv-x="720" 
d="M509 378h76v-70h-115l-24 -44h139v-70h-153v-76h90v-118h-324v118h90v76h-153v70h139l-24 44h-115v70h76l-113 204h-78v118h282v-118h-50l109 -200l109 200h-50v118h280v-118h-78z" />
    <glyph glyph-name="brokenbar" unicode="&#xa6;" horiz-adv-x="376" 
d="M254 767v-386h-132v386h132zM122 -216v386h132v-386h-132z" />
    <glyph glyph-name="section" unicode="&#xa7;" horiz-adv-x="561" 
d="M353 564q0 20 -20 20h-104q-11 0 -15.5 -7t-4.5 -33q0 -24 4.5 -31.5t13.5 -9.5l159 -26q26 -4 47.5 -12t36.5 -26t23.5 -47.5t8.5 -77.5q0 -35 -3.5 -58t-9.5 -38t-13.5 -24.5t-14.5 -16.5q7 -6 13 -12.5t10.5 -17t7.5 -27.5t3 -42q0 -95 -34.5 -133.5t-105.5 -38.5
h-156q-140 0 -140 140v41h136v-39q0 -20 20 -20h124q11 0 15.5 7.5t4.5 36.5q0 26 -4.5 34t-13.5 10l-159 26q-29 5 -50.5 14.5t-36 27.5t-22 46.5t-7.5 70.5q0 34 3.5 56.5t9.5 37.5t14.5 25t17.5 18q-8 6 -14.5 13t-12 17.5t-8.5 26.5t-3 40q0 90 34.5 127.5t105.5 37.5
h136q140 0 140 -140v-28h-136v32zM345 232q5 -1 9 1t6.5 8.5t4 20t1.5 36.5q0 22 -1 35.5t-3.5 20.5t-6 9.5t-7.5 3.5l-124 20q-5 1 -9 -0.5t-7 -8.5t-4.5 -20t-1.5 -36t1 -36t3.5 -20.5t5.5 -10t8 -3.5z" />
    <glyph glyph-name="dieresis" unicode="&#xa8;" horiz-adv-x="664" 
d="M166 766v128h130v-128h-130zM368 766v128h130v-128h-130z" />
    <glyph glyph-name="copyright" unicode="&#xa9;" horiz-adv-x="871" 
d="M638 700q140 0 140 -140v-420q0 -140 -140 -140h-405q-140 0 -140 140v420q0 140 140 140h405zM686 562q0 52 -52 52h-397q-52 0 -52 -52v-424q0 -52 52 -52h397q52 0 52 52v424zM504 568q53 0 77.5 -24.5t24.5 -77.5v-68h-104v55q0 20 -20 20h-92q-20 0 -20 -20v-206
q0 -20 20 -20h92q20 0 20 20v55h104v-68q0 -53 -24.5 -77.5t-77.5 -24.5h-136q-53 0 -77.5 24.5t-24.5 77.5v232q0 53 24.5 77.5t77.5 24.5h136z" />
    <glyph glyph-name="ordfeminine" unicode="&#xaa;" horiz-adv-x="433" 
d="M401 349h-137v49q-6 -10 -13.5 -19.5t-19 -16.5t-27.5 -11.5t-39 -4.5q-58 0 -82 24t-24 81q0 28 6 46.5t18 30t30 17.5t43 10q33 5 56.5 6.5t51.5 3.5v45q0 12 -12 12h-84q-12 0 -12 -12v-22h-86v22q0 47 21.5 68.5t68.5 21.5h103q46 0 68 -21.5t22 -68.5v-185h48v-76z
M160 494q-7 -2 -9.5 -6t-2.5 -27t4.5 -28t24.5 -5q35 0 54 6t34 16v64zM401 295v-77h-334v77h334z" />
    <glyph glyph-name="guillemotleft" unicode="&#xab;" horiz-adv-x="558" 
d="M152 301l147 -207h-144l-128 181v52l128 182h144zM376 301l147 -207h-144l-128 181v52l128 182h144z" />
    <glyph glyph-name="registered" unicode="&#xae;" horiz-adv-x="388" 
d="M294 700q64 0 64 -64v-242q0 -64 -64 -64h-200q-64 0 -64 64v242q0 64 64 64h200zM321 639q0 26 -26 26h-202q-26 0 -26 -26v-248q0 -26 26 -26h202q26 0 26 26v248zM291 439v-33h-57l-35 86h-40v-53h20v-33h-78v33h20v152h-20v33h129q43 0 43 -43v-47q0 -39 -34 -43
l22 -52h30zM225 527q10 0 10 10v42q0 10 -10 10h-65v-62h65z" />
    <glyph glyph-name="macron" unicode="&#xaf;" horiz-adv-x="636" 
d="M448 776h-276v112h276v-112z" />
    <glyph glyph-name="degree" unicode="&#xb0;" horiz-adv-x="346" 
d="M129 488q-60 0 -60 60v92q0 60 60 60h88q60 0 60 -60v-92q0 -60 -60 -60h-88zM149 646q-16 0 -16 -16v-72q0 -16 16 -16h48q16 0 16 16v72q0 16 -16 16h-48z" />
    <glyph glyph-name="plusminus" unicode="&#xb1;" horiz-adv-x="532" 
d="M205 382h-137v122h137v127h122v-127h137v-122h-137v-127h-122v127zM464 200v-120h-396v120h396z" />
    <glyph glyph-name="uni00B2" unicode="&#xb2;" horiz-adv-x="385" 
d="M138 686h-91v34q0 48 21.5 69t68.5 21h119q48 0 69 -21t21 -69v-61q0 -20 -8.5 -33.5t-21.5 -22.5t-28 -14.5t-28 -8.5l-103 -28q-9 -2 -14.5 -5.5t-5.5 -11.5v-31h122v50h88v-140h-305v146q0 19 7 32.5t19 22.5t27.5 14.5t32.5 9.5l103 28q8 2 14 5.5t6 11.5v24
q0 8 -2 10t-10 2h-89q-8 0 -10 -2t-2 -10v-22z" />
    <glyph glyph-name="uni00B3" unicode="&#xb3;" horiz-adv-x="385" 
d="M132 537q0 -26 2 -31t10 -5h91q8 0 10 5t2 31t-2 31.5t-10 5.5h-91v83h86q8 0 10 5t2 28t-2 28t-10 5h-82q-8 0 -10 -5t-2 -28v-5h-94v11q0 65 21.5 89.5t68.5 24.5h114q46 0 68 -24.5t22 -89.5q0 -19 -1.5 -31.5t-6 -21.5t-11.5 -15t-18 -12q23 -11 32.5 -28t9.5 -58
q0 -66 -21 -91t-69 -25h-124q-48 0 -69 24.5t-21 91.5v9h95v-2z" />
    <glyph glyph-name="acute" unicode="&#xb4;" horiz-adv-x="439" 
d="M92 766l90 144h175l-149 -144h-116z" />
    <glyph glyph-name="paragraph" unicode="&#xb6;" horiz-adv-x="921" 
d="M771 582v-582h-144v564h-88v-564h-144v246h-190q-140 0 -140 140v174q0 140 140 140h644v-118h-78z" />
    <glyph glyph-name="periodcentered" unicode="&#xb7;" horiz-adv-x="274" 
d="M57 255v156h160v-156h-160z" />
    <glyph glyph-name="cedilla" unicode="&#xb8;" horiz-adv-x="589" 
d="M346 -73q0 -28 -6 -46t-18 -28.5t-29.5 -15t-40.5 -4.5h-75l-50 78h95q20 0 20 20v69h104v-73z" />
    <glyph glyph-name="uni00B9" unicode="&#xb9;" horiz-adv-x="320" 
d="M295 414h-270v78h88v220l-86 -24v77l106 45h74v-318h88v-78z" />
    <glyph glyph-name="ordmasculine" unicode="&#xba;" horiz-adv-x="412" 
d="M263 700q46 0 68 -21.5t22 -68.5v-171q0 -46 -21.5 -68t-68.5 -22h-114q-90 0 -90 90v171q0 46 21.5 68t68.5 22h114zM264 607q0 12 -12 12h-92q-12 0 -12 -12v-165q0 -12 12 -12h92q12 0 12 12v165zM345 218h-278v77h278v-77z" />
    <glyph glyph-name="guillemotright" unicode="&#xbb;" horiz-adv-x="558" 
d="M307 275l-128 -181h-144l147 207l-147 208h144l128 -182v-52zM531 275l-128 -181h-144l147 207l-147 208h144l128 -182v-52z" />
    <glyph glyph-name="onequarter" unicode="&#xbc;" horiz-adv-x="928" 
d="M25 384h88v220l-86 -24v77l106 45h74v-318h88v-78h-270v78zM282 0h-100l412 700h100zM834 78h60v-78h-237v78h85v34h-194l-21 50l229 234h78v-211h60v-73h-60v-34zM742 273l-89 -88h89v88z" />
    <glyph glyph-name="onehalf" unicode="&#xbd;" horiz-adv-x="941" 
d="M25 384h88v220l-86 -24v77l106 45h74v-318h88v-78h-270v78zM282 0h-100l412 700h100zM903 0h-305v146q0 19 7 32.5t19 22.5t27.5 14.5t32.5 9.5l103 28q8 2 14 5.5t6 11.5v24q0 8 -2 10t-10 2h-89q-8 0 -10 -2t-2 -10v-22h-91v34q0 48 21.5 69t68.5 21h119q48 0 69 -21
t21 -69v-61q0 -20 -8.5 -33.5t-21.5 -22.5t-28 -14.5t-28 -8.5l-103 -28q-9 -2 -14.5 -5.5t-5.5 -11.5v-31h122v50h88v-140z" />
    <glyph glyph-name="threequarters" unicode="&#xbe;" horiz-adv-x="993" 
d="M341 420q0 -66 -21 -91t-69 -25h-124q-48 0 -69 24.5t-21 91.5v9h95v-2q0 -26 2 -31t10 -5h91q8 0 10 5t2 31t-2 31.5t-10 5.5h-91v83h86q8 0 10 5t2 28t-2 28t-10 5h-82q-8 0 -10 -5t-2 -28v-5h-94v11q0 65 21.5 89.5t68.5 24.5h114q46 0 68 -24.5t22 -89.5
q0 -19 -1.5 -31.5t-6 -21.5t-11.5 -15t-18 -12q23 -11 32.5 -28t9.5 -58zM347 0h-100l412 700h100zM899 78h60v-78h-237v78h85v34h-194l-21 50l229 234h78v-211h60v-73h-60v-34zM807 273l-89 -88h89v88z" />
    <glyph glyph-name="questiondown" unicode="&#xbf;" horiz-adv-x="588" 
d="M263 540h144v-144h-144v144zM187 -160q-140 0 -140 140v111q0 24 11 42.5t30 34.5t45 31.5t56 33.5l40 24q20 12 27 18.5t7 15.5v35h144v-65q0 -23 -12 -41.5t-32 -35.5t-46 -33t-54 -34l-38 -24q-20 -13 -27 -19.5t-7 -14.5v-67q0 -20 20 -20h184q20 0 20 20v68h144v-80
q0 -140 -140 -140h-232z" />
    <glyph glyph-name="Agrave" unicode="&#xc0;" horiz-adv-x="784" 
d="M199 910h175l90 -144h-116zM764 0h-302v118h74l-29 92h-234l-29 -92h72v-118h-296v118h76l159 464h-80v118h314l199 -582h76v-118zM390 576l-79 -246h157z" />
    <glyph glyph-name="Aacute" unicode="&#xc1;" horiz-adv-x="784" 
d="M314 766l90 144h175l-149 -144h-116zM764 0h-302v118h74l-29 92h-234l-29 -92h72v-118h-296v118h76l159 464h-80v118h314l199 -582h76v-118zM390 576l-79 -246h157z" />
    <glyph glyph-name="Acircumflex" unicode="&#xc2;" horiz-adv-x="784" 
d="M199 766l130 130h120l130 -130h-129l-61 63l-61 -63h-129zM764 0h-302v118h74l-29 92h-234l-29 -92h72v-118h-296v118h76l159 464h-80v118h314l199 -582h76v-118zM390 576l-79 -246h157z" />
    <glyph glyph-name="Atilde" unicode="&#xc3;" horiz-adv-x="784" 
d="M226 764v25q0 58 24.5 85t59.5 27q22 0 41.5 -7t36.5 -16t33 -16t32 -7q21 0 21 21v19h76v-25q0 -58 -21.5 -85t-56.5 -27q-21 0 -41 7t-38.5 16t-36 16t-33.5 7q-11 0 -17 -4t-6 -17v-19h-74zM764 0h-302v118h74l-29 92h-234l-29 -92h72v-118h-296v118h76l159 464h-80
v118h314l199 -582h76v-118zM390 576l-79 -246h157z" />
    <glyph glyph-name="Adieresis" unicode="&#xc4;" horiz-adv-x="784" 
d="M223 766v128h130v-128h-130zM425 766v128h130v-128h-130zM764 0h-302v118h74l-29 92h-234l-29 -92h72v-118h-296v118h76l159 464h-80v118h314l199 -582h76v-118zM390 576l-79 -246h157z" />
    <glyph glyph-name="Aring" unicode="&#xc5;" horiz-adv-x="784" 
d="M353 766q-32 0 -46 14t-14 46v60q0 32 14 46t46 14h72q32 0 46 -14t14 -46v-60q0 -32 -14 -46t-46 -14h-72zM355 834q0 -8 2 -10t10 -2h44q8 0 10 2t2 10v44q0 8 -2 10t-10 2h-44q-8 0 -10 -2t-2 -10v-44zM764 0h-302v118h74l-29 92h-234l-29 -92h72v-118h-296v118h76
l159 464h-80v118h314l199 -582h76v-118zM390 576l-79 -246h157z" />
    <glyph glyph-name="AE" unicode="&#xc6;" horiz-adv-x="1039" 
d="M982 484h-126v94h-201v-158h245v-130h-245v-168h201v94h126v-216h-559v118h88v92h-225l-46 -92h78v-118h-316v118h78l241 464h-76v118h737v-216zM511 566h-50l-112 -228h162v228z" />
    <glyph glyph-name="Ccedilla" unicode="&#xc7;" horiz-adv-x="646" 
d="M444 548q0 20 -20 20h-192q-20 0 -20 -20v-396q0 -20 20 -20h192q20 0 20 20v102h144v-114q0 -140 -140 -140h-67v-73q0 -28 -6 -46t-18 -28.5t-29.5 -15t-40.5 -4.5h-75l-50 78h95q20 0 20 20v69h-69q-140 0 -140 140v420q0 140 140 140h240q140 0 140 -140v-114h-144
v102z" />
    <glyph glyph-name="Egrave" unicode="&#xc8;" horiz-adv-x="652" 
d="M151 910h175l90 -144h-116zM469 578h-201v-158h245v-130h-245v-168h201v94h126v-216h-559v118h88v464h-88v118h559v-216h-126v94z" />
    <glyph glyph-name="Eacute" unicode="&#xc9;" horiz-adv-x="652" 
d="M266 766l90 144h175l-149 -144h-116zM469 578h-201v-158h245v-130h-245v-168h201v94h126v-216h-559v118h88v464h-88v118h559v-216h-126v94z" />
    <glyph glyph-name="Ecircumflex" unicode="&#xca;" horiz-adv-x="652" 
d="M151 766l130 130h120l130 -130h-129l-61 63l-61 -63h-129zM469 578h-201v-158h245v-130h-245v-168h201v94h126v-216h-559v118h88v464h-88v118h559v-216h-126v94z" />
    <glyph glyph-name="Edieresis" unicode="&#xcb;" horiz-adv-x="652" 
d="M175 766v128h130v-128h-130zM377 766v128h130v-128h-130zM469 578h-201v-158h245v-130h-245v-168h201v94h126v-216h-559v118h88v464h-88v118h559v-216h-126v94z" />
    <glyph glyph-name="Igrave" unicode="&#xcc;" horiz-adv-x="408" 
d="M14 910h175l90 -144h-116zM276 118h92v-118h-328v118h92v464h-92v118h328v-118h-92v-464z" />
    <glyph glyph-name="Iacute" unicode="&#xcd;" horiz-adv-x="408" 
d="M129 766l90 144h175l-149 -144h-116zM368 582h-92v-464h92v-118h-328v118h92v464h-92v118h328v-118z" />
    <glyph glyph-name="Icircumflex" unicode="&#xce;" horiz-adv-x="408" 
d="M14 766l130 130h120l130 -130h-129l-61 63l-61 -63h-129zM368 582h-92v-464h92v-118h-328v118h92v464h-92v118h328v-118z" />
    <glyph glyph-name="Idieresis" unicode="&#xcf;" horiz-adv-x="408" 
d="M38 766v128h130v-128h-130zM370 766h-130v128h130v-128zM368 582h-92v-464h92v-118h-328v118h92v464h-92v118h328v-118z" />
    <glyph glyph-name="Eth" unicode="&#xd0;" horiz-adv-x="715" 
d="M507 700q140 0 140 -140v-420q0 -140 -140 -140h-471v118h88v172h-72v144h72v148h-88v118h471zM503 548q0 20 -20 20h-215v-134h72v-144h-72v-158h215q20 0 20 20v396z" />
    <glyph glyph-name="Ntilde" unicode="&#xd1;" horiz-adv-x="790" 
d="M235 764v25q0 58 24.5 85t59.5 27q22 0 41.5 -7t36.5 -16t33 -16t32 -7q21 0 21 21v19h76v-25q0 -58 -21.5 -85t-56.5 -27q-21 0 -41 7t-38.5 16t-36 16t-33.5 7q-11 0 -17 -4t-6 -17v-19h-74zM674 582v-582h-149l-263 481v-363h96v-118h-322v118h88v464h-88v118h246
l254 -465v347h-96v118h318v-118h-84z" />
    <glyph glyph-name="Ograve" unicode="&#xd2;" horiz-adv-x="669" 
d="M294 766l-149 144h175l90 -144h-116zM461 0q140 0 140 140v420q0 140 -140 140h-253q-140 0 -140 -140v-420q0 -140 140 -140h253zM212 548q0 20 20 20h205q20 0 20 -20v-396q0 -20 -20 -20h-205q-20 0 -20 20v396z" />
    <glyph glyph-name="Oacute" unicode="&#xd3;" horiz-adv-x="669" 
d="M260 766l90 144h175l-149 -144h-116zM208 0q-140 0 -140 140v420q0 140 140 140h253q140 0 140 -140v-420q0 -140 -140 -140h-253zM212 152q0 -20 20 -20h205q20 0 20 20v396q0 20 -20 20h-205q-20 0 -20 -20v-396z" />
    <glyph glyph-name="Ocircumflex" unicode="&#xd4;" horiz-adv-x="669" 
d="M274 766h-129l130 130h120l130 -130h-129l-61 63zM461 0q140 0 140 140v420q0 140 -140 140h-253q-140 0 -140 -140v-420q0 -140 140 -140h253zM212 548q0 20 20 20h205q20 0 20 -20v-396q0 -20 -20 -20h-205q-20 0 -20 20v396z" />
    <glyph glyph-name="Otilde" unicode="&#xd5;" horiz-adv-x="669" 
d="M246 764h-74v25q0 58 24.5 85t59.5 27q22 0 41.5 -7t36.5 -16t33 -16t32 -7q21 0 21 21v19h76v-25q0 -58 -21.5 -85t-56.5 -27q-21 0 -41 7t-38.5 16t-36 16t-33.5 7q-11 0 -17 -4t-6 -17v-19zM461 0q140 0 140 140v420q0 140 -140 140h-253q-140 0 -140 -140v-420
q0 -140 140 -140h253zM212 548q0 20 20 20h205q20 0 20 -20v-396q0 -20 -20 -20h-205q-20 0 -20 20v396z" />
    <glyph glyph-name="Odieresis" unicode="&#xd6;" horiz-adv-x="669" 
d="M169 766v128h130v-128h-130zM371 766v128h130v-128h-130zM208 0q-140 0 -140 140v420q0 140 140 140h253q140 0 140 -140v-420q0 -140 -140 -140h-253zM212 152q0 -20 20 -20h205q20 0 20 20v396q0 20 -20 20h-205q-20 0 -20 -20v-396z" />
    <glyph glyph-name="multiply" unicode="&#xd7;" horiz-adv-x="532" 
d="M459 223l-82 -82l-110 111l-111 -111l-82 82l111 111l-111 110l82 82l111 -110l110 110l82 -82l-110 -110z" />
    <glyph glyph-name="Oslash" unicode="&#xd8;" horiz-adv-x="669" 
d="M532 688q69 -28 69 -128v-420q0 -140 -140 -140h-203l-24 -60h-126l29 72q-69 28 -69 128v420q0 140 140 140h203l24 60h126zM358 568h-126q-20 0 -20 -20v-347zM437 132q20 0 20 20v347l-146 -367h126z" />
    <glyph glyph-name="Ugrave" unicode="&#xd9;" horiz-adv-x="754" 
d="M187 910h175l90 -144h-116zM638 582v-442q0 -140 -140 -140h-242q-140 0 -140 140v442h-84v118h316v-118h-88v-430q0 -20 20 -20h194q20 0 20 20v430h-88v118h316v-118h-84z" />
    <glyph glyph-name="Uacute" unicode="&#xda;" horiz-adv-x="754" 
d="M302 766l90 144h175l-149 -144h-116zM638 582v-442q0 -140 -140 -140h-242q-140 0 -140 140v442h-84v118h316v-118h-88v-430q0 -20 20 -20h194q20 0 20 20v430h-88v118h316v-118h-84z" />
    <glyph glyph-name="Ucircumflex" unicode="&#xdb;" horiz-adv-x="754" 
d="M187 766l130 130h120l130 -130h-129l-61 63l-61 -63h-129zM638 582v-442q0 -140 -140 -140h-242q-140 0 -140 140v442h-84v118h316v-118h-88v-430q0 -20 20 -20h194q20 0 20 20v430h-88v118h316v-118h-84z" />
    <glyph glyph-name="Udieresis" unicode="&#xdc;" horiz-adv-x="754" 
d="M211 766v128h130v-128h-130zM413 766v128h130v-128h-130zM638 582v-442q0 -140 -140 -140h-242q-140 0 -140 140v442h-84v118h316v-118h-88v-430q0 -20 20 -20h194q20 0 20 20v430h-88v118h316v-118h-84z" />
    <glyph glyph-name="Yacute" unicode="&#xdd;" horiz-adv-x="720" 
d="M286 766l90 144h175l-149 -144h-116zM432 118h90v-118h-324v118h90v123l-190 341h-78v118h282v-118h-49l108 -200l108 200h-49v118h280v-118h-78l-190 -341v-123z" />
    <glyph glyph-name="Thorn" unicode="&#xde;" horiz-adv-x="676" 
d="M490 577q140 0 140 -140v-162q0 -140 -140 -140h-218v-135h-232v118h88v464h-88v118h232v-123h218zM486 429q0 20 -20 20h-194v-186h194q20 0 20 20v146z" />
    <glyph glyph-name="germandbls" unicode="&#xdf;" horiz-adv-x="612" 
d="M491 374q19 -9 32.5 -21.5t22 -32t12.5 -49t4 -71.5q0 -59 -8 -98t-24 -61.5t-40.5 -31.5t-57.5 -9h-135v120h103q6 0 10 2.5t7 12t4 29t1 54.5q0 34 -1 54t-4 29.5t-7 12t-10 2.5h-103v116h95q6 0 10 2t7 11t4 27t1 49t-1 49t-4 27t-7 11t-10 2h-130q-22 0 -22 -22v-588
h-210v102h72v498q0 67 32 98.5t98 31.5h192q33 0 57.5 -9t40.5 -30.5t24 -58.5t8 -93q0 -39 -3.5 -66t-11 -45.5t-19.5 -31t-29 -22.5z" />
    <glyph glyph-name="agrave" unicode="&#xe0;" horiz-adv-x="594" 
d="M97 750h175l90 -144h-116zM566 0h-210v84q-14 -19 -28 -34.5t-33 -26.5t-45 -17t-63 -6q-78 0 -111.5 34.5t-33.5 118.5q0 42 9.5 71.5t27.5 48.5t44 29t59 15t78 9.5t96 6.5v72q0 22 -22 22h-116q-22 0 -22 -22v-32h-136v37q0 67 31.5 98.5t98.5 31.5h174
q67 0 98.5 -31.5t31.5 -98.5v-308h72v-102zM213 218q-20 -4 -27.5 -12t-7.5 -39q0 -32 6.5 -40.5t29.5 -8.5q25 0 44.5 3t36 8t31.5 12t30 15v89z" />
    <glyph glyph-name="aacute" unicode="&#xe1;" horiz-adv-x="594" 
d="M212 606l90 144h175l-149 -144h-116zM566 0h-210v84q-14 -19 -28 -34.5t-33 -26.5t-45 -17t-63 -6q-78 0 -111.5 34.5t-33.5 118.5q0 42 9.5 71.5t27.5 48.5t44 29t59 15t78 9.5t96 6.5v72q0 22 -22 22h-116q-22 0 -22 -22v-32h-136v37q0 67 31.5 98.5t98.5 31.5h174
q67 0 98.5 -31.5t31.5 -98.5v-308h72v-102zM213 218q-20 -4 -27.5 -12t-7.5 -39q0 -32 6.5 -40.5t29.5 -8.5q25 0 44.5 3t36 8t31.5 12t30 15v89z" />
    <glyph glyph-name="acircumflex" unicode="&#xe2;" horiz-adv-x="594" 
d="M97 606l130 130h120l130 -130h-129l-61 63l-61 -63h-129zM566 0h-210v84q-14 -19 -28 -34.5t-33 -26.5t-45 -17t-63 -6q-78 0 -111.5 34.5t-33.5 118.5q0 42 9.5 71.5t27.5 48.5t44 29t59 15t78 9.5t96 6.5v72q0 22 -22 22h-116q-22 0 -22 -22v-32h-136v37
q0 67 31.5 98.5t98.5 31.5h174q67 0 98.5 -31.5t31.5 -98.5v-308h72v-102zM213 218q-20 -4 -27.5 -12t-7.5 -39q0 -32 6.5 -40.5t29.5 -8.5q25 0 44.5 3t36 8t31.5 12t30 15v89z" />
    <glyph glyph-name="atilde" unicode="&#xe3;" horiz-adv-x="594" 
d="M124 604v25q0 58 24.5 85t59.5 27q22 0 41.5 -7t36.5 -16t33 -16t32 -7q21 0 21 21v19h76v-25q0 -58 -21.5 -85t-56.5 -27q-21 0 -41 7t-38.5 16t-36 16t-33.5 7q-11 0 -17 -4t-6 -17v-19h-74zM566 0h-210v84q-14 -19 -28 -34.5t-33 -26.5t-45 -17t-63 -6
q-78 0 -111.5 34.5t-33.5 118.5q0 42 9.5 71.5t27.5 48.5t44 29t59 15t78 9.5t96 6.5v72q0 22 -22 22h-116q-22 0 -22 -22v-32h-136v37q0 67 31.5 98.5t98.5 31.5h174q67 0 98.5 -31.5t31.5 -98.5v-308h72v-102zM213 218q-20 -4 -27.5 -12t-7.5 -39q0 -32 6.5 -40.5
t29.5 -8.5q25 0 44.5 3t36 8t31.5 12t30 15v89z" />
    <glyph glyph-name="adieresis" unicode="&#xe4;" horiz-adv-x="594" 
d="M121 606v128h130v-128h-130zM323 606v128h130v-128h-130zM566 0h-210v84q-14 -19 -28 -34.5t-33 -26.5t-45 -17t-63 -6q-78 0 -111.5 34.5t-33.5 118.5q0 42 9.5 71.5t27.5 48.5t44 29t59 15t78 9.5t96 6.5v72q0 22 -22 22h-116q-22 0 -22 -22v-32h-136v37
q0 67 31.5 98.5t98.5 31.5h174q67 0 98.5 -31.5t31.5 -98.5v-308h72v-102zM213 218q-20 -4 -27.5 -12t-7.5 -39q0 -32 6.5 -40.5t29.5 -8.5q25 0 44.5 3t36 8t31.5 12t30 15v89z" />
    <glyph glyph-name="aring" unicode="&#xe5;" horiz-adv-x="594" 
d="M251 606q-32 0 -46 14t-14 46v60q0 32 14 46t46 14h72q32 0 46 -14t14 -46v-60q0 -32 -14 -46t-46 -14h-72zM253 674q0 -8 2 -10t10 -2h44q8 0 10 2t2 10v44q0 8 -2 10t-10 2h-44q-8 0 -10 -2t-2 -10v-44zM566 0h-210v84q-14 -19 -28 -34.5t-33 -26.5t-45 -17t-63 -6
q-78 0 -111.5 34.5t-33.5 118.5q0 42 9.5 71.5t27.5 48.5t44 29t59 15t78 9.5t96 6.5v72q0 22 -22 22h-116q-22 0 -22 -22v-32h-136v37q0 67 31.5 98.5t98.5 31.5h174q67 0 98.5 -31.5t31.5 -98.5v-308h72v-102zM213 218q-20 -4 -27.5 -12t-7.5 -39q0 -32 6.5 -40.5
t29.5 -8.5q25 0 44.5 3t36 8t31.5 12t30 15v89z" />
    <glyph glyph-name="ae" unicode="&#xe6;" horiz-adv-x="851" 
d="M494 134q0 -22 22 -22h127q22 0 22 22v42h138v-46q0 -67 -31.5 -98.5t-98.5 -31.5h-187q-108 0 -126 87q-21 -35 -63 -61t-110 -26q-78 0 -111.5 34.5t-33.5 118.5q0 42 9.5 71.5t27.5 48.5t44 29t59 15t78 9.5t96 6.5v72q0 22 -22 22h-116q-22 0 -22 -22v-32h-136v37
q0 67 31.5 98.5t98.5 31.5h174q29 0 42.5 -6.5t18.5 -18.5q5 12 18.5 18.5t42.5 6.5h187q67 0 98.5 -31.5t31.5 -98.5v-179h-309v-97zM665 406q0 22 -22 22h-127q-22 0 -22 -22v-82h171v82zM213 218q-20 -4 -27.5 -12t-7.5 -39q0 -32 6.5 -40.5t29.5 -8.5q25 0 44.5 3t36 8
t31.5 12t30 15v89z" />
    <glyph glyph-name="ccedilla" unicode="&#xe7;" horiz-adv-x="535" 
d="M351 398q0 22 -22 22h-117q-22 0 -22 -22v-256q0 -22 22 -22h117q22 0 22 22v56h138v-68q0 -67 -31.5 -98.5t-98.5 -31.5h-30v-73q0 -28 -6 -46t-18 -28.5t-29.5 -15t-40.5 -4.5h-75l-50 78h95q20 0 20 20v69h-43q-67 0 -98.5 31.5t-31.5 98.5v280q0 67 31.5 98.5
t98.5 31.5h177q67 0 98.5 -31.5t31.5 -98.5v-68h-138v56z" />
    <glyph glyph-name="egrave" unicode="&#xe8;" horiz-adv-x="545" 
d="M85 750h175l90 -144h-116zM190 134q0 -22 22 -22h125q22 0 22 22v42h138v-46q0 -67 -31.5 -98.5t-98.5 -31.5h-185q-67 0 -98.5 31.5t-31.5 98.5v280q0 67 31.5 98.5t98.5 31.5h185q67 0 98.5 -31.5t31.5 -98.5v-179h-307v-97zM212 428q-22 0 -22 -22v-82h169v82
q0 22 -22 22h-125z" />
    <glyph glyph-name="eacute" unicode="&#xe9;" horiz-adv-x="545" 
d="M200 606l90 144h175l-149 -144h-116zM190 134q0 -22 22 -22h125q22 0 22 22v42h138v-46q0 -67 -31.5 -98.5t-98.5 -31.5h-185q-67 0 -98.5 31.5t-31.5 98.5v280q0 67 31.5 98.5t98.5 31.5h185q67 0 98.5 -31.5t31.5 -98.5v-179h-307v-97zM212 428q-22 0 -22 -22v-82h169
v82q0 22 -22 22h-125z" />
    <glyph glyph-name="ecircumflex" unicode="&#xea;" horiz-adv-x="545" 
d="M85 606l130 130h120l130 -130h-129l-61 63l-61 -63h-129zM190 134q0 -22 22 -22h125q22 0 22 22v42h138v-46q0 -67 -31.5 -98.5t-98.5 -31.5h-185q-67 0 -98.5 31.5t-31.5 98.5v280q0 67 31.5 98.5t98.5 31.5h185q67 0 98.5 -31.5t31.5 -98.5v-179h-307v-97zM212 428
q-22 0 -22 -22v-82h169v82q0 22 -22 22h-125z" />
    <glyph glyph-name="edieresis" unicode="&#xeb;" horiz-adv-x="545" 
d="M109 606v128h130v-128h-130zM311 606v128h130v-128h-130zM190 134q0 -22 22 -22h125q22 0 22 22v42h138v-46q0 -67 -31.5 -98.5t-98.5 -31.5h-185q-67 0 -98.5 31.5t-31.5 98.5v280q0 67 31.5 98.5t98.5 31.5h185q67 0 98.5 -31.5t31.5 -98.5v-179h-307v-97zM212 428
q-22 0 -22 -22v-82h169v82q0 22 -22 22h-125z" />
    <glyph glyph-name="igrave" unicode="&#xec;" horiz-adv-x="368" 
d="M-8 730h175l90 -144h-116zM332 0h-294v102h80v336h-80v102h218v-438h76v-102z" />
    <glyph glyph-name="iacute" unicode="&#xed;" horiz-adv-x="368" 
d="M74 586l90 144h175l-149 -144h-116zM332 102v-102h-294v102h80v336h-80v102h218v-438h76z" />
    <glyph glyph-name="icircumflex" unicode="&#xee;" horiz-adv-x="368" 
d="M-7 586l130 130h120l130 -130h-129l-61 63l-61 -63h-129zM332 102v-102h-294v102h80v336h-80v102h218v-438h76z" />
    <glyph glyph-name="idieresis" unicode="&#xef;" horiz-adv-x="368" 
d="M21 598v128h130v-128h-130zM353 598h-130v128h130v-128zM332 102v-102h-294v102h80v336h-80v102h218v-438h76z" />
    <glyph glyph-name="eth" unicode="&#xf0;" horiz-adv-x="566" 
d="M383 675q41 -10 66.5 -24.5t40 -34t19.5 -45t5 -57.5v-384q0 -67 -31.5 -98.5t-98.5 -31.5h-202q-67 0 -98.5 31.5t-31.5 98.5v244q0 75 34 107.5t116 32.5q39 0 66 -6t46.5 -17t33.5 -26.5t28 -34.5v94q0 25 -7 34.5t-27 17.5l-41 15l-38 -38h-116l68 69l-81 30v84
l156 -38l42 43h116zM376 358q-15 8 -30 14t-32 10t-37.5 6t-46.5 2t-33 -6t-7 -26v-216q0 -22 22 -22h142q22 0 22 22v216z" />
    <glyph glyph-name="ntilde" unicode="&#xf1;" 
d="M174 604v25q0 58 24.5 85t59.5 27q22 0 41.5 -7t36.5 -16t33 -16t32 -7q21 0 21 21v19h76v-25q0 -58 -21.5 -85t-56.5 -27q-21 0 -41 7t-38.5 16t-36 16t-33.5 7q-11 0 -17 -4t-6 -17v-19h-74zM632 0h-272v102h62v293q0 15 -6.5 20.5t-28.5 5.5q-25 0 -45 -2t-36.5 -6
t-31.5 -10t-30 -14v-287h62v-102h-276v102h76v336h-76v102h214v-79q13 19 27.5 34.5t34 26.5t45.5 17t63 6q79 0 112.5 -32t33.5 -102v-309h72v-102z" />
    <glyph glyph-name="ograve" unicode="&#xf2;" horiz-adv-x="553" 
d="M236 606l-149 144h175l90 -144h-116zM182 540q-67 0 -98.5 -31.5t-31.5 -98.5v-280q0 -67 31.5 -98.5t98.5 -31.5h189q67 0 98.5 31.5t31.5 98.5v280q0 67 -31.5 98.5t-98.5 31.5h-189zM363 142q0 -22 -22 -22h-129q-22 0 -22 22v256q0 22 22 22h129q22 0 22 -22v-256z
" />
    <glyph glyph-name="oacute" unicode="&#xf3;" horiz-adv-x="553" 
d="M202 606l90 144h175l-149 -144h-116zM371 540q67 0 98.5 -31.5t31.5 -98.5v-280q0 -67 -31.5 -98.5t-98.5 -31.5h-189q-67 0 -98.5 31.5t-31.5 98.5v280q0 67 31.5 98.5t98.5 31.5h189zM363 398q0 22 -22 22h-129q-22 0 -22 -22v-256q0 -22 22 -22h129q22 0 22 22v256z
" />
    <glyph glyph-name="ocircumflex" unicode="&#xf4;" horiz-adv-x="553" 
d="M216 606h-129l130 130h120l130 -130h-129l-61 63zM182 540q-67 0 -98.5 -31.5t-31.5 -98.5v-280q0 -67 31.5 -98.5t98.5 -31.5h189q67 0 98.5 31.5t31.5 98.5v280q0 67 -31.5 98.5t-98.5 31.5h-189zM363 142q0 -22 -22 -22h-129q-22 0 -22 22v256q0 22 22 22h129
q22 0 22 -22v-256z" />
    <glyph glyph-name="otilde" unicode="&#xf5;" horiz-adv-x="553" 
d="M188 604h-74v25q0 58 24.5 85t59.5 27q22 0 41.5 -7t36.5 -16t33 -16t32 -7q21 0 21 21v19h76v-25q0 -58 -21.5 -85t-56.5 -27q-21 0 -41 7t-38.5 16t-36 16t-33.5 7q-11 0 -17 -4t-6 -17v-19zM182 540q-67 0 -98.5 -31.5t-31.5 -98.5v-280q0 -67 31.5 -98.5t98.5 -31.5
h189q67 0 98.5 31.5t31.5 98.5v280q0 67 -31.5 98.5t-98.5 31.5h-189zM363 142q0 -22 -22 -22h-129q-22 0 -22 22v256q0 22 22 22h129q22 0 22 -22v-256z" />
    <glyph glyph-name="odieresis" unicode="&#xf6;" horiz-adv-x="553" 
d="M111 606v128h130v-128h-130zM313 606v128h130v-128h-130zM371 540q67 0 98.5 -31.5t31.5 -98.5v-280q0 -67 -31.5 -98.5t-98.5 -31.5h-189q-67 0 -98.5 31.5t-31.5 98.5v280q0 67 31.5 98.5t98.5 31.5h189zM363 398q0 22 -22 22h-129q-22 0 -22 -22v-256q0 -22 22 -22
h129q22 0 22 22v256z" />
    <glyph glyph-name="divide" unicode="&#xf7;" horiz-adv-x="532" 
d="M200 507v132h132v-132h-132zM484 437v-134h-436v134h436zM200 101v132h132v-132h-132z" />
    <glyph glyph-name="oslash" unicode="&#xf8;" horiz-adv-x="553" 
d="M432 531q69 -25 69 -121v-280q0 -67 -31.5 -98.5t-98.5 -31.5h-150l-24 -60h-100l27 68q-72 24 -72 122v280q0 67 31.5 98.5t98.5 31.5h154l24 60h100zM288 420h-76q-22 0 -22 -22v-225zM341 120q22 0 22 22v215l-94 -237h72z" />
    <glyph glyph-name="ugrave" unicode="&#xf9;" horiz-adv-x="650" 
d="M127 750h175l90 -144h-116zM624 0h-210v79q-14 -19 -28 -34.5t-33.5 -26.5t-45.5 -17t-63 -6q-79 0 -112.5 32t-33.5 102v309h-70v102h208v-391q0 -15 6.5 -20.5t28.5 -5.5q25 0 45 2t36.5 6t31.5 10t30 14v283h-86v102h224v-438h72v-102z" />
    <glyph glyph-name="uacute" unicode="&#xfa;" horiz-adv-x="650" 
d="M242 606l90 144h175l-149 -144h-116zM624 0h-210v79q-14 -19 -28 -34.5t-33.5 -26.5t-45.5 -17t-63 -6q-79 0 -112.5 32t-33.5 102v309h-70v102h208v-391q0 -15 6.5 -20.5t28.5 -5.5q25 0 45 2t36.5 6t31.5 10t30 14v283h-86v102h224v-438h72v-102z" />
    <glyph glyph-name="ucircumflex" unicode="&#xfb;" horiz-adv-x="650" 
d="M127 606l130 130h120l130 -130h-129l-61 63l-61 -63h-129zM624 0h-210v79q-14 -19 -28 -34.5t-33.5 -26.5t-45.5 -17t-63 -6q-79 0 -112.5 32t-33.5 102v309h-70v102h208v-391q0 -15 6.5 -20.5t28.5 -5.5q25 0 45 2t36.5 6t31.5 10t30 14v283h-86v102h224v-438h72v-102z
" />
    <glyph glyph-name="udieresis" unicode="&#xfc;" horiz-adv-x="650" 
d="M151 606v128h130v-128h-130zM353 606v128h130v-128h-130zM624 0h-210v79q-14 -19 -28 -34.5t-33.5 -26.5t-45.5 -17t-63 -6q-79 0 -112.5 32t-33.5 102v309h-70v102h208v-391q0 -15 6.5 -20.5t28.5 -5.5q25 0 45 2t36.5 6t31.5 10t30 14v283h-86v102h224v-438h72v-102z
" />
    <glyph glyph-name="yacute" unicode="&#xfd;" horiz-adv-x="596" 
d="M226 606l90 144h175l-149 -144h-116zM344 -58h61v-102h-278v102h80l19 58l-154 438h-56v102h248v-102h-51l85 -301l90 301h-50v102h242v-102h-57z" />
    <glyph glyph-name="thorn" unicode="&#xfe;" horiz-adv-x="620" 
d="M418 544q82 0 116 -32.5t34 -107.5v-268q0 -75 -34 -107.5t-116 -32.5q-39 0 -66 6t-46.5 17t-34 26.5t-27.5 34.5v-138h92v-102h-306v102h76v686h-76v102h214v-270q13 19 27.5 34.5t34 26.5t46.5 17t66 6zM430 388q0 20 -7 26t-32 6q-27 0 -47.5 -2t-37.5 -6t-32 -10
t-30 -14v-236q15 -8 30 -14t32 -10t37.5 -6t47.5 -2q25 0 32 6t7 26v236z" />
    <glyph glyph-name="ydieresis" unicode="&#xff;" horiz-adv-x="596" 
d="M135 606v128h130v-128h-130zM337 606v128h130v-128h-130zM344 -58h61v-102h-278v102h80l19 58l-154 438h-56v102h248v-102h-51l85 -301l90 301h-50v102h242v-102h-57z" />
    <glyph glyph-name="Amacron" unicode="&#x100;" horiz-adv-x="784" 
d="M251 776v112h276v-112h-276zM764 0h-302v118h74l-29 92h-234l-29 -92h72v-118h-296v118h76l159 464h-80v118h314l199 -582h76v-118zM390 576l-79 -246h157z" />
    <glyph glyph-name="amacron" unicode="&#x101;" horiz-adv-x="594" 
d="M149 616v112h276v-112h-276zM566 0h-210v84q-14 -19 -28 -34.5t-33 -26.5t-45 -17t-63 -6q-78 0 -111.5 34.5t-33.5 118.5q0 42 9.5 71.5t27.5 48.5t44 29t59 15t78 9.5t96 6.5v72q0 22 -22 22h-116q-22 0 -22 -22v-32h-136v37q0 67 31.5 98.5t98.5 31.5h174
q67 0 98.5 -31.5t31.5 -98.5v-308h72v-102zM213 218q-20 -4 -27.5 -12t-7.5 -39q0 -32 6.5 -40.5t29.5 -8.5q25 0 44.5 3t36 8t31.5 12t30 15v89z" />
    <glyph glyph-name="Abreve" unicode="&#x102;" horiz-adv-x="784" 
d="M350 766q-80 0 -80 80v55h84v-43q0 -11 3.5 -14.5t14.5 -3.5h34q11 0 14.5 3.5t3.5 14.5v43h84v-55q0 -80 -80 -80h-78zM764 0h-302v118h74l-29 92h-234l-29 -92h72v-118h-296v118h76l159 464h-80v118h314l199 -582h76v-118zM390 576l-79 -246h157z" />
    <glyph glyph-name="abreve" unicode="&#x103;" horiz-adv-x="594" 
d="M248 606q-80 0 -80 80v55h84v-43q0 -11 3.5 -14.5t14.5 -3.5h34q11 0 14.5 3.5t3.5 14.5v43h84v-55q0 -80 -80 -80h-78zM566 0h-210v84q-14 -19 -28 -34.5t-33 -26.5t-45 -17t-63 -6q-78 0 -111.5 34.5t-33.5 118.5q0 42 9.5 71.5t27.5 48.5t44 29t59 15t78 9.5t96 6.5
v72q0 22 -22 22h-116q-22 0 -22 -22v-32h-136v37q0 67 31.5 98.5t98.5 31.5h174q67 0 98.5 -31.5t31.5 -98.5v-308h72v-102zM213 218q-20 -4 -27.5 -12t-7.5 -39q0 -32 6.5 -40.5t29.5 -8.5q25 0 44.5 3t36 8t31.5 12t30 15v89z" />
    <glyph glyph-name="Aogonek" unicode="&#x104;" horiz-adv-x="784" 
d="M764 0h-64q-31 -17 -41.5 -32.5t-10.5 -28.5q0 -26 32 -26h39v-93h-68q-51 0 -81 17t-30 62q0 39 19.5 63t37.5 38h-135v118h74l-29 92h-234l-29 -92h72v-118h-296v118h76l159 464h-80v118h314l199 -582h76v-118zM390 576l-79 -246h157z" />
    <glyph glyph-name="aogonek" unicode="&#x105;" horiz-adv-x="594" 
d="M585 -180h-68q-51 0 -81 17t-30 62q0 39 19.5 63t37.5 38h-107v84q-14 -19 -28 -34.5t-33 -26.5t-45 -17t-63 -6q-78 0 -111.5 34.5t-33.5 118.5q0 42 9.5 71.5t27.5 48.5t44 29t59 15t78 9.5t96 6.5v72q0 22 -22 22h-116q-22 0 -22 -22v-32h-136v37q0 67 31.5 98.5
t98.5 31.5h174q67 0 98.5 -31.5t31.5 -98.5v-308h72v-102q-31 -17 -41.5 -32.5t-10.5 -28.5q0 -26 32 -26h39v-93zM213 218q-20 -4 -27.5 -12t-7.5 -39q0 -32 6.5 -40.5t29.5 -8.5q25 0 44.5 3t36 8t31.5 12t30 15v89z" />
    <glyph glyph-name="Cacute" unicode="&#x106;" horiz-adv-x="646" 
d="M254 766l90 144h175l-149 -144h-116zM208 0q-140 0 -140 140v420q0 140 140 140h240q140 0 140 -140v-114h-144v102q0 20 -20 20h-192q-20 0 -20 -20v-396q0 -20 20 -20h192q20 0 20 20v102h144v-114q0 -140 -140 -140h-240z" />
    <glyph glyph-name="cacute" unicode="&#x107;" horiz-adv-x="535" 
d="M198 606l90 144h175l-149 -144h-116zM359 540q67 0 98.5 -31.5t31.5 -98.5v-68h-138v56q0 22 -22 22h-117q-22 0 -22 -22v-256q0 -22 22 -22h117q22 0 22 22v56h138v-68q0 -67 -31.5 -98.5t-98.5 -31.5h-177q-67 0 -98.5 31.5t-31.5 98.5v280q0 67 31.5 98.5t98.5 31.5
h177z" />
    <glyph glyph-name="Cdotaccent" unicode="&#x10a;" horiz-adv-x="646" 
d="M264 766v128h130v-128h-130zM208 0q-140 0 -140 140v420q0 140 140 140h240q140 0 140 -140v-114h-144v102q0 20 -20 20h-192q-20 0 -20 -20v-396q0 -20 20 -20h192q20 0 20 20v102h144v-114q0 -140 -140 -140h-240z" />
    <glyph glyph-name="cdotaccent" unicode="&#x10b;" horiz-adv-x="535" 
d="M208 606v128h130v-128h-130zM359 540q67 0 98.5 -31.5t31.5 -98.5v-68h-138v56q0 22 -22 22h-117q-22 0 -22 -22v-256q0 -22 22 -22h117q22 0 22 22v56h138v-68q0 -67 -31.5 -98.5t-98.5 -31.5h-177q-67 0 -98.5 31.5t-31.5 98.5v280q0 67 31.5 98.5t98.5 31.5h177z" />
    <glyph glyph-name="Ccaron" unicode="&#x10c;" horiz-adv-x="646" 
d="M269 766l-130 130h129l61 -63l61 63h129l-130 -130h-120zM448 0q140 0 140 140v114h-144v-102q0 -20 -20 -20h-192q-20 0 -20 20v396q0 20 20 20h192q20 0 20 -20v-102h144v114q0 140 -140 140h-240q-140 0 -140 -140v-420q0 -140 140 -140h240z" />
    <glyph glyph-name="ccaron" unicode="&#x10d;" horiz-adv-x="535" 
d="M213 606l-130 130h129l61 -63l61 63h129l-130 -130h-120zM182 540q-67 0 -98.5 -31.5t-31.5 -98.5v-280q0 -67 31.5 -98.5t98.5 -31.5h177q67 0 98.5 31.5t31.5 98.5v68h-138v-56q0 -22 -22 -22h-117q-22 0 -22 22v256q0 22 22 22h117q22 0 22 -22v-56h138v68
q0 67 -31.5 98.5t-98.5 31.5h-177z" />
    <glyph glyph-name="Dcaron" unicode="&#x10e;" horiz-adv-x="715" 
d="M303 766l-130 130h129l61 -63l61 63h129l-130 -130h-120zM36 118v-118h471q140 0 140 140v420q0 140 -140 140h-471v-118h88v-464h-88zM268 132v436h215q20 0 20 -20v-396q0 -20 -20 -20h-215z" />
    <glyph glyph-name="dcaron" unicode="&#x10f;" horiz-adv-x="759" 
d="M586 102v-102h-210v80q-14 -19 -28 -34.5t-33.5 -26.5t-46.5 -17t-66 -6q-82 0 -116 32.5t-34 107.5v268q0 75 34 107.5t116 32.5q39 0 66 -6t46.5 -17t33.5 -26.5t28 -34.5v168h-94v102h232v-628h72zM749 622q0 -29 -11 -51.5t-37 -52.5l-69 -78h-56l77 134h-64v156h160
v-108zM376 388q-15 8 -30 14t-32 10t-37.5 6t-46.5 2t-33 -5t-7 -17v-256q0 -12 7 -17t33 -5t46.5 2t37.5 6t32 10t30 14v236z" />
    <glyph glyph-name="Dcroat" unicode="&#x110;" horiz-adv-x="715" 
d="M507 700q140 0 140 -140v-420q0 -140 -140 -140h-471v118h88v172h-72v144h72v148h-88v118h471zM503 548q0 20 -20 20h-215v-134h72v-144h-72v-158h215q20 0 20 20v396z" />
    <glyph glyph-name="dcroat" unicode="&#x111;" horiz-adv-x="612" 
d="M586 0h-210v80q-14 -19 -28 -34.5t-33.5 -26.5t-46.5 -17t-66 -6q-82 0 -116 32.5t-34 107.5v268q0 75 34 107.5t116 32.5q39 0 66 -6t46.5 -17t33.5 -26.5t28 -34.5v87h-93v52h93v29h-94v102h232v-131h61v-52h-61v-445h72v-102zM376 388q-15 8 -30 14t-32 10t-37.5 6
t-46.5 2t-33 -5t-7 -17v-256q0 -12 7 -17t33 -5t46.5 2t37.5 6t32 10t30 14v236z" />
    <glyph glyph-name="Emacron" unicode="&#x112;" horiz-adv-x="652" 
d="M203 776v112h276v-112h-276zM469 578h-201v-158h245v-130h-245v-168h201v94h126v-216h-559v118h88v464h-88v118h559v-216h-126v94z" />
    <glyph glyph-name="emacron" unicode="&#x113;" horiz-adv-x="545" 
d="M137 616v112h276v-112h-276zM190 134q0 -22 22 -22h125q22 0 22 22v42h138v-46q0 -67 -31.5 -98.5t-98.5 -31.5h-185q-67 0 -98.5 31.5t-31.5 98.5v280q0 67 31.5 98.5t98.5 31.5h185q67 0 98.5 -31.5t31.5 -98.5v-179h-307v-97zM212 428q-22 0 -22 -22v-82h169v82
q0 22 -22 22h-125z" />
    <glyph glyph-name="Edotaccent" unicode="&#x116;" horiz-adv-x="652" 
d="M276 766v128h130v-128h-130zM469 578h-201v-158h245v-130h-245v-168h201v94h126v-216h-559v118h88v464h-88v118h559v-216h-126v94z" />
    <glyph glyph-name="edotaccent" unicode="&#x117;" horiz-adv-x="545" 
d="M210 606v128h130v-128h-130zM190 134q0 -22 22 -22h125q22 0 22 22v42h138v-46q0 -67 -31.5 -98.5t-98.5 -31.5h-185q-67 0 -98.5 31.5t-31.5 98.5v280q0 67 31.5 98.5t98.5 31.5h185q67 0 98.5 -31.5t31.5 -98.5v-179h-307v-97zM212 428q-22 0 -22 -22v-82h169v82
q0 22 -22 22h-125z" />
    <glyph glyph-name="Eogonek" unicode="&#x118;" horiz-adv-x="652" 
d="M614 -180h-68q-51 0 -81 17t-30 62q0 39 19.5 63t37.5 38h-456v118h88v464h-88v118h559v-216h-126v94h-201v-158h245v-130h-245v-168h201v94h126v-216q-31 -17 -41.5 -32.5t-10.5 -28.5q0 -26 32 -26h39v-93z" />
    <glyph glyph-name="eogonek" unicode="&#x119;" horiz-adv-x="545" 
d="M190 134q0 -22 22 -22h125q22 0 22 22v42h138v-46q0 -67 -31.5 -98.5t-98.5 -31.5h-6q-31 -17 -41.5 -32.5t-10.5 -28.5q0 -26 32 -26h39v-93h-68q-51 0 -81 17t-30 62q0 39 19.5 63t37.5 38h-76q-67 0 -98.5 31.5t-31.5 98.5v280q0 67 31.5 98.5t98.5 31.5h185
q67 0 98.5 -31.5t31.5 -98.5v-179h-307v-97zM212 428q-22 0 -22 -22v-82h169v82q0 22 -22 22h-125z" />
    <glyph glyph-name="Ecaron" unicode="&#x11a;" horiz-adv-x="652" 
d="M151 896h129l61 -63l61 63h129l-130 -130h-120zM469 578h-201v-158h245v-130h-245v-168h201v94h126v-216h-559v118h88v464h-88v118h559v-216h-126v94z" />
    <glyph glyph-name="ecaron" unicode="&#x11b;" horiz-adv-x="545" 
d="M85 736h129l61 -63l61 63h129l-130 -130h-120zM190 134q0 -22 22 -22h125q22 0 22 22v42h138v-46q0 -67 -31.5 -98.5t-98.5 -31.5h-185q-67 0 -98.5 31.5t-31.5 98.5v280q0 67 31.5 98.5t98.5 31.5h185q67 0 98.5 -31.5t31.5 -98.5v-179h-307v-97zM212 428q-22 0 -22 -22
v-82h169v82q0 22 -22 22h-125z" />
    <glyph glyph-name="Gbreve" unicode="&#x11e;" horiz-adv-x="661" 
d="M458 846q0 -80 -80 -80h-78q-80 0 -80 80v55h84v-43q0 -11 3.5 -14.5t14.5 -3.5h34q11 0 14.5 3.5t3.5 14.5v43h84v-55zM451 548q0 20 -20 20h-199q-20 0 -20 -20v-396q0 -20 20 -20h199q20 0 20 20v114h-138v126h282v-252q0 -140 -140 -140h-247q-140 0 -140 140v420
q0 140 140 140h247q140 0 140 -140v-92h-144v80z" />
    <glyph glyph-name="gbreve" unicode="&#x11f;" horiz-adv-x="612" 
d="M253 606q-80 0 -80 80v55h84v-43q0 -11 3.5 -14.5t14.5 -3.5h34q11 0 14.5 3.5t3.5 14.5v43h84v-55q0 -80 -80 -80h-78zM514 438v-468q0 -67 -31.5 -98.5t-98.5 -31.5h-262v110h232q22 0 22 22v132q-14 -19 -28 -34.5t-33.5 -26.5t-46.5 -17t-66 -6q-82 0 -116 32.5
t-34 107.5v244q0 75 34 107.5t116 32.5q39 0 66 -6t46.5 -17t33.5 -26.5t28 -34.5v80h210v-102h-72zM376 388q-15 8 -30 14t-32 10t-37.5 6t-46.5 2t-33 -5t-7 -17v-232q0 -12 7 -17t33 -5t46.5 2t37.5 6t32 10t30 14v212z" />
    <glyph glyph-name="Gdotaccent" unicode="&#x120;" horiz-adv-x="661" 
d="M274 766v128h130v-128h-130zM451 548q0 20 -20 20h-199q-20 0 -20 -20v-396q0 -20 20 -20h199q20 0 20 20v114h-138v126h282v-252q0 -140 -140 -140h-247q-140 0 -140 140v420q0 140 140 140h247q140 0 140 -140v-92h-144v80z" />
    <glyph glyph-name="gdotaccent" unicode="&#x121;" horiz-adv-x="612" 
d="M227 606v128h130v-128h-130zM514 438v-468q0 -67 -31.5 -98.5t-98.5 -31.5h-262v110h232q22 0 22 22v132q-14 -19 -28 -34.5t-33.5 -26.5t-46.5 -17t-66 -6q-82 0 -116 32.5t-34 107.5v244q0 75 34 107.5t116 32.5q39 0 66 -6t46.5 -17t33.5 -26.5t28 -34.5v80h210v-102
h-72zM376 388q-15 8 -30 14t-32 10t-37.5 6t-46.5 2t-33 -5t-7 -17v-232q0 -12 7 -17t33 -5t46.5 2t37.5 6t32 10t30 14v212z" />
    <glyph glyph-name="uni0122" unicode="&#x122;" horiz-adv-x="661" 
d="M451 548q0 20 -20 20h-199q-20 0 -20 -20v-396q0 -20 20 -20h199q20 0 20 20v114h-138v126h282v-252q0 -140 -140 -140h-247q-140 0 -140 140v420q0 140 140 140h247q140 0 140 -140v-92h-144v80zM401 -178q0 -22 -15 -46.5t-33 -47.5l-59 -78h-56l77 134h-54v146h140
v-108z" />
    <glyph glyph-name="uni0123" unicode="&#x123;" horiz-adv-x="612" 
d="M200 616v108q0 22 15 46.5t33 47.5l59 78h56l-77 -134h54v-146h-140zM514 438v-468q0 -67 -31.5 -98.5t-98.5 -31.5h-262v110h232q22 0 22 22v132q-14 -19 -28 -34.5t-33.5 -26.5t-46.5 -17t-66 -6q-82 0 -116 32.5t-34 107.5v244q0 75 34 107.5t116 32.5q39 0 66 -6
t46.5 -17t33.5 -26.5t28 -34.5v80h210v-102h-72zM376 388q-15 8 -30 14t-32 10t-37.5 6t-46.5 2t-33 -5t-7 -17v-232q0 -12 7 -17t33 -5t46.5 2t37.5 6t32 10t30 14v212z" />
    <glyph glyph-name="Hbar" unicode="&#x126;" horiz-adv-x="786" 
d="M662 536h78v-64h-78v-354h88v-118h-318v118h86v172h-250v-172h86v-118h-318v118h88v354h-78v64h78v46h-88v118h318v-118h-86v-46h250v46h-86v118h318v-118h-88v-46zM268 472v-52h250v52h-250z" />
    <glyph glyph-name="hbar" unicode="&#x127;" 
d="M632 0h-272v102h62v293q0 15 -6.5 20.5t-28.5 5.5q-25 0 -45 -2t-36.5 -6t-31.5 -10t-30 -14v-287h62v-102h-276v102h76v445h-61v52h61v29h-76v102h214v-131h87v-52h-87v-86q13 19 27.5 34.5t34 26.5t45.5 17t63 6q79 0 112.5 -32t33.5 -102v-309h72v-102z" />
    <glyph glyph-name="Imacron" unicode="&#x12a;" horiz-adv-x="408" 
d="M66 776v112h276v-112h-276zM276 118h92v-118h-328v118h92v464h-92v118h328v-118h-92v-464z" />
    <glyph glyph-name="imacron" unicode="&#x12b;" horiz-adv-x="368" 
d="M39 599v112h276v-112h-276zM332 0h-294v102h80v336h-80v102h218v-438h76v-102z" />
    <glyph glyph-name="Iogonek" unicode="&#x12e;" horiz-adv-x="408" 
d="M387 -180h-68q-51 0 -81 17t-30 62q0 39 19.5 63t37.5 38h-225v118h92v464h-92v118h328v-118h-92v-464h92v-118q-31 -17 -41.5 -32.5t-10.5 -28.5q0 -26 32 -26h39v-93z" />
    <glyph glyph-name="iogonek" unicode="&#x12f;" horiz-adv-x="368" 
d="M114 600v130h146v-130h-146zM351 -180h-68q-51 0 -81 17t-30 62q0 39 19.5 63t37.5 38h-191v102h80v336h-80v102h218v-438h76v-102q-31 -17 -41.5 -32.5t-10.5 -28.5q0 -26 32 -26h39v-93z" />
    <glyph glyph-name="Idotaccent" unicode="&#x130;" horiz-adv-x="408" 
d="M139 766v128h130v-128h-130zM276 118h92v-118h-328v118h92v464h-92v118h328v-118h-92v-464z" />
    <glyph glyph-name="IJ" unicode="&#x132;" horiz-adv-x="1020" 
d="M368 582h-92v-464h92v-118h-328v118h92v464h-92v118h328v-118zM904 582v-442q0 -140 -140 -140h-192q-140 0 -140 140v156h144v-144q0 -20 20 -20h144q20 0 20 20v430h-102v118h330v-118h-84z" />
    <glyph glyph-name="ij" unicode="&#x133;" horiz-adv-x="656" 
d="M114 600v130h146v-130h-146zM598 600h-146v130h146v-130zM332 102v-102h-294v102h80v336h-80v102h218v-438h76zM594 -15q0 -32 -8 -53.5t-24 -36t-40.5 -23.5t-57.5 -16l-105 -22v92l79 42q9 5 13.5 9.5t4.5 14.5v446h-80v102h218v-555z" />
    <glyph glyph-name="uni0136" unicode="&#x136;" horiz-adv-x="748" 
d="M726 0h-189l-165 303l-102 -123v-62h90v-118h-320v118h88v464h-88v118h310v-118h-80v-226l174 226h-47v118h300v-118h-93l-136 -164l163 -300h95v-118zM478 -70v-108q0 -22 -15 -46.5t-33 -47.5l-59 -78h-56l77 134h-54v146h140z" />
    <glyph glyph-name="uni0137" unicode="&#x137;" horiz-adv-x="609" 
d="M599 0h-168l-111 223l-78 -92v-29h62v-102h-274v102h76v526h-76v102h212v-443l118 151h-44v102h258v-102h-71l-96 -112l115 -224h77v-102zM401 -70v-108q0 -22 -15 -46.5t-33 -47.5l-59 -78h-56l77 134h-54v146h140z" />
    <glyph glyph-name="Lacute" unicode="&#x139;" horiz-adv-x="626" 
d="M121 766l90 144h175l-149 -144h-116zM36 0v118h88v464h-88v118h334v-118h-102v-460h194v154h130v-276h-556z" />
    <glyph glyph-name="lacute" unicode="&#x13a;" horiz-adv-x="368" 
d="M112 796l90 144h175l-149 -144h-116zM332 102v-102h-294v102h80v526h-80v102h218v-628h76z" />
    <glyph glyph-name="uni013B" unicode="&#x13b;" horiz-adv-x="626" 
d="M36 0v118h88v464h-88v118h334v-118h-102v-460h194v154h130v-276h-556zM417 -178q0 -22 -15 -46.5t-33 -47.5l-59 -78h-56l77 134h-54v146h140v-108z" />
    <glyph glyph-name="uni013C" unicode="&#x13c;" horiz-adv-x="368" 
d="M332 0h-294v102h80v526h-80v102h218v-628h76v-102zM257 -70v-108q0 -22 -15 -46.5t-33 -47.5l-59 -78h-56l77 134h-54v146h140z" />
    <glyph glyph-name="Lcaron" unicode="&#x13d;" horiz-adv-x="626" 
d="M36 0v118h88v464h-88v118h334v-118h-102v-460h194v154h130v-276h-556zM584 592q0 -29 -11 -51.5t-37 -52.5l-69 -78h-56l77 134h-64v156h160v-108z" />
    <glyph glyph-name="lcaron" unicode="&#x13e;" horiz-adv-x="459" 
d="M332 102v-102h-294v102h80v526h-80v102h218v-628h76zM443 622q0 -22 -15 -46.5t-33 -47.5l-59 -78h-56l77 134h-54v146h140v-108z" />
    <glyph glyph-name="Ldot" unicode="&#x13f;" horiz-adv-x="626" 
d="M36 0v118h88v464h-88v118h334v-118h-102v-460h194v154h130v-276h-556zM339 340v156h160v-156h-160z" />
    <glyph glyph-name="ldot" unicode="&#x140;" horiz-adv-x="478" 
d="M332 102v-102h-294v102h80v526h-80v102h218v-628h76zM468 314h-140v146h140v-146z" />
    <glyph glyph-name="Lslash" unicode="&#x141;" horiz-adv-x="626" 
d="M592 0h-556v118h88v163l-64 -25v133l64 25v168h-88v118h334v-118h-102v-113l136 52v-133l-136 -52v-214h194v154h130v-276z" />
    <glyph glyph-name="lslash" unicode="&#x142;" horiz-adv-x="368" 
d="M253 102h76v-102h-294v102h80v202l-93 -38v133l93 38v191h-80v102h218v-237l93 38v-133l-93 -38v-258z" />
    <glyph glyph-name="Nacute" unicode="&#x143;" horiz-adv-x="790" 
d="M323 766l90 144h175l-149 -144h-116zM674 582v-582h-149l-263 481v-363h96v-118h-322v118h88v464h-88v118h246l254 -465v347h-96v118h318v-118h-84z" />
    <glyph glyph-name="nacute" unicode="&#x144;" 
d="M262 606l90 144h175l-149 -144h-116zM632 0h-272v102h62v293q0 15 -6.5 20.5t-28.5 5.5q-25 0 -45 -2t-36.5 -6t-31.5 -10t-30 -14v-287h62v-102h-276v102h76v336h-76v102h214v-79q13 19 27.5 34.5t34 26.5t45.5 17t63 6q79 0 112.5 -32t33.5 -102v-309h72v-102z" />
    <glyph glyph-name="uni0145" unicode="&#x145;" horiz-adv-x="790" 
d="M674 582v-582h-149l-263 481v-363h96v-118h-322v118h88v464h-88v118h246l254 -465v347h-96v118h318v-118h-84zM470 -70v-108q0 -22 -15 -46.5t-33 -47.5l-59 -78h-56l77 134h-54v146h140z" />
    <glyph glyph-name="uni0146" unicode="&#x146;" 
d="M632 0h-272v102h62v293q0 15 -6.5 20.5t-28.5 5.5q-25 0 -45 -2t-36.5 -6t-31.5 -10t-30 -14v-287h62v-102h-276v102h76v336h-76v102h214v-79q13 19 27.5 34.5t34 26.5t45.5 17t63 6q79 0 112.5 -32t33.5 -102v-309h72v-102zM399 -70v-108q0 -22 -15 -46.5t-33 -47.5
l-59 -78h-56l77 134h-54v146h140z" />
    <glyph glyph-name="Ncaron" unicode="&#x147;" horiz-adv-x="790" 
d="M208 896h129l61 -63l61 63h129l-130 -130h-120zM674 582v-582h-149l-263 481v-363h96v-118h-322v118h88v464h-88v118h246l254 -465v347h-96v118h318v-118h-84z" />
    <glyph glyph-name="ncaron" unicode="&#x148;" 
d="M147 736h129l61 -63l61 63h129l-130 -130h-120zM632 0h-272v102h62v293q0 15 -6.5 20.5t-28.5 5.5q-25 0 -45 -2t-36.5 -6t-31.5 -10t-30 -14v-287h62v-102h-276v102h76v336h-76v102h214v-79q13 19 27.5 34.5t34 26.5t45.5 17t63 6q79 0 112.5 -32t33.5 -102v-309h72
v-102z" />
    <glyph glyph-name="Eng" unicode="&#x14a;" horiz-adv-x="790" 
d="M674 582v-622q0 -69 -35.5 -104.5t-104.5 -35.5h-122v124h111q20 0 20 20v25l-283 492v-363h98v-118h-322v118h88v464h-88v118h245l257 -457v339h-98v118h318v-118h-84z" />
    <glyph glyph-name="eng" unicode="&#x14b;" horiz-adv-x="616" 
d="M414 545q79 0 112.5 -32t33.5 -102v-441q0 -66 -31.5 -98t-98.5 -32h-108v120h78q22 0 22 22v413q0 15 -6.5 20.5t-28.5 5.5q-25 0 -45 -2t-36.5 -6t-31.5 -10t-30 -14v-287h62v-102h-276v102h76v336h-76v102h214v-79q13 19 27.5 34.5t34 26.5t45.5 17t63 6z" />
    <glyph glyph-name="Omacron" unicode="&#x14c;" horiz-adv-x="669" 
d="M473 776h-276v112h276v-112zM208 0q-140 0 -140 140v420q0 140 140 140h253q140 0 140 -140v-420q0 -140 -140 -140h-253zM212 152q0 -20 20 -20h205q20 0 20 20v396q0 20 -20 20h-205q-20 0 -20 -20v-396z" />
    <glyph glyph-name="omacron" unicode="&#x14d;" horiz-adv-x="553" 
d="M415 616h-276v112h276v-112zM371 540q67 0 98.5 -31.5t31.5 -98.5v-280q0 -67 -31.5 -98.5t-98.5 -31.5h-189q-67 0 -98.5 31.5t-31.5 98.5v280q0 67 31.5 98.5t98.5 31.5h189zM363 398q0 22 -22 22h-129q-22 0 -22 -22v-256q0 -22 22 -22h129q22 0 22 22v256z" />
    <glyph glyph-name="Ohungarumlaut" unicode="&#x150;" horiz-adv-x="669" 
d="M281 766h-134l115 145h134zM478 766h-134l115 145h134zM208 0q-140 0 -140 140v420q0 140 140 140h253q140 0 140 -140v-420q0 -140 -140 -140h-253zM212 152q0 -20 20 -20h205q20 0 20 20v396q0 20 -20 20h-205q-20 0 -20 -20v-396z" />
    <glyph glyph-name="ohungarumlaut" unicode="&#x151;" horiz-adv-x="553" 
d="M223 606h-134l115 145h134zM420 606h-134l115 145h134zM371 540q67 0 98.5 -31.5t31.5 -98.5v-280q0 -67 -31.5 -98.5t-98.5 -31.5h-189q-67 0 -98.5 31.5t-31.5 98.5v280q0 67 31.5 98.5t98.5 31.5h189zM363 398q0 22 -22 22h-129q-22 0 -22 -22v-256q0 -22 22 -22h129
q22 0 22 22v256z" />
    <glyph glyph-name="OE" unicode="&#x152;" horiz-adv-x="985" 
d="M928 484h-126v94h-201v-158h245v-130h-245v-168h201v94h126v-216h-720q-140 0 -140 140v420q0 140 140 140h720v-216zM232 568q-20 0 -20 -20v-396q0 -20 20 -20h225v436h-225z" />
    <glyph glyph-name="oe" unicode="&#x153;" horiz-adv-x="862" 
d="M505 134q0 -22 22 -22h127q22 0 22 22v42h138v-46q0 -67 -31.5 -98.5t-98.5 -31.5h-187q-29 0 -42.5 6.5t-18.5 18.5q-5 -12 -18.5 -18.5t-42.5 -6.5h-193q-67 0 -98.5 31.5t-31.5 98.5v280q0 67 31.5 98.5t98.5 31.5h193q29 0 42.5 -6.5t18.5 -18.5q5 12 18.5 18.5
t42.5 6.5h187q67 0 98.5 -31.5t31.5 -98.5v-179h-309v-97zM676 406q0 22 -22 22h-127q-22 0 -22 -22v-82h171v82zM367 398q0 22 -22 22h-133q-22 0 -22 -22v-256q0 -22 22 -22h133q22 0 22 22v256z" />
    <glyph glyph-name="Racute" unicode="&#x154;" horiz-adv-x="712" 
d="M287 766l90 144h175l-149 -144h-116zM696 0h-187l-131 270h-110v-152h102v-118h-334v118h88v464h-88v118h450q140 0 140 -140v-142q0 -118 -98 -137l78 -163h90v-118zM462 396q20 0 20 20v136q0 20 -20 20h-194v-176h194z" />
    <glyph glyph-name="racute" unicode="&#x155;" horiz-adv-x="455" 
d="M168 606l90 144h175l-149 -144h-116zM244 456q13 19 27.5 34.5t32 26.5t40.5 17t54 6h33v-130h-58q-40 0 -69 -7.5t-60 -24.5v-276h92v-102h-306v102h76v336h-76v102h214v-84z" />
    <glyph glyph-name="uni0156" unicode="&#x156;" horiz-adv-x="712" 
d="M696 0h-187l-131 270h-110v-152h102v-118h-334v118h88v464h-88v118h450q140 0 140 -140v-142q0 -118 -98 -137l78 -163h90v-118zM462 396q20 0 20 20v136q0 20 -20 20h-194v-176h194zM464 -70v-108q0 -22 -15 -46.5t-33 -47.5l-59 -78h-56l77 134h-54v146h140z" />
    <glyph glyph-name="uni0157" unicode="&#x157;" horiz-adv-x="455" 
d="M431 410h-58q-40 0 -69 -7.5t-60 -24.5v-276h92v-102h-306v102h76v336h-76v102h214v-84q13 19 27.5 34.5t32 26.5t40.5 17t54 6h33v-130zM245 -70v-108q0 -22 -15 -46.5t-33 -47.5l-59 -78h-56l77 134h-54v146h140z" />
    <glyph glyph-name="Rcaron" unicode="&#x158;" horiz-adv-x="712" 
d="M172 896h129l61 -63l61 63h129l-130 -130h-120zM696 0h-187l-131 270h-110v-152h102v-118h-334v118h88v464h-88v118h450q140 0 140 -140v-142q0 -118 -98 -137l78 -163h90v-118zM462 396q20 0 20 20v136q0 20 -20 20h-194v-176h194z" />
    <glyph glyph-name="rcaron" unicode="&#x159;" horiz-adv-x="455" 
d="M53 736h129l61 -63l61 63h129l-130 -130h-120zM244 456q13 19 27.5 34.5t32 26.5t40.5 17t54 6h33v-130h-58q-40 0 -69 -7.5t-60 -24.5v-276h92v-102h-306v102h76v336h-76v102h214v-84z" />
    <glyph glyph-name="Sacute" unicode="&#x15a;" horiz-adv-x="624" 
d="M238 766l90 144h175l-149 -144h-116zM418 550q0 20 -20 20h-178q-20 0 -20 -20v-76q0 -17 7 -23.5t27 -10.5l192 -40q33 -7 59.5 -17.5t45.5 -27.5t29 -41t10 -58v-116q0 -140 -140 -140h-236q-140 0 -140 140v88h140v-78q0 -20 20 -20h192q20 0 20 20v84q0 17 -7 23.5
t-27 10.5l-192 40q-33 7 -59.5 17.5t-45.5 27.5t-29 41t-10 58v108q0 140 140 140h222q140 0 140 -140v-80h-140v70z" />
    <glyph glyph-name="sacute" unicode="&#x15b;" horiz-adv-x="532" 
d="M193 606l90 144h175l-149 -144h-116zM338 410q0 22 -22 22h-105q-12 0 -17 -7.5t-5 -33.5q0 -30 5 -38.5t25 -11.5l149 -24q32 -5 54.5 -14t36.5 -25.5t20.5 -43.5t6.5 -69q0 -93 -31.5 -129t-98.5 -36h-180q-67 0 -98.5 31.5t-31.5 98.5v49h136v-49q0 -22 22 -22h124
q12 0 17 8t5 38q0 17 -1 27t-4 16t-9 8t-16 4l-149 24q-32 5 -54.5 14t-36.5 25t-20.5 42t-6.5 66q0 89 31.5 124.5t98.5 35.5h161q67 0 98.5 -31.5t31.5 -98.5v-40h-136v40z" />
    <glyph glyph-name="Scedilla" unicode="&#x15e;" horiz-adv-x="624" 
d="M426 400q33 -7 59.5 -17.5t45.5 -27.5t29 -41t10 -58v-116q0 -140 -140 -140h-54v-73q0 -28 -6 -46t-18 -28.5t-29.5 -15t-40.5 -4.5h-75l-50 78h95q20 0 20 20v69h-78q-140 0 -140 140v88h140v-78q0 -20 20 -20h192q20 0 20 20v84q0 17 -7 23.5t-27 10.5l-192 40
q-33 7 -59.5 17.5t-45.5 27.5t-29 41t-10 58v108q0 140 140 140h222q140 0 140 -140v-80h-140v70q0 20 -20 20h-178q-20 0 -20 -20v-76q0 -17 7 -23.5t27 -10.5z" />
    <glyph glyph-name="scedilla" unicode="&#x15f;" horiz-adv-x="532" 
d="M368 317q32 -5 54.5 -14t36.5 -25.5t20.5 -43.5t6.5 -69q0 -93 -31.5 -129t-98.5 -36h-32v-73q0 -28 -6 -46t-18 -28.5t-29.5 -15t-40.5 -4.5h-75l-50 78h95q20 0 20 20v69h-44q-67 0 -98.5 31.5t-31.5 98.5v49h136v-49q0 -22 22 -22h124q12 0 17 8t5 38q0 17 -1 27
t-4 16t-9 8t-16 4l-149 24q-32 5 -54.5 14t-36.5 25t-20.5 42t-6.5 66q0 89 31.5 124.5t98.5 35.5h161q67 0 98.5 -31.5t31.5 -98.5v-40h-136v40q0 22 -22 22h-105q-12 0 -17 -7.5t-5 -33.5q0 -30 5 -38.5t25 -11.5z" />
    <glyph glyph-name="Scaron" unicode="&#x160;" horiz-adv-x="624" 
d="M253 766l-130 130h129l61 -63l61 63h129l-130 -130h-120zM418 480h140v80q0 140 -140 140h-222q-140 0 -140 -140v-108q0 -34 10 -58t29 -41t45.5 -27.5t59.5 -17.5l192 -40q20 -4 27 -10.5t7 -23.5v-84q0 -20 -20 -20h-192q-20 0 -20 20v78h-140v-88q0 -140 140 -140
h236q140 0 140 140v116q0 34 -10 58t-29 41t-45.5 27.5t-59.5 17.5l-192 40q-20 4 -27 10.5t-7 23.5v76q0 20 20 20h178q20 0 20 -20v-70z" />
    <glyph glyph-name="scaron" unicode="&#x161;" horiz-adv-x="532" 
d="M208 606l-130 130h129l61 -63l61 63h129l-130 -130h-120zM338 370h136v40q0 67 -31.5 98.5t-98.5 31.5h-161q-67 0 -98.5 -35.5t-31.5 -124.5q0 -40 6.5 -66t20.5 -42t36.5 -25t54.5 -14l149 -24q10 -2 16 -4t9 -8t4 -16t1 -27q0 -30 -5 -38t-17 -8h-124q-22 0 -22 22v49
h-136v-49q0 -67 31.5 -98.5t98.5 -31.5h180q67 0 98.5 36t31.5 129q0 42 -6.5 69t-20.5 43.5t-36.5 25.5t-54.5 14l-149 24q-20 3 -25 11.5t-5 38.5q0 26 5 33.5t17 7.5h105q22 0 22 -22v-40z" />
    <glyph glyph-name="uni0162" unicode="&#x162;" horiz-adv-x="674" 
d="M516 580h-107v-462h108v-118h-127v-73q0 -28 -6 -46t-18 -28.5t-29.5 -15t-40.5 -4.5h-75l-50 78h95q20 0 20 20v69h-129v118h108v462h-107v-126h-126v246h610v-246h-126v126z" />
    <glyph glyph-name="uni0163" unicode="&#x163;" horiz-adv-x="406" 
d="M246 136q0 -22 22 -22h94v-187q0 -28 -6 -46t-18 -28.5t-29.5 -15t-40.5 -4.5h-75l-50 78h95q20 0 20 20v69h-20q-67 0 -98.5 31.5t-31.5 98.5v298h-80v112h82v130h134v-130h118v-112h-116v-292z" />
    <glyph glyph-name="Tcaron" unicode="&#x164;" horiz-adv-x="674" 
d="M147 896h129l61 -63l61 63h129l-130 -130h-120zM516 580h-107v-462h108v-118h-360v118h108v462h-107v-126h-126v246h610v-246h-126v126z" />
    <glyph glyph-name="tcaron" unicode="&#x165;" horiz-adv-x="406" 
d="M443 752q0 -29 -11 -51.5t-37 -52.5l-69 -78h-56l77 134h-64v156h160v-108zM246 136q0 -22 22 -22h94v-114h-124q-67 0 -98.5 31.5t-31.5 98.5v298h-80v112h82v130h134v-130h118v-112h-116v-292z" />
    <glyph glyph-name="Tbar" unicode="&#x166;" horiz-adv-x="674" 
d="M199 776v112h276v-112h-276zM516 580h-107v-462h108v-118h-360v118h108v462h-107v-126h-126v246h610v-246h-126v126z" />
    <glyph glyph-name="tbar" unicode="&#x167;" horiz-adv-x="406" 
d="M246 320h87v-112h-87v-72q0 -22 22 -22h94v-114h-124q-67 0 -98.5 31.5t-31.5 98.5v78h-51v112h51v108h-80v112h82v130h134v-130h118v-112h-116v-108z" />
    <glyph glyph-name="Umacron" unicode="&#x16a;" horiz-adv-x="754" 
d="M239 776v112h276v-112h-276zM638 582v-442q0 -140 -140 -140h-242q-140 0 -140 140v442h-84v118h316v-118h-88v-430q0 -20 20 -20h194q20 0 20 20v430h-88v118h316v-118h-84z" />
    <glyph glyph-name="umacron" unicode="&#x16b;" horiz-adv-x="650" 
d="M179 616v112h276v-112h-276zM624 0h-210v79q-14 -19 -28 -34.5t-33.5 -26.5t-45.5 -17t-63 -6q-79 0 -112.5 32t-33.5 102v309h-70v102h208v-391q0 -15 6.5 -20.5t28.5 -5.5q25 0 45 2t36.5 6t31.5 10t30 14v283h-86v102h224v-438h72v-102z" />
    <glyph glyph-name="Uring" unicode="&#x16e;" horiz-adv-x="754" 
d="M341 766q-32 0 -46 14t-14 46v60q0 32 14 46t46 14h72q32 0 46 -14t14 -46v-60q0 -32 -14 -46t-46 -14h-72zM343 834q0 -8 2 -10t10 -2h44q8 0 10 2t2 10v44q0 8 -2 10t-10 2h-44q-8 0 -10 -2t-2 -10v-44zM638 582v-442q0 -140 -140 -140h-242q-140 0 -140 140v442h-84
v118h316v-118h-88v-430q0 -20 20 -20h194q20 0 20 20v430h-88v118h316v-118h-84z" />
    <glyph glyph-name="uring" unicode="&#x16f;" horiz-adv-x="650" 
d="M281 606q-32 0 -46 14t-14 46v60q0 32 14 46t46 14h72q32 0 46 -14t14 -46v-60q0 -32 -14 -46t-46 -14h-72zM283 674q0 -8 2 -10t10 -2h44q8 0 10 2t2 10v44q0 8 -2 10t-10 2h-44q-8 0 -10 -2t-2 -10v-44zM624 0h-210v79q-14 -19 -28 -34.5t-33.5 -26.5t-45.5 -17t-63 -6
q-79 0 -112.5 32t-33.5 102v309h-70v102h208v-391q0 -15 6.5 -20.5t28.5 -5.5q25 0 45 2t36.5 6t31.5 10t30 14v283h-86v102h224v-438h72v-102z" />
    <glyph glyph-name="Uhungarumlaut" unicode="&#x170;" horiz-adv-x="754" 
d="M189 766l115 145h134l-115 -145h-134zM501 911h134l-115 -145h-134zM638 582v-442q0 -140 -140 -140h-242q-140 0 -140 140v442h-84v118h316v-118h-88v-430q0 -20 20 -20h194q20 0 20 20v430h-88v118h316v-118h-84z" />
    <glyph glyph-name="uhungarumlaut" unicode="&#x171;" horiz-adv-x="650" 
d="M129 606l115 145h134l-115 -145h-134zM441 751h134l-115 -145h-134zM624 0h-210v79q-14 -19 -28 -34.5t-33.5 -26.5t-45.5 -17t-63 -6q-79 0 -112.5 32t-33.5 102v309h-70v102h208v-391q0 -15 6.5 -20.5t28.5 -5.5q25 0 45 2t36.5 6t31.5 10t30 14v283h-86v102h224v-438
h72v-102z" />
    <glyph glyph-name="Uogonek" unicode="&#x172;" horiz-adv-x="754" 
d="M638 582v-442q0 -140 -140 -140h-62q-31 -17 -41.5 -32.5t-10.5 -28.5q0 -26 32 -26h39v-93h-68q-51 0 -81 17t-30 62q0 39 19.5 63t37.5 38h-77q-140 0 -140 140v442h-84v118h316v-118h-88v-430q0 -20 20 -20h194q20 0 20 20v430h-88v118h316v-118h-84z" />
    <glyph glyph-name="uogonek" unicode="&#x173;" horiz-adv-x="650" 
d="M643 -180h-68q-51 0 -81 17t-30 62q0 39 19.5 63t37.5 38h-107v79q-14 -19 -28 -34.5t-33.5 -26.5t-45.5 -17t-63 -6q-79 0 -112.5 32t-33.5 102v309h-70v102h208v-391q0 -15 6.5 -20.5t28.5 -5.5q25 0 45 2t36.5 6t31.5 10t30 14v283h-86v102h224v-438h72v-102
q-31 -17 -41.5 -32.5t-10.5 -28.5q0 -26 32 -26h39v-93z" />
    <glyph glyph-name="Wcircumflex" unicode="&#x174;" horiz-adv-x="1036" 
d="M331 766l130 130h120l130 -130h-129l-61 63l-61 -63h-129zM937 582l-146 -582h-152l-118 456l-118 -456h-159l-145 582h-79v118h306v-118h-82l84 -396l132 514h122l132 -514l84 396h-82v118h300v-118h-79z" />
    <glyph glyph-name="wcircumflex" unicode="&#x175;" horiz-adv-x="850" 
d="M240 606l130 130h120l130 -130h-129l-61 63l-61 -63h-129zM780 438l-118 -438h-144l-88 381l-88 -381h-144l-127 438h-55v102h248v-102h-53l58 -289l94 391h134l94 -391l58 289h-54v102h239v-102h-54z" />
    <glyph glyph-name="Ycircumflex" unicode="&#x176;" horiz-adv-x="720" 
d="M171 766l130 130h120l130 -130h-129l-61 63l-61 -63h-129zM432 118h90v-118h-324v118h90v123l-190 341h-78v118h282v-118h-49l108 -200l108 200h-49v118h280v-118h-78l-190 -341v-123z" />
    <glyph glyph-name="ycircumflex" unicode="&#x177;" horiz-adv-x="596" 
d="M111 606l130 130h120l130 -130h-129l-61 63l-61 -63h-129zM344 -58h61v-102h-278v102h80l19 58l-154 438h-56v102h248v-102h-51l85 -301l90 301h-50v102h242v-102h-57z" />
    <glyph glyph-name="Ydieresis" unicode="&#x178;" horiz-adv-x="720" 
d="M195 766v128h130v-128h-130zM397 766v128h130v-128h-130zM432 118h90v-118h-324v118h90v123l-190 341h-78v118h282v-118h-49l108 -200l108 200h-49v118h280v-118h-78l-190 -341v-123z" />
    <glyph glyph-name="Zacute" unicode="&#x179;" horiz-adv-x="638" 
d="M256 766l90 144h175l-149 -144h-116zM584 0h-530v108l348 464h-214v-108h-124v236h516v-108l-348 -464h228v108h124v-236z" />
    <glyph glyph-name="zacute" unicode="&#x17a;" horiz-adv-x="539" 
d="M202 606l90 144h175l-149 -144h-116zM497 0h-455v96l278 336h-135v-82h-128v190h433v-96l-278 -336h157v82h128v-190z" />
    <glyph glyph-name="Zdotaccent" unicode="&#x17b;" horiz-adv-x="638" 
d="M266 766v128h130v-128h-130zM584 0h-530v108l348 464h-214v-108h-124v236h516v-108l-348 -464h228v108h124v-236z" />
    <glyph glyph-name="zdotaccent" unicode="&#x17c;" horiz-adv-x="539" 
d="M212 606v128h130v-128h-130zM497 0h-455v96l278 336h-135v-82h-128v190h433v-96l-278 -336h157v82h128v-190z" />
    <glyph glyph-name="Zcaron" unicode="&#x17d;" horiz-adv-x="638" 
d="M141 896h129l61 -63l61 63h129l-130 -130h-120zM584 0h-530v108l348 464h-214v-108h-124v236h516v-108l-348 -464h228v108h124v-236z" />
    <glyph glyph-name="zcaron" unicode="&#x17e;" horiz-adv-x="539" 
d="M87 736h129l61 -63l61 63h129l-130 -130h-120zM497 0h-455v96l278 336h-135v-82h-128v190h433v-96l-278 -336h157v82h128v-190z" />
    <glyph glyph-name="florin" unicode="&#x192;" horiz-adv-x="488" 
d="M321 568q-20 0 -20 -20v-100h131v-126h-131v-182q0 -140 -140 -140h-115v132h91q20 0 20 20v170h-104v126h104v112q0 140 140 140h145v-132h-121z" />
    <glyph glyph-name="circumflex" unicode="&#x2c6;" horiz-adv-x="684" 
d="M281 766h-129l130 130h120l130 -130h-129l-61 63z" />
    <glyph glyph-name="caron" unicode="&#x2c7;" horiz-adv-x="684" 
d="M282 766l-130 130h129l61 -63l61 63h129l-130 -130h-120z" />
    <glyph glyph-name="breve" unicode="&#x2d8;" horiz-adv-x="642" 
d="M440 846q0 -80 -80 -80h-78q-80 0 -80 80v55h84v-43q0 -11 3.5 -14.5t14.5 -3.5h34q11 0 14.5 3.5t3.5 14.5v43h84v-55z" />
    <glyph glyph-name="dotaccent" unicode="&#x2d9;" horiz-adv-x="462" 
d="M166 766v128h130v-128h-130z" />
    <glyph glyph-name="ring" unicode="&#x2da;" horiz-adv-x="368" 
d="M148 766q-32 0 -46 14t-14 46v60q0 32 14 46t46 14h72q32 0 46 -14t14 -46v-60q0 -32 -14 -46t-46 -14h-72zM162 890q-8 0 -10 -2t-2 -10v-44q0 -8 2 -10t10 -2h44q8 0 10 2t2 10v44q0 8 -2 10t-10 2h-44z" />
    <glyph glyph-name="ogonek" unicode="&#x2db;" horiz-adv-x="408" 
d="M227 -61q0 -26 32 -26h39v-93h-68q-51 0 -81 17t-30 62q0 39 19.5 63t37.5 38h103q-31 -17 -41.5 -32.5t-10.5 -28.5z" />
    <glyph glyph-name="tilde" unicode="&#x2dc;" horiz-adv-x="634" 
d="M227 764h-74v25q0 58 24.5 85t59.5 27q22 0 41.5 -7t36.5 -16t33 -16t32 -7q21 0 21 21v19h76v-25q0 -58 -21.5 -85t-56.5 -27q-21 0 -41 7t-38.5 16t-36 16t-33.5 7q-11 0 -17 -4t-6 -17v-19z" />
    <glyph glyph-name="hungarumlaut" unicode="&#x2dd;" horiz-adv-x="774" 
d="M298 766h-134l115 145h134zM495 766h-134l115 145h134z" />
    <glyph glyph-name="uni0326" unicode="&#x326;" horiz-adv-x="0" 
d="M265 -178q0 -22 -15 -46.5t-33 -47.5l-59 -78h-56l77 134h-54v146h140v-108z" />
    <glyph glyph-name="Wgrave" unicode="&#x1e80;" horiz-adv-x="1036" 
d="M331 910h175l90 -144h-116zM937 582l-146 -582h-152l-118 456l-118 -456h-159l-145 582h-79v118h306v-118h-82l84 -396l132 514h122l132 -514l84 396h-82v118h300v-118h-79z" />
    <glyph glyph-name="wgrave" unicode="&#x1e81;" horiz-adv-x="850" 
d="M240 750h175l90 -144h-116zM780 438l-118 -438h-144l-88 381l-88 -381h-144l-127 438h-55v102h248v-102h-53l58 -289l94 391h134l94 -391l58 289h-54v102h239v-102h-54z" />
    <glyph glyph-name="Wacute" unicode="&#x1e82;" horiz-adv-x="1036" 
d="M446 766l90 144h175l-149 -144h-116zM937 582l-146 -582h-152l-118 456l-118 -456h-159l-145 582h-79v118h306v-118h-82l84 -396l132 514h122l132 -514l84 396h-82v118h300v-118h-79z" />
    <glyph glyph-name="wacute" unicode="&#x1e83;" horiz-adv-x="850" 
d="M355 606l90 144h175l-149 -144h-116zM780 438l-118 -438h-144l-88 381l-88 -381h-144l-127 438h-55v102h248v-102h-53l58 -289l94 391h134l94 -391l58 289h-54v102h239v-102h-54z" />
    <glyph glyph-name="Wdieresis" unicode="&#x1e84;" horiz-adv-x="1036" 
d="M355 766v128h130v-128h-130zM557 766v128h130v-128h-130zM937 582l-146 -582h-152l-118 456l-118 -456h-159l-145 582h-79v118h306v-118h-82l84 -396l132 514h122l132 -514l84 396h-82v118h300v-118h-79z" />
    <glyph glyph-name="wdieresis" unicode="&#x1e85;" horiz-adv-x="850" 
d="M264 606v128h130v-128h-130zM466 606v128h130v-128h-130zM780 438l-118 -438h-144l-88 381l-88 -381h-144l-127 438h-55v102h248v-102h-53l58 -289l94 391h134l94 -391l58 289h-54v102h239v-102h-54z" />
    <glyph glyph-name="Ygrave" unicode="&#x1ef2;" horiz-adv-x="720" 
d="M171 910h175l90 -144h-116zM432 118h90v-118h-324v118h90v123l-190 341h-78v118h282v-118h-49l108 -200l108 200h-49v118h280v-118h-78l-190 -341v-123z" />
    <glyph glyph-name="ygrave" unicode="&#x1ef3;" horiz-adv-x="596" 
d="M111 750h175l90 -144h-116zM344 -58h61v-102h-278v102h80l19 58l-154 438h-56v102h248v-102h-51l85 -301l90 301h-50v102h242v-102h-57z" />
    <glyph glyph-name="endash" unicode="&#x2013;" horiz-adv-x="586" 
d="M523 265h-460v128h460v-128z" />
    <glyph glyph-name="emdash" unicode="&#x2014;" horiz-adv-x="826" 
d="M763 265h-700v128h700v-128z" />
    <glyph glyph-name="quoteleft" unicode="&#x2018;" horiz-adv-x="274" 
d="M57 518q0 29 11 51.5t37 52.5l69 78h56l-77 -134h64v-156h-160v108z" />
    <glyph glyph-name="quoteright" unicode="&#x2019;" horiz-adv-x="274" 
d="M217 592q0 -29 -11 -51.5t-37 -52.5l-69 -78h-56l77 134h-64v156h160v-108z" />
    <glyph glyph-name="quotesinglbase" unicode="&#x201a;" horiz-adv-x="274" 
d="M217 48q0 -29 -11 -51.5t-37 -52.5l-69 -78h-56l77 134h-64v156h160v-108z" />
    <glyph glyph-name="quotedblleft" unicode="&#x201c;" horiz-adv-x="480" 
d="M57 518q0 29 11 51.5t37 52.5l69 78h56l-77 -134h64v-156h-160v108zM263 518q0 29 11 51.5t37 52.5l69 78h56l-77 -134h64v-156h-160v108z" />
    <glyph glyph-name="quotedblright" unicode="&#x201d;" horiz-adv-x="480" 
d="M217 592q0 -29 -11 -51.5t-37 -52.5l-69 -78h-56l77 134h-64v156h160v-108zM423 592q0 -29 -11 -51.5t-37 -52.5l-69 -78h-56l77 134h-64v156h160v-108z" />
    <glyph glyph-name="quotedblbase" unicode="&#x201e;" horiz-adv-x="480" 
d="M217 48q0 -29 -11 -51.5t-37 -52.5l-69 -78h-56l77 134h-64v156h160v-108zM423 48q0 -29 -11 -51.5t-37 -52.5l-69 -78h-56l77 134h-64v156h160v-108z" />
    <glyph glyph-name="dagger" unicode="&#x2020;" horiz-adv-x="398" 
d="M262 420v-420h-126v420h-104v120h104v160h126v-160h104v-120h-104z" />
    <glyph glyph-name="daggerdbl" unicode="&#x2021;" horiz-adv-x="398" 
d="M262 300h104v-120h-104v-180h-126v180h-104v120h104v120h-104v120h104v160h126v-160h104v-120h-104v-120z" />
    <glyph glyph-name="bullet" unicode="&#x2022;" horiz-adv-x="452" 
d="M226 250q-63 0 -87.5 24.5t-24.5 87.5t24.5 87.5t87.5 24.5t87.5 -24.5t24.5 -87.5t-24.5 -87.5t-87.5 -24.5z" />
    <glyph glyph-name="ellipsis" unicode="&#x2026;" horiz-adv-x="714" 
d="M57 0v156h160v-156h-160zM277 0v156h160v-156h-160zM497 0v156h160v-156h-160z" />
    <glyph glyph-name="perthousand" unicode="&#x2030;" horiz-adv-x="910" 
d="M208 700q38 0 54 -16t16 -54v-136q0 -38 -16 -54t-54 -16h-86q-37 0 -53.5 16.5t-16.5 53.5v136q0 38 16 54t54 16h86zM218 0h-116l324 700h116zM205 614q0 11 -3.5 14.5t-14.5 3.5h-44q-11 0 -14.5 -3.5t-3.5 -14.5v-104q0 -11 3.5 -14.5t14.5 -3.5h44q11 0 14.5 3.5
t3.5 14.5v104zM522 276q38 0 54 -16t16 -54v-136q0 -38 -16 -54t-54 -16h-86q-37 0 -53.5 16.5t-16.5 53.5v136q0 38 16 54t54 16h86zM788 276q38 0 54 -16t16 -54v-136q0 -38 -16 -54t-54 -16h-86q-37 0 -53.5 16.5t-16.5 53.5v136q0 38 16 54t54 16h86zM519 190
q0 11 -3.5 14.5t-14.5 3.5h-44q-11 0 -14.5 -3.5t-3.5 -14.5v-104q0 -11 3.5 -14.5t14.5 -3.5h44q11 0 14.5 3.5t3.5 14.5v104zM785 190q0 11 -3.5 14.5t-14.5 3.5h-44q-11 0 -14.5 -3.5t-3.5 -14.5v-104q0 -11 3.5 -14.5t14.5 -3.5h44q11 0 14.5 3.5t3.5 14.5v104z" />
    <glyph glyph-name="guilsinglleft" unicode="&#x2039;" horiz-adv-x="334" 
d="M152 301l147 -207h-144l-128 181v52l128 182h144z" />
    <glyph glyph-name="guilsinglright" unicode="&#x203a;" horiz-adv-x="334" 
d="M307 275l-128 -181h-144l147 207l-147 208h144l128 -182v-52z" />
    <glyph glyph-name="fraction" unicode="&#x2044;" horiz-adv-x="236" 
d="M-38 0h-100l412 700h100z" />
    <glyph glyph-name="uni2070" unicode="&#x2070;" horiz-adv-x="403" 
d="M137 414q-47 0 -68.5 21t-21.5 69v216q0 47 21.5 68.5t68.5 21.5h129q47 0 68.5 -21t21.5 -69v-216q0 -47 -21 -68.5t-69 -21.5h-129zM142 516q0 -8 2 -10t10 -2h95q8 0 10 2t2 10v192q0 8 -2 10t-10 2h-95q-8 0 -10 -2t-2 -10v-192z" />
    <glyph glyph-name="uni2074" unicode="&#x2074;" horiz-adv-x="432" 
d="M338 492h60v-78h-237v78h85v34h-194l-21 50l229 234h78v-211h60v-73h-60v-34zM246 687l-89 -88h89v88z" />
    <glyph glyph-name="uni2075" unicode="&#x2075;" horiz-adv-x="394" 
d="M144 720v-89q19 22 43.5 32.5t74.5 10.5q48 0 69 -21t21 -69v-80q0 -47 -21 -68.5t-69 -21.5h-129q-47 0 -68.5 21t-21.5 69v33h95v-21q0 -8 2 -10t10 -2h96q8 0 10 2t2 10v63q0 8 -2 10t-10 2q-43 0 -64.5 -4t-37.5 -9l-95 27v205h290v-90h-195z" />
    <glyph glyph-name="uni2076" unicode="&#x2076;" horiz-adv-x="401" 
d="M257 708q0 8 -2 10t-10 2h-91q-8 0 -10 -2t-2 -10v-88q10 11 20 19t24 13.5t33.5 8.5t46.5 3q48 0 69 -21t21 -69v-70q0 -47 -21 -68.5t-69 -21.5h-129q-47 0 -68.5 21t-21.5 69v216q0 47 21.5 68.5t68.5 21.5h125q48 0 69 -21t21 -69v-27h-95v15zM142 516q0 -8 2 -10
t10 -2h96q8 0 10 2t2 10v56q0 8 -2 10t-10 2q-24 0 -40.5 -1t-29 -3t-21.5 -4t-17 -5v-55z" />
    <glyph glyph-name="uni2077" unicode="&#x2077;" horiz-adv-x="371" 
d="M340 737l-173 -323h-104l165 306h-113v-66h-88v156h313v-73z" />
    <glyph glyph-name="uni2078" unicode="&#x2078;" horiz-adv-x="396" 
d="M347 698q0 -36 -8 -53.5t-30 -28.5q24 -11 33.5 -29t9.5 -56q0 -67 -21 -92t-69 -25h-128q-24 0 -41 5.5t-28 19t-16 36t-5 56.5q0 38 9.5 56t32.5 29q-22 11 -29.5 28.5t-7.5 53.5q0 63 21.5 87.5t68.5 24.5h118q47 0 68.5 -24t21.5 -88zM155 723q-8 0 -10 -5t-2 -28
t2 -28t10 -5h85q8 0 10 5t2 28t-2 28t-10 5h-85zM151 574q-8 0 -10 -5t-2 -31t2 -31.5t10 -5.5h94q8 0 10 5.5t2 31.5t-2 31t-10 5h-94z" />
    <glyph glyph-name="uni2079" unicode="&#x2079;" horiz-adv-x="401" 
d="M145 516q0 -8 2 -10t10 -2h91q8 0 10 2t2 10v88q-10 -11 -20 -19t-24 -13.5t-33.5 -8.5t-46.5 -3q-48 0 -69 21t-21 69v70q0 47 21 68.5t69 21.5h129q47 0 68.5 -21t21.5 -69v-216q0 -47 -21.5 -68.5t-68.5 -21.5h-125q-48 0 -69 21t-21 69v27h95v-15zM260 708q0 8 -2 10
t-10 2h-96q-8 0 -10 -2t-2 -10v-56q0 -8 2 -10t10 -2q24 0 40.5 1t29 3t21.5 4t17 5v55z" />
    <glyph glyph-name="Euro" unicode="&#x20ac;" horiz-adv-x="685" 
d="M483 548q0 20 -20 20h-184q-20 0 -20 -20v-94h178v-71h-178v-66h178v-71h-178v-94q0 -20 20 -20h184q20 0 20 20v102h144v-114q0 -140 -140 -140h-232q-140 0 -140 140v106h-78v71h78v66h-78v71h78v106q0 140 140 140h232q140 0 140 -140v-114h-144v102z" />
    <glyph glyph-name="trademark" unicode="&#x2122;" horiz-adv-x="820" 
d="M334 565h-65v65h-50v-230h50v-60h-175v60h50v230h-49v-65h-65v135h304v-135zM750 400h40v-60h-149v60h40v168l-77 -173h-49l-77 173v-168h40v-60h-149v60h40v240h-40v60h122l88 -204l90 204h121v-60h-40v-240z" />
    <glyph glyph-name="oneeighth" unicode="&#x215b;" horiz-adv-x="952" 
d="M25 384h88v220l-86 -24v77l106 45h74v-318h88v-78h-270v78zM282 0h-100l412 700h100zM865 202q24 -11 33.5 -29t9.5 -56q0 -67 -21 -92t-69 -25h-128q-24 0 -41 5.5t-28 19t-16 36t-5 56.5q0 38 9.5 56t32.5 29q-22 11 -29.5 28.5t-7.5 53.5q0 63 21.5 87.5t68.5 24.5
h118q47 0 68.5 -24t21.5 -88q0 -36 -8 -53.5t-30 -28.5zM711 309q-8 0 -10 -5t-2 -28t2 -28t10 -5h85q8 0 10 5t2 28t-2 28t-10 5h-85zM801 87q8 0 10 5.5t2 31.5t-2 31t-10 5h-94q-8 0 -10 -5t-2 -31t2 -31.5t10 -5.5h94z" />
    <glyph glyph-name="threeeighths" unicode="&#x215c;" horiz-adv-x="1017" 
d="M132 427q0 -26 2 -31t10 -5h91q8 0 10 5t2 31t-2 31.5t-10 5.5h-91v83h86q8 0 10 5t2 28t-2 28t-10 5h-82q-8 0 -10 -5t-2 -28v-5h-94v11q0 65 21.5 89.5t68.5 24.5h114q46 0 68 -24.5t22 -89.5q0 -19 -1.5 -31.5t-6 -21.5t-11.5 -15t-18 -12q23 -11 32.5 -28t9.5 -58
q0 -66 -21 -91t-69 -25h-124q-48 0 -69 24.5t-21 91.5v9h95v-2zM347 0h-100l412 700h100zM968 284q0 -36 -8 -53.5t-30 -28.5q24 -11 33.5 -29t9.5 -56q0 -67 -21 -92t-69 -25h-128q-24 0 -41 5.5t-28 19t-16 36t-5 56.5q0 38 9.5 56t32.5 29q-22 11 -29.5 28.5t-7.5 53.5
q0 63 21.5 87.5t68.5 24.5h118q47 0 68.5 -24t21.5 -88zM776 309q-8 0 -10 -5t-2 -28t2 -28t10 -5h85q8 0 10 5t2 28t-2 28t-10 5h-85zM772 160q-8 0 -10 -5t-2 -31t2 -31.5t10 -5.5h94q8 0 10 5.5t2 31.5t-2 31t-10 5h-94z" />
    <glyph glyph-name="fiveeighths" unicode="&#x215d;" horiz-adv-x="1026" 
d="M144 610v-89q19 22 43.5 32.5t74.5 10.5q48 0 69 -21t21 -69v-80q0 -47 -21 -68.5t-69 -21.5h-129q-47 0 -68.5 21t-21.5 69v33h95v-21q0 -8 2 -10t10 -2h96q8 0 10 2t2 10v63q0 8 -2 10t-10 2q-43 0 -64.5 -4t-37.5 -9l-95 27v205h290v-90h-195zM356 0h-100l412 700h100
zM977 284q0 -36 -8 -53.5t-30 -28.5q24 -11 33.5 -29t9.5 -56q0 -67 -21 -92t-69 -25h-128q-24 0 -41 5.5t-28 19t-16 36t-5 56.5q0 38 9.5 56t32.5 29q-22 11 -29.5 28.5t-7.5 53.5q0 63 21.5 87.5t68.5 24.5h118q47 0 68.5 -24t21.5 -88zM785 309q-8 0 -10 -5t-2 -28
t2 -28t10 -5h85q8 0 10 5t2 28t-2 28t-10 5h-85zM781 160q-8 0 -10 -5t-2 -31t2 -31.5t10 -5.5h94q8 0 10 5.5t2 31.5t-2 31t-10 5h-94z" />
    <glyph glyph-name="seveneighths" unicode="&#x215e;" horiz-adv-x="923" 
d="M115 610v-66h-88v156h313v-73l-173 -323h-104l165 306h-113zM253 0h-100l412 700h100zM836 202q24 -11 33.5 -29t9.5 -56q0 -67 -21 -92t-69 -25h-128q-24 0 -41 5.5t-28 19t-16 36t-5 56.5q0 38 9.5 56t32.5 29q-22 11 -29.5 28.5t-7.5 53.5q0 63 21.5 87.5t68.5 24.5
h118q47 0 68.5 -24t21.5 -88q0 -36 -8 -53.5t-30 -28.5zM682 309q-8 0 -10 -5t-2 -28t2 -28t10 -5h85q8 0 10 5t2 28t-2 28t-10 5h-85zM772 87q8 0 10 5.5t2 31.5t-2 31t-10 5h-94q-8 0 -10 -5t-2 -31t2 -31.5t10 -5.5h94z" />
    <glyph glyph-name="minus" unicode="&#x2212;" horiz-adv-x="532" 
d="M464 437v-134h-396v134h396z" />
    <glyph glyph-name="infinity" unicode="&#x221e;" horiz-adv-x="854" 
d="M647 570q140 0 140 -140v-134q0 -140 -140 -140h-93q-35 0 -58 8t-37 20t-21 25t-11 24q-4 -11 -11 -24t-21 -25t-37 -20t-58 -8h-93q-140 0 -140 140v134q0 140 140 140h93q35 0 58 -8t37 -20t21 -25.5t11 -23.5q4 10 11 23.5t21 25.5t37 20t58 8h93zM317 286
q20 0 20 20v114q0 20 -20 20h-110q-20 0 -20 -20v-114q0 -20 20 -20h110zM667 420q0 20 -20 20h-110q-20 0 -20 -20v-114q0 -20 20 -20h110q20 0 20 20v114z" />
    <glyph glyph-name="notequal" unicode="&#x2260;" horiz-adv-x="532" 
d="M301 336h163v-130h-210l-42 -115h-94l42 115h-92v130h139l27 76h-166v130h213l39 108h94l-39 -108h89v-130h-136z" />
    <glyph glyph-name="uniFB01" unicode="&#xfb01;" horiz-adv-x="753" 
d="M115 600q0 67 31.5 98.5t98.5 31.5h124v-104h-94q-22 0 -22 -22v-64h108v-112h-108v-326h88v-102h-314v102h88v326h-87v112h87v60zM499 600v130h146v-130h-146zM717 0h-294v102h80v336h-80v102h218v-438h76v-102z" />
    <glyph glyph-name="uniFB02" unicode="&#xfb02;" horiz-adv-x="753" 
d="M115 600q0 67 31.5 98.5t98.5 31.5h124v-104h-94q-22 0 -22 -22v-64h108v-112h-108v-326h88v-102h-314v102h88v326h-87v112h87v60zM717 0h-294v102h80v526h-80v102h218v-628h76v-102z" />
    <glyph glyph-name="glyph113" horiz-adv-x="690" 
d="M571 362q38 -17 54.5 -45t16.5 -63v-114q0 -140 -140 -140h-462v118h88v464h-88v118h454q140 0 140 -140v-90q0 -35 -14 -62t-49 -46zM470 424q20 0 20 20v106q0 20 -20 20h-198v-146h198zM498 280q0 20 -20 20h-206v-170h206q20 0 20 20v130z" />
    <glyph glyph-name="glyph114" horiz-adv-x="748" 
d="M726 0h-199l-200 294h-55v-176h88v-118h-320v118h88v464h-88v118h310v-118h-78v-160h56l112 160h-36v118h290v-118h-90l-157 -224l167 -240h112v-118z" />
    <glyph glyph-name="glyph115" horiz-adv-x="748" 
d="M726 0h-199l-200 294h-55v-176h88v-118h-320v118h88v464h-88v118h310v-118h-78v-160h56l112 160h-36v118h290v-118h-90l-157 -224l167 -240h112v-118zM476 -70v-108q0 -22 -15 -46.5t-33 -47.5l-59 -78h-56l77 134h-54v146h140z" />
    <glyph glyph-name="glyph228" horiz-adv-x="603" 
d="M589 0h-158l-146 220h-43v-118h62v-102h-274v102h76v526h-76v102h212v-394h45l69 102h-32v102h250v-102h-70l-109 -160l120 -176h74v-102z" />
    <glyph glyph-name="glyph229" horiz-adv-x="603" 
d="M589 0h-158l-146 220h-43v-118h62v-102h-274v102h76v526h-76v102h212v-394h45l69 102h-32v102h250v-102h-70l-109 -160l120 -176h74v-102zM398 -70v-108q0 -22 -15 -46.5t-33 -47.5l-59 -78h-56l77 134h-54v146h140z" />
    <glyph glyph-name="glyph244" horiz-adv-x="604" 
d="M192 150q0 -20 20 -20h176q20 0 20 20v124q0 20 -20 20h-167v128h159q20 0 20 20v108q0 20 -20 20h-160q-20 0 -20 -20v-66h-144v76q0 140 140 140h208q140 0 140 -140v-94q0 -37 -14 -63t-49 -45q38 -17 54.5 -44t16.5 -64v-110q0 -140 -140 -140h-224q-140 0 -140 140
v76h144v-66z" />
    <glyph glyph-name="glyph245" horiz-adv-x="624" 
d="M501 358q38 -17 54.5 -44t16.5 -64v-110q0 -140 -140 -140h-240q-140 0 -140 140v110q0 37 16.5 64t54.5 44q-35 19 -49 45t-14 63v94q0 140 140 140h224q140 0 140 -140v-94q0 -37 -14 -63t-49 -45zM204 442q0 -20 20 -20h176q20 0 20 20v108q0 20 -20 20h-176
q-20 0 -20 -20v-108zM428 274q0 20 -20 20h-192q-20 0 -20 -20v-124q0 -20 20 -20h192q20 0 20 20v124z" />
    <glyph glyph-name="glyph246" horiz-adv-x="403" 
d="M137 -126q-47 0 -68.5 21t-21.5 69v216q0 47 21.5 68.5t68.5 21.5h129q47 0 68.5 -21t21.5 -69v-216q0 -47 -21 -68.5t-69 -21.5h-129zM142 -24q0 -8 2 -10t10 -2h95q8 0 10 2t2 10v192q0 8 -2 10t-10 2h-95q-8 0 -10 -2t-2 -10v-192z" />
    <glyph glyph-name="glyph247" horiz-adv-x="320" 
d="M295 -126h-270v78h88v220l-86 -24v77l106 45h74v-318h88v-78z" />
    <glyph glyph-name="glyph248" horiz-adv-x="385" 
d="M138 146h-91v34q0 48 21.5 69t68.5 21h119q48 0 69 -21t21 -69v-61q0 -20 -8.5 -33.5t-21.5 -22.5t-28 -14.5t-28 -8.5l-103 -28q-9 -2 -14.5 -5.5t-5.5 -11.5v-31h122v50h88v-140h-305v146q0 19 7 32.5t19 22.5t27.5 14.5t32.5 9.5l103 28q8 2 14 5.5t6 11.5v24
q0 8 -2 10t-10 2h-89q-8 0 -10 -2t-2 -10v-22z" />
    <glyph glyph-name="glyph249" horiz-adv-x="385" 
d="M132 -3q0 -26 2 -31t10 -5h91q8 0 10 5t2 31t-2 31.5t-10 5.5h-91v83h86q8 0 10 5t2 28t-2 28t-10 5h-82q-8 0 -10 -5t-2 -28v-5h-94v11q0 65 21.5 89.5t68.5 24.5h114q46 0 68 -24.5t22 -89.5q0 -19 -1.5 -31.5t-6 -21.5t-11.5 -15t-18 -12q23 -11 32.5 -28t9.5 -58
q0 -66 -21 -91t-69 -25h-124q-48 0 -69 24.5t-21 91.5v9h95v-2z" />
    <glyph glyph-name="glyph250" horiz-adv-x="432" 
d="M338 -48h60v-78h-237v78h85v34h-194l-21 50l229 234h78v-211h60v-73h-60v-34zM246 147l-89 -88h89v88z" />
    <glyph glyph-name="glyph251" horiz-adv-x="394" 
d="M144 180v-89q19 22 43.5 32.5t74.5 10.5q48 0 69 -21t21 -69v-80q0 -47 -21 -68.5t-69 -21.5h-129q-47 0 -68.5 21t-21.5 69v33h95v-21q0 -8 2 -10t10 -2h96q8 0 10 2t2 10v63q0 8 -2 10t-10 2q-43 0 -64.5 -4t-37.5 -9l-95 27v205h290v-90h-195z" />
    <glyph glyph-name="glyph252" horiz-adv-x="401" 
d="M257 168q0 8 -2 10t-10 2h-91q-8 0 -10 -2t-2 -10v-88q10 11 20 19t24 13.5t33.5 8.5t46.5 3q48 0 69 -21t21 -69v-70q0 -47 -21 -68.5t-69 -21.5h-129q-47 0 -68.5 21t-21.5 69v216q0 47 21.5 68.5t68.5 21.5h125q48 0 69 -21t21 -69v-27h-95v15zM142 -24q0 -8 2 -10
t10 -2h96q8 0 10 2t2 10v56q0 8 -2 10t-10 2q-24 0 -40.5 -1t-29 -3t-21.5 -4t-17 -5v-55z" />
    <glyph glyph-name="glyph253" horiz-adv-x="371" 
d="M340 197l-173 -323h-104l165 306h-113v-66h-88v156h313v-73z" />
    <glyph glyph-name="glyph254" horiz-adv-x="396" 
d="M347 158q0 -36 -8 -53.5t-30 -28.5q24 -11 33.5 -29t9.5 -56q0 -67 -21 -92t-69 -25h-128q-24 0 -41 5.5t-28 19t-16 36t-5 56.5q0 38 9.5 56t32.5 29q-22 11 -29.5 28.5t-7.5 53.5q0 63 21.5 87.5t68.5 24.5h118q47 0 68.5 -24t21.5 -88zM155 183q-8 0 -10 -5t-2 -28
t2 -28t10 -5h85q8 0 10 5t2 28t-2 28t-10 5h-85zM151 34q-8 0 -10 -5t-2 -31t2 -31.5t10 -5.5h94q8 0 10 5.5t2 31.5t-2 31t-10 5h-94z" />
    <glyph glyph-name="glyph255" horiz-adv-x="401" 
d="M145 -24q0 -8 2 -10t10 -2h91q8 0 10 2t2 10v88q-10 -11 -20 -19t-24 -13.5t-33.5 -8.5t-46.5 -3q-48 0 -69 21t-21 69v70q0 47 21 68.5t69 21.5h129q47 0 68.5 -21t21.5 -69v-216q0 -47 -21.5 -68.5t-68.5 -21.5h-125q-48 0 -69 21t-21 69v27h95v-15zM260 168q0 8 -2 10
t-10 2h-96q-8 0 -10 -2t-2 -10v-56q0 -8 2 -10t10 -2q24 0 40.5 1t29 3t21.5 4t17 5v55z" />
    <glyph glyph-name="glyph256" 
d="M215 0q-140 0 -140 140v420q0 140 140 140h229q140 0 140 -140v-420q0 -69 -34 -104.5t-106 -35.5h-229zM219 152q0 -20 20 -20h181q20 0 20 20v396q0 20 -20 20h-181q-20 0 -20 -20v-396z" />
    <glyph glyph-name="glyph257" 
d="M111 0v132h159v428l-159 -50v140l158 50h145v-568h147v-132h-450z" />
    <glyph glyph-name="glyph258" 
d="M88 0v236q0 31 10.5 53t29 38t45 28.5t59.5 24.5l156 60q23 9 31.5 15.5t8.5 24.5v68q0 20 -20 20h-152q-20 0 -20 -20v-66h-140v78q0 140 140 140h196q140 0 140 -140v-112q0 -31 -10.5 -53t-29 -38t-45 -28.5t-59.5 -24.5l-156 -60q-23 -9 -31.5 -15.5t-8.5 -24.5v-72
h216v114h130v-246h-490z" />
    <glyph glyph-name="glyph259" 
d="M222 150q0 -20 20 -20h178q6 0 9.5 2t6 10t3.5 24.5t1 45.5t-1 45.5t-3.5 24.5t-6 10t-9.5 2h-169v128h161q6 0 9.5 2t6 9.5t3.5 22t1 40.5t-1 40.5t-3.5 22t-6 9.5t-9.5 2h-162q-20 0 -20 -20v-66h-144v76q0 140 140 140h210q36 0 62 -9.5t43.5 -31t26 -57.5t8.5 -89
q0 -35 -3.5 -59.5t-11 -42.5t-19.5 -30.5t-29 -22.5q19 -9 32.5 -21.5t22 -31.5t12.5 -46t4 -64q0 -56 -8.5 -93.5t-26 -60t-43.5 -32t-62 -9.5h-226q-140 0 -140 140v76h144v-66z" />
    <glyph glyph-name="glyph260" 
d="M529 118h78v-118h-302v118h84v75h-328l-30 103l346 404h152v-388h78v-119h-78v-75zM389 527l-188 -215h188v215z" />
    <glyph glyph-name="glyph261" 
d="M244 377q13 19 27.5 34.5t33 26.5t44.5 17t64 6q87 0 124 -34.5t37 -105.5v-177q0 -144 -144 -144h-200q-140 0 -140 140v77h144v-65q0 -20 20 -20h156q20 0 20 20v161q0 11 -7 15.5t-34 4.5t-47 -2t-36.5 -6t-31 -10.5t-30.5 -14.5l-144 36v364h454v-132h-310v-191z" />
    <glyph glyph-name="glyph262" 
d="M423 548q0 20 -20 20h-150q-20 0 -20 -20v-190q13 19 27.5 34.5t34 26.5t47 17t67.5 6q91 0 128.5 -34t37.5 -106v-162q0 -140 -140 -140h-206q-140 0 -140 140v420q0 140 140 140h198q140 0 140 -140v-66h-144v54zM233 152q0 -20 20 -20h158q20 0 20 20v142
q0 11 -7.5 15.5t-39.5 4.5q-29 0 -50 -2t-38.5 -6t-32 -10.5t-30.5 -14.5v-129z" />
    <glyph glyph-name="glyph263" 
d="M603 597l-271 -597h-154l259 570h-238v-116h-130v246h534v-103z" />
    <glyph glyph-name="glyph264" 
d="M579 513q0 -34 -3.5 -58.5t-11 -42.5t-19.5 -31t-29 -23q37 -18 54 -54t17 -109q0 -56 -8.5 -93.5t-26 -60t-43.5 -32t-62 -9.5h-234q-36 0 -62 9.5t-43.5 32t-26 60t-8.5 93.5q0 37 4 63.5t12.5 45.5t22 32t32.5 22q-17 10 -29 23t-19.5 31t-11 42.5t-3.5 58.5
q0 53 8.5 89t26 57.5t43.5 31t62 9.5h218q36 0 62 -9.5t43.5 -31t26 -57.5t8.5 -89zM245 570q-6 0 -9.5 -2t-6 -9.5t-3.5 -22.5t-1 -41t1 -41t3.5 -22.5t6 -9.5t9.5 -2h170q6 0 9.5 2t6 9.5t3.5 22.5t1 41t-1 41t-3.5 22.5t-6 9.5t-9.5 2h-170zM237 294q-6 0 -9.5 -2t-6 -10
t-3.5 -24.5t-1 -45.5t1 -45.5t3.5 -24.5t6 -10t9.5 -2h186q6 0 9.5 2t6 10t3.5 24.5t1 45.5t-1 45.5t-3.5 24.5t-6 10t-9.5 2h-186z" />
    <glyph glyph-name="glyph265" 
d="M237 152q0 -20 20 -20h150q20 0 20 20v186q-14 -19 -28 -34.5t-33.5 -26.5t-47 -17t-67.5 -6q-91 0 -128.5 34t-37.5 106v166q0 140 140 140h206q140 0 140 -140v-420q0 -140 -140 -140h-198q-140 0 -140 140v66h144v-54zM427 548q0 20 -20 20h-158q-20 0 -20 -20v-146
q0 -11 7.5 -15.5t39.5 -4.5q29 0 50 2t38.5 6t32 10.5t30.5 14.5v133z" />
    <glyph glyph-name="glyph274" horiz-adv-x="403" 
d="M137 0q-47 0 -68.5 21t-21.5 69v216q0 47 21.5 68.5t68.5 21.5h129q47 0 68.5 -21t21.5 -69v-216q0 -47 -21 -68.5t-69 -21.5h-129zM142 102q0 -8 2 -10t10 -2h95q8 0 10 2t2 10v192q0 8 -2 10t-10 2h-95q-8 0 -10 -2t-2 -10v-192z" />
    <glyph glyph-name="glyph275" horiz-adv-x="320" 
d="M295 0h-270v78h88v220l-86 -24v77l106 45h74v-318h88v-78z" />
    <glyph glyph-name="glyph276" horiz-adv-x="385" 
d="M138 272h-91v34q0 48 21.5 69t68.5 21h119q48 0 69 -21t21 -69v-61q0 -20 -8.5 -33.5t-21.5 -22.5t-28 -14.5t-28 -8.5l-103 -28q-9 -2 -14.5 -5.5t-5.5 -11.5v-31h122v50h88v-140h-305v146q0 19 7 32.5t19 22.5t27.5 14.5t32.5 9.5l103 28q8 2 14 5.5t6 11.5v24
q0 8 -2 10t-10 2h-89q-8 0 -10 -2t-2 -10v-22z" />
    <glyph glyph-name="glyph277" horiz-adv-x="385" 
d="M132 123q0 -26 2 -31t10 -5h91q8 0 10 5t2 31t-2 31.5t-10 5.5h-91v83h86q8 0 10 5t2 28t-2 28t-10 5h-82q-8 0 -10 -5t-2 -28v-5h-94v11q0 65 21.5 89.5t68.5 24.5h114q46 0 68 -24.5t22 -89.5q0 -19 -1.5 -31.5t-6 -21.5t-11.5 -15t-18 -12q23 -11 32.5 -28t9.5 -58
q0 -66 -21 -91t-69 -25h-124q-48 0 -69 24.5t-21 91.5v9h95v-2z" />
    <glyph glyph-name="glyph278" horiz-adv-x="432" 
d="M338 78h60v-78h-237v78h85v34h-194l-21 50l229 234h78v-211h60v-73h-60v-34zM246 273l-89 -88h89v88z" />
    <glyph glyph-name="glyph279" horiz-adv-x="394" 
d="M144 306v-89q19 22 43.5 32.5t74.5 10.5q48 0 69 -21t21 -69v-80q0 -47 -21 -68.5t-69 -21.5h-129q-47 0 -68.5 21t-21.5 69v33h95v-21q0 -8 2 -10t10 -2h96q8 0 10 2t2 10v63q0 8 -2 10t-10 2q-43 0 -64.5 -4t-37.5 -9l-95 27v205h290v-90h-195z" />
    <glyph glyph-name="glyph280" horiz-adv-x="401" 
d="M257 294q0 8 -2 10t-10 2h-91q-8 0 -10 -2t-2 -10v-88q10 11 20 19t24 13.5t33.5 8.5t46.5 3q48 0 69 -21t21 -69v-70q0 -47 -21 -68.5t-69 -21.5h-129q-47 0 -68.5 21t-21.5 69v216q0 47 21.5 68.5t68.5 21.5h125q48 0 69 -21t21 -69v-27h-95v15zM142 102q0 -8 2 -10
t10 -2h96q8 0 10 2t2 10v56q0 8 -2 10t-10 2q-24 0 -40.5 -1t-29 -3t-21.5 -4t-17 -5v-55z" />
    <glyph glyph-name="glyph281" horiz-adv-x="371" 
d="M340 323l-173 -323h-104l165 306h-113v-66h-88v156h313v-73z" />
    <glyph glyph-name="glyph282" horiz-adv-x="396" 
d="M347 284q0 -36 -8 -53.5t-30 -28.5q24 -11 33.5 -29t9.5 -56q0 -67 -21 -92t-69 -25h-128q-24 0 -41 5.5t-28 19t-16 36t-5 56.5q0 38 9.5 56t32.5 29q-22 11 -29.5 28.5t-7.5 53.5q0 63 21.5 87.5t68.5 24.5h118q47 0 68.5 -24t21.5 -88zM155 309q-8 0 -10 -5t-2 -28
t2 -28t10 -5h85q8 0 10 5t2 28t-2 28t-10 5h-85zM151 160q-8 0 -10 -5t-2 -31t2 -31.5t10 -5.5h94q8 0 10 5.5t2 31.5t-2 31t-10 5h-94z" />
    <glyph glyph-name="glyph283" horiz-adv-x="401" 
d="M145 102q0 -8 2 -10t10 -2h91q8 0 10 2t2 10v88q-10 -11 -20 -19t-24 -13.5t-33.5 -8.5t-46.5 -3q-48 0 -69 21t-21 69v70q0 47 21 68.5t69 21.5h129q47 0 68.5 -21t21.5 -69v-216q0 -47 -21.5 -68.5t-68.5 -21.5h-125q-48 0 -69 21t-21 69v27h95v-15zM260 294q0 8 -2 10
t-10 2h-96q-8 0 -10 -2t-2 -10v-56q0 -8 2 -10t10 -2q24 0 40.5 1t29 3t21.5 4t17 5v55z" />
    <glyph glyph-name="glyph284" horiz-adv-x="403" 
d="M137 304q-47 0 -68.5 21t-21.5 69v216q0 47 21.5 68.5t68.5 21.5h129q47 0 68.5 -21t21.5 -69v-216q0 -47 -21 -68.5t-69 -21.5h-129zM142 406q0 -8 2 -10t10 -2h95q8 0 10 2t2 10v192q0 8 -2 10t-10 2h-95q-8 0 -10 -2t-2 -10v-192z" />
    <glyph glyph-name="glyph285" horiz-adv-x="320" 
d="M295 306h-270v78h88v220l-86 -24v77l106 45h74v-318h88v-78z" />
    <glyph glyph-name="glyph286" horiz-adv-x="385" 
d="M138 576h-91v34q0 48 21.5 69t68.5 21h119q48 0 69 -21t21 -69v-61q0 -20 -8.5 -33.5t-21.5 -22.5t-28 -14.5t-28 -8.5l-103 -28q-9 -2 -14.5 -5.5t-5.5 -11.5v-31h122v50h88v-140h-305v146q0 19 7 32.5t19 22.5t27.5 14.5t32.5 9.5l103 28q8 2 14 5.5t6 11.5v24
q0 8 -2 10t-10 2h-89q-8 0 -10 -2t-2 -10v-22z" />
    <glyph glyph-name="glyph287" horiz-adv-x="385" 
d="M132 427q0 -26 2 -31t10 -5h91q8 0 10 5t2 31t-2 31.5t-10 5.5h-91v83h86q8 0 10 5t2 28t-2 28t-10 5h-82q-8 0 -10 -5t-2 -28v-5h-94v11q0 65 21.5 89.5t68.5 24.5h114q46 0 68 -24.5t22 -89.5q0 -19 -1.5 -31.5t-6 -21.5t-11.5 -15t-18 -12q23 -11 32.5 -28t9.5 -58
q0 -66 -21 -91t-69 -25h-124q-48 0 -69 24.5t-21 91.5v9h95v-2z" />
    <glyph glyph-name="glyph288" horiz-adv-x="432" 
d="M338 382h60v-78h-237v78h85v34h-194l-21 50l229 234h78v-211h60v-73h-60v-34zM246 577l-89 -88h89v88z" />
    <glyph glyph-name="glyph289" horiz-adv-x="394" 
d="M144 610v-89q19 22 43.5 32.5t74.5 10.5q48 0 69 -21t21 -69v-80q0 -47 -21 -68.5t-69 -21.5h-129q-47 0 -68.5 21t-21.5 69v33h95v-21q0 -8 2 -10t10 -2h96q8 0 10 2t2 10v63q0 8 -2 10t-10 2q-43 0 -64.5 -4t-37.5 -9l-95 27v205h290v-90h-195z" />
    <glyph glyph-name="glyph290" horiz-adv-x="401" 
d="M257 598q0 8 -2 10t-10 2h-91q-8 0 -10 -2t-2 -10v-88q10 11 20 19t24 13.5t33.5 8.5t46.5 3q48 0 69 -21t21 -69v-70q0 -47 -21 -68.5t-69 -21.5h-129q-47 0 -68.5 21t-21.5 69v216q0 47 21.5 68.5t68.5 21.5h125q48 0 69 -21t21 -69v-27h-95v15zM142 406q0 -8 2 -10
t10 -2h96q8 0 10 2t2 10v56q0 8 -2 10t-10 2q-24 0 -40.5 -1t-29 -3t-21.5 -4t-17 -5v-55z" />
    <glyph glyph-name="glyph291" horiz-adv-x="371" 
d="M340 627l-173 -323h-104l165 306h-113v-66h-88v156h313v-73z" />
    <glyph glyph-name="glyph292" horiz-adv-x="396" 
d="M347 588q0 -36 -8 -53.5t-30 -28.5q24 -11 33.5 -29t9.5 -56q0 -67 -21 -92t-69 -25h-128q-24 0 -41 5.5t-28 19t-16 36t-5 56.5q0 38 9.5 56t32.5 29q-22 11 -29.5 28.5t-7.5 53.5q0 63 21.5 87.5t68.5 24.5h118q47 0 68.5 -24t21.5 -88zM155 613q-8 0 -10 -5t-2 -28
t2 -28t10 -5h85q8 0 10 5t2 28t-2 28t-10 5h-85zM151 464q-8 0 -10 -5t-2 -31t2 -31.5t10 -5.5h94q8 0 10 5.5t2 31.5t-2 31t-10 5h-94z" />
    <glyph glyph-name="glyph293" horiz-adv-x="401" 
d="M145 406q0 -8 2 -10t10 -2h91q8 0 10 2t2 10v88q-10 -11 -20 -19t-24 -13.5t-33.5 -8.5t-46.5 -3q-48 0 -69 21t-21 69v70q0 47 21 68.5t69 21.5h129q47 0 68.5 -21t21.5 -69v-216q0 -47 -21.5 -68.5t-68.5 -21.5h-125q-48 0 -69 21t-21 69v27h95v-15zM260 598q0 8 -2 10
t-10 2h-96q-8 0 -10 -2t-2 -10v-56q0 -8 2 -10t10 -2q24 0 40.5 1t29 3t21.5 4t17 5v55z" />
    <glyph glyph-name="glyph322" 
d="M493 295h80v-126h-123l-56 -169h-135l56 169h-96l-56 -169h-135l56 169h-66v126h109l47 142h-87v126h129l46 137h135l-46 -137h96l46 137h135l-46 -137h60v-126h-102zM309 437l-47 -142h96l47 142h-96z" />
    <glyph glyph-name="glyph344" 
d="M407 568q-20 0 -20 -20v-100h131v-126h-131v-182q0 -140 -140 -140h-115v132h91q20 0 20 20v170h-104v126h104v112q0 140 140 140h145v-132h-121z" />
    <glyph glyph-name="glyph351" 
d="M440 468q0 20 -20 20h-34v-270h34q20 0 20 20v54h130v-56q0 -140 -140 -140h-36v-96h-114v96h-42q-140 0 -140 140v234q0 140 140 140h42v90h114v-90h36q140 0 140 -140v-56h-130v54zM248 488q-20 0 -20 -20v-230q0 -20 20 -20h40v270h-40z" />
    <glyph glyph-name="glyph352" 
d="M537 278q0 -26 -5 -51l82 -82l-85 -86l-84 84q-23 -5 -48 -5h-133q-25 0 -48 5l-84 -84l-85 86l82 82q-5 25 -5 51v160q0 25 5 48l-82 82l85 86l81 -81q25 5 51 5h133q26 0 51 -5l81 81l85 -86l-82 -82q5 -23 5 -48v-160zM415 444q0 20 -20 20h-129q-20 0 -20 -20v-172
q0 -20 20 -20h129q20 0 20 20v172z" />
    <glyph glyph-name="glyph353" 
d="M449 400q34 -7 60.5 -18t45 -33.5t28.5 -58.5t10 -92q0 -57 -8.5 -95.5t-26 -61t-43.5 -32t-62 -9.5h-67v-102h-115v102h-64q-36 0 -62 9.5t-43.5 32t-26 61t-8.5 95.5v32h140v-38q0 -21 1 -33.5t3.5 -19t6 -8t9.5 -1.5h58v164l-70 14q-34 7 -60.5 18t-45 33t-28.5 57
t-10 90q0 56 8.5 93t26 59.5t43.5 32t62 9.5h60v102h115v-102h55q36 0 62 -9.5t43.5 -32t26 -59.5t8.5 -93v-28h-140v34q0 20 -1 31.5t-3.5 17.5t-6 7.5t-9.5 1.5h-49v-155zM285 570h-50q-6 0 -9.5 -1.5t-6 -7.5t-3.5 -17.5t-1 -31.5q0 -23 1.5 -36t5.5 -20.5t10.5 -10.5
t16.5 -5l36 -7v137zM429 130q6 0 9.5 1.5t6 8t3.5 19t1 33.5q0 24 -1.5 38t-5.5 22t-10.5 11t-16.5 5l-43 9v-147h57z" />
    <glyph glyph-name="glyph354" 
d="M473 548q0 20 -20 20h-184q-20 0 -20 -20v-94h178v-71h-178v-66h178v-71h-178v-94q0 -20 20 -20h184q20 0 20 20v102h144v-114q0 -140 -140 -140h-232q-140 0 -140 140v106h-78v71h78v66h-78v71h78v106q0 140 140 140h232q140 0 140 -140v-114h-144v102z" />
    <glyph glyph-name="glyph355" 
d="M594 0h-551v132h62q20 0 20 20v131h-82v130h82v147q0 140 140 140h185q140 0 140 -140v-92h-144v80q0 20 -20 20h-137q-20 0 -20 -20v-135h144v-130h-144v-151h191v84h134v-216z" />
    <glyph glyph-name="glyph356" 
d="M478 378h77v-70h-116l-24 -44h140v-70h-153v-76h90v-118h-324v118h90v76h-153v70h140l-24 44h-116v70h77l-114 204h-78v118h282v-118h-49l108 -198l108 198h-49v118h280v-118h-78z" />
    <glyph glyph-name="glyph383" horiz-adv-x="690" 
d="M586 294v-154q0 -140 -140 -140h-234q-140 0 -140 140v110q0 35 16.5 63t54.5 45q-35 19 -49 46t-14 62v94q0 140 140 140h192q140 0 140 -140v-68h-144v58q0 20 -20 20h-144q-20 0 -20 -20v-108q0 -20 20 -20h414v-128h-72zM236 294q-20 0 -20 -20v-124q0 -20 20 -20
h186q20 0 20 20v144h-206z" />
    </font>
</defs>
</svg>
